<svg width="62" height="62" viewBox="0 0 62 62" fill="none" xmlns="http://www.w3.org/2000/svg">
<path d="M15.5 0C13.3687 0 11.625 1.74375 11.625 3.875V58.125C11.625 60.2563 13.3687 62 15.5 62H54.25C56.3813 62 58.125 60.2563 58.125 58.125V15.5L42.625 0H15.5Z" fill="#E2E5E7"/>
<path d="M46.5 15.5H58.125L42.625 0V11.625C42.625 13.7563 44.3687 15.5 46.5 15.5Z" fill="#B0B7BD"/>
<path d="M58.125 27.125L46.5 15.5H58.125V27.125Z" fill="#CAD1D8"/>
<path d="M50.375 50.3125C50.375 51.3781 49.5031 52.25 48.4375 52.25H5.8125C4.74687 52.25 3.875 51.3781 3.875 50.3125V30.9375C3.875 29.8719 4.74687 29 5.8125 29H48.4375C49.5031 29 50.375 29.8719 50.375 30.9375V50.3125Z" fill="#50CD89"/>
<path d="M48.4375 52.3125H11.625V54.25H48.4375C49.5031 54.25 50.375 53.3781 50.375 52.3125V50.375C50.375 51.4406 49.5031 52.3125 48.4375 52.3125Z" fill="#CAD1D8"/>
<path d="M20.6693 41.8418L22.3509 42.375C22.0931 43.3125 21.6634 44.0098 21.0619 44.4668C20.4642 44.9199 19.7045 45.1465 18.7826 45.1465C17.642 45.1465 16.7045 44.7578 15.9701 43.9805C15.2357 43.1992 14.8685 42.1328 14.8685 40.7812C14.8685 39.3516 15.2377 38.2422 15.9759 37.4531C16.7142 36.6602 17.6849 36.2637 18.888 36.2637C19.9388 36.2637 20.7923 36.5742 21.4486 37.1953C21.8392 37.5625 22.1322 38.0898 22.3275 38.7773L20.6107 39.1875C20.5091 38.7422 20.2963 38.3906 19.972 38.1328C19.6517 37.875 19.2611 37.7461 18.8002 37.7461C18.1634 37.7461 17.6459 37.9746 17.2474 38.4316C16.8529 38.8887 16.6556 39.6289 16.6556 40.6523C16.6556 41.7383 16.8509 42.5117 17.2416 42.9727C17.6322 43.4336 18.14 43.6641 18.765 43.6641C19.2259 43.6641 19.6224 43.5176 19.9545 43.2246C20.2865 42.9316 20.5248 42.4707 20.6693 41.8418ZM23.7656 42.2051L25.4531 42.041C25.5547 42.6074 25.7598 43.0234 26.0684 43.2891C26.3809 43.5547 26.8008 43.6875 27.3281 43.6875C27.8867 43.6875 28.3066 43.5703 28.5879 43.3359C28.873 43.0977 29.0156 42.8203 29.0156 42.5039C29.0156 42.3008 28.9551 42.1289 28.834 41.9883C28.7168 41.8438 28.5098 41.7188 28.2129 41.6133C28.0098 41.543 27.5469 41.418 26.8242 41.2383C25.8945 41.0078 25.2422 40.7246 24.8672 40.3887C24.3398 39.916 24.0762 39.3398 24.0762 38.6602C24.0762 38.2227 24.1992 37.8145 24.4453 37.4355C24.6953 37.0527 25.0527 36.7617 25.5176 36.5625C25.9863 36.3633 26.5508 36.2637 27.2109 36.2637C28.2891 36.2637 29.0996 36.5 29.6426 36.9727C30.1895 37.4453 30.4766 38.0762 30.5039 38.8652L28.7695 38.9414C28.6953 38.5 28.5352 38.1836 28.2891 37.9922C28.0469 37.7969 27.6816 37.6992 27.1934 37.6992C26.6895 37.6992 26.2949 37.8027 26.0098 38.0098C25.8262 38.1426 25.7344 38.3203 25.7344 38.543C25.7344 38.7461 25.8203 38.9199 25.9922 39.0645C26.2109 39.248 26.7422 39.4395 27.5859 39.6387C28.4297 39.8379 29.0527 40.0449 29.4551 40.2598C29.8613 40.4707 30.1777 40.7617 30.4043 41.1328C30.6348 41.5 30.75 41.9551 30.75 42.498C30.75 42.9902 30.6133 43.4512 30.3398 43.8809C30.0664 44.3105 29.6797 44.6309 29.1797 44.8418C28.6797 45.0488 28.0566 45.1523 27.3105 45.1523C26.2246 45.1523 25.3906 44.9023 24.8086 44.4023C24.2266 43.8984 23.8789 43.166 23.7656 42.2051ZM34.7604 45L31.6901 36.4102H33.5709L35.7448 42.7676L37.8483 36.4102H39.6881L36.612 45H34.7604Z" fill="white"/>
<path d="M20.6693 41.8418L20.7146 41.6988L20.5595 41.6496L20.5231 41.8082L20.6693 41.8418ZM22.3509 42.375L22.4956 42.4148L22.5338 42.2756L22.3963 42.232L22.3509 42.375ZM21.0619 44.4668L21.1525 44.5863L21.1526 44.5862L21.0619 44.4668ZM15.9701 43.9805L15.8608 44.0832L15.861 44.0835L15.9701 43.9805ZM15.9759 37.4531L16.0855 37.5556L16.0857 37.5553L15.9759 37.4531ZM21.4486 37.1953L21.3455 37.3043L21.3459 37.3046L21.4486 37.1953ZM22.3275 38.7773L22.3624 38.9232L22.5146 38.8869L22.4718 38.7364L22.3275 38.7773ZM20.6107 39.1875L20.4645 39.2209L20.4982 39.3686L20.6456 39.3334L20.6107 39.1875ZM19.972 38.1328L19.878 38.2497L19.8787 38.2502L19.972 38.1328ZM17.2474 38.4316L17.1344 38.3331L17.1339 38.3336L17.2474 38.4316ZM20.624 41.9848L22.3056 42.518L22.3963 42.232L20.7146 41.6988L20.624 41.9848ZM22.2063 42.3352C21.9547 43.2502 21.5398 43.9153 20.9711 44.3474L21.1526 44.5862C21.7871 44.1042 22.2315 43.3748 22.4956 42.4148L22.2063 42.3352ZM20.9713 44.3473C20.4052 44.7764 19.6794 44.9965 18.7826 44.9965V45.2965C19.7295 45.2965 20.5233 45.0634 21.1525 44.5863L20.9713 44.3473ZM18.7826 44.9965C17.6801 44.9965 16.7831 44.6226 16.0791 43.8775L15.861 44.0835C16.6258 44.893 17.6038 45.2965 18.7826 45.2965V44.9965ZM16.0794 43.8777C15.3775 43.131 15.0185 42.105 15.0185 40.7812H14.7185C14.7185 42.1606 15.0939 43.2674 15.8608 44.0832L16.0794 43.8777ZM15.0185 40.7812C15.0185 39.377 15.3807 38.3089 16.0855 37.5556L15.8664 37.3506C15.0946 38.1755 14.7185 39.3261 14.7185 40.7812H15.0185ZM16.0857 37.5553C16.7923 36.7964 17.7215 36.4137 18.888 36.4137V36.1137C17.6484 36.1137 16.6361 36.5239 15.8662 37.3509L16.0857 37.5553ZM18.888 36.4137C19.9072 36.4137 20.7216 36.7138 21.3455 37.3043L21.5517 37.0864C20.8631 36.4346 19.9705 36.1137 18.888 36.1137V36.4137ZM21.3459 37.3046C21.7112 37.648 21.9929 38.1485 22.1832 38.8183L22.4718 38.7364C22.2715 38.0312 21.9673 37.477 21.5513 37.086L21.3459 37.3046ZM22.2926 38.6314L20.5758 39.0416L20.6456 39.3334L22.3624 38.9232L22.2926 38.6314ZM20.7569 39.1541C20.6486 38.6792 20.419 38.2966 20.0654 38.0154L19.8787 38.2502C20.1735 38.4846 20.3696 38.8051 20.4645 39.2209L20.7569 39.1541ZM20.0661 38.016C19.7159 37.7341 19.2909 37.5961 18.8002 37.5961V37.8961C19.2313 37.8961 19.5875 38.0159 19.878 38.2497L20.0661 38.016ZM18.8002 37.5961C18.1226 37.5961 17.5629 37.8415 17.1344 38.3331L17.3605 38.5302C17.7289 38.1077 18.2043 37.8961 18.8002 37.8961V37.5961ZM17.1339 38.3336C16.7042 38.8313 16.5056 39.6159 16.5056 40.6523H16.8056C16.8056 39.6419 17.0016 38.946 17.361 38.5297L17.1339 38.3336ZM16.5056 40.6523C16.5056 41.7485 16.7013 42.5671 17.1271 43.0696L17.356 42.8757C17.0006 42.4563 16.8056 41.7281 16.8056 40.6523H16.5056ZM17.1271 43.0696C17.5474 43.5655 18.0977 43.8141 18.765 43.8141V43.5141C18.1823 43.5141 17.717 43.3017 17.356 42.8757L17.1271 43.0696ZM18.765 43.8141C19.2608 43.8141 19.6931 43.6553 20.0537 43.3371L19.8552 43.1121C19.5518 43.3799 19.191 43.5141 18.765 43.5141V43.8141ZM20.0537 43.3371C20.4178 43.0158 20.667 42.5215 20.8155 41.8754L20.5231 41.8082C20.3825 42.4199 20.1552 42.8474 19.8552 43.1121L20.0537 43.3371ZM23.7656 42.2051L23.7511 42.0558L23.5987 42.0706L23.6167 42.2226L23.7656 42.2051ZM25.4531 42.041L25.6008 42.0145L25.5763 41.8783L25.4386 41.8917L25.4531 42.041ZM26.0684 43.2891L25.9705 43.4027L25.9712 43.4034L26.0684 43.2891ZM28.5879 43.3359L28.6839 43.4512L28.6841 43.451L28.5879 43.3359ZM28.834 41.9883L28.7174 42.0828L28.7203 42.0862L28.834 41.9883ZM28.2129 41.6133L28.2631 41.4719L28.262 41.4715L28.2129 41.6133ZM26.8242 41.2383L26.8604 41.0927L26.8603 41.0927L26.8242 41.2383ZM24.8672 40.3887L24.7671 40.5004L24.7671 40.5004L24.8672 40.3887ZM24.4453 37.4355L24.3197 37.3535L24.3195 37.3538L24.4453 37.4355ZM25.5176 36.5625L25.4589 36.4244L25.4585 36.4246L25.5176 36.5625ZM29.6426 36.9727L29.5441 37.0858L29.5445 37.0861L29.6426 36.9727ZM30.5039 38.8652L30.5105 39.0151L30.659 39.0086L30.6538 38.86L30.5039 38.8652ZM28.7695 38.9414L28.6216 38.9663L28.6436 39.0971L28.7761 39.0913L28.7695 38.9414ZM28.2891 37.9922L28.1949 38.109L28.197 38.1106L28.2891 37.9922ZM26.0098 38.0098L26.0977 38.1313L26.0979 38.1311L26.0098 38.0098ZM25.9922 39.0645L25.8956 39.1793L25.8958 39.1793L25.9922 39.0645ZM29.4551 40.2598L29.3844 40.3921L29.386 40.3929L29.4551 40.2598ZM30.4043 41.1328L30.2763 41.211L30.2772 41.2126L30.4043 41.1328ZM29.1797 44.8418L29.2371 44.9804L29.238 44.98L29.1797 44.8418ZM24.8086 44.4023L24.7104 44.5157L24.7108 44.5161L24.8086 44.4023ZM23.7801 42.3544L25.4676 42.1903L25.4386 41.8917L23.7511 42.0558L23.7801 42.3544ZM25.3055 42.0675C25.4107 42.6541 25.6269 43.1069 25.9705 43.4027L26.1662 43.1754C25.8927 42.9399 25.6987 42.5608 25.6008 42.0145L25.3055 42.0675ZM25.9712 43.4034C26.3178 43.698 26.7756 43.8375 27.3281 43.8375V43.5375C26.826 43.5375 26.4439 43.4114 26.1655 43.1748L25.9712 43.4034ZM27.3281 43.8375C27.9042 43.8375 28.3647 43.7172 28.6839 43.4512L28.4919 43.2207C28.2486 43.4234 27.8693 43.5375 27.3281 43.5375V43.8375ZM28.6841 43.451C28.9967 43.1898 29.1656 42.8727 29.1656 42.5039H28.8656C28.8656 42.7679 28.7494 43.0055 28.4917 43.2208L28.6841 43.451ZM29.1656 42.5039C29.1656 42.2685 29.0945 42.0609 28.9476 41.8904L28.7203 42.0862C28.8157 42.1969 28.8656 42.3331 28.8656 42.5039H29.1656ZM28.9505 41.8938C28.8077 41.7177 28.57 41.581 28.2631 41.4719L28.1627 41.7546C28.4495 41.8565 28.6259 41.9698 28.7175 42.0828L28.9505 41.8938ZM28.262 41.4715C28.0512 41.3986 27.5813 41.272 26.8604 41.0927L26.788 41.3838C27.5125 41.564 27.9683 41.6874 28.1638 41.755L28.262 41.4715ZM26.8603 41.0927C25.9366 40.8637 25.314 40.5876 24.9673 40.2769L24.7671 40.5004C25.1703 40.8616 25.8525 41.1519 26.7881 41.3839L26.8603 41.0927ZM24.9673 40.277C24.4702 39.8314 24.2262 39.2952 24.2262 38.6602H23.9262C23.9262 39.3845 24.2095 40.0006 24.7671 40.5004L24.9673 40.277ZM24.2262 38.6602C24.2262 38.2526 24.3403 37.8727 24.5711 37.5172L24.3195 37.3538C24.0582 37.7562 23.9262 38.1927 23.9262 38.6602H24.2262ZM24.5709 37.5176C24.803 37.1621 25.136 36.8892 25.5767 36.7004L25.4585 36.4246C24.9695 36.6342 24.5876 36.9433 24.3197 37.3535L24.5709 37.5176ZM25.5762 36.7005C26.0218 36.5112 26.5652 36.4137 27.2109 36.4137V36.1137C26.5363 36.1137 25.9508 36.2154 25.4589 36.4245L25.5762 36.7005ZM27.2109 36.4137C28.2703 36.4137 29.0392 36.6463 29.5441 37.0858L29.7411 36.8595C29.16 36.3537 28.3078 36.1137 27.2109 36.1137V36.4137ZM29.5445 37.0861C30.0567 37.5288 30.328 38.1188 30.354 38.8704L30.6538 38.86C30.6252 38.0335 30.3222 37.3618 29.7407 36.8592L29.5445 37.0861ZM30.4973 38.7154L28.7629 38.7916L28.7761 39.0913L30.5105 39.0151L30.4973 38.7154ZM28.9175 38.9165C28.8397 38.4541 28.6677 38.0966 28.3812 37.8738L28.197 38.1106C28.4027 38.2706 28.5509 38.5459 28.6216 38.9663L28.9175 38.9165ZM28.3832 37.8754C28.1029 37.6494 27.6975 37.5492 27.1934 37.5492V37.8492C27.6657 37.8492 27.9908 37.9444 28.1949 38.1089L28.3832 37.8754ZM27.1934 37.5492C26.6709 37.5492 26.2413 37.6563 25.9216 37.8884L26.0979 38.1311C26.3485 37.9492 26.708 37.8492 27.1934 37.8492V37.5492ZM25.9218 37.8882C25.7001 38.0487 25.5844 38.2712 25.5844 38.543H25.8844C25.8844 38.3694 25.9523 38.2365 26.0977 38.1313L25.9218 37.8882ZM25.5844 38.543C25.5844 38.7954 25.6939 39.0096 25.8956 39.1793L26.0887 38.9496C25.9467 38.8302 25.8844 38.6968 25.8844 38.543H25.5844ZM25.8958 39.1793C26.0263 39.2889 26.2346 39.3898 26.5038 39.4868C26.7769 39.5852 27.1266 39.6844 27.5515 39.7847L27.6204 39.4927C27.2015 39.3938 26.8638 39.2976 26.6055 39.2046C26.3435 39.1102 26.1769 39.0236 26.0886 38.9496L25.8958 39.1793ZM27.5515 39.7847C28.3918 39.9831 28.9996 40.1866 29.3844 40.3921L29.5257 40.1274C29.1059 39.9033 28.4676 39.6927 27.6204 39.4927L27.5515 39.7847ZM29.386 40.3929C29.7693 40.5919 30.0647 40.8645 30.2763 41.211L30.5323 41.0546C30.2907 40.659 29.9534 40.3495 29.5242 40.1266L29.386 40.3929ZM30.2772 41.2126C30.4894 41.5505 30.6 41.9762 30.6 42.498H30.9C30.9 41.934 30.7802 41.4495 30.5313 41.0531L30.2772 41.2126ZM30.6 42.498C30.6 42.9607 30.472 43.3938 30.2133 43.8003L30.4664 43.9614C30.7546 43.5085 30.9 43.0198 30.9 42.498H30.6ZM30.2133 43.8003C29.9573 44.2026 29.5952 44.5037 29.1214 44.7036L29.238 44.98C29.7641 44.758 30.1755 44.4185 30.4664 43.9614L30.2133 43.8003ZM29.1223 44.7032C28.646 44.9004 28.0439 45.0023 27.3105 45.0023V45.3023C28.0694 45.3023 28.7134 45.1972 29.2371 44.9804L29.1223 44.7032ZM27.3105 45.0023C26.2457 45.0023 25.4518 44.7571 24.9063 44.2886L24.7108 44.5161C25.3295 45.0476 26.2035 45.3023 27.3105 45.3023V45.0023ZM24.9068 44.2889C24.3598 43.8154 24.0247 43.1212 23.9146 42.1875L23.6167 42.2226C23.7331 43.2108 24.0933 43.9815 24.7104 44.5157L24.9068 44.2889ZM34.7604 45L34.6191 45.0505L34.6547 45.15H34.7604V45ZM31.6901 36.4102V36.2602H31.4772L31.5488 36.4606L31.6901 36.4102ZM33.5709 36.4102L33.7129 36.3616L33.6782 36.2602H33.5709V36.4102ZM35.7448 42.7676L35.6028 42.8161L35.7471 43.238L35.8872 42.8147L35.7448 42.7676ZM37.8483 36.4102V36.2602H37.7399L37.7059 36.363L37.8483 36.4102ZM39.6881 36.4102L39.8293 36.4607L39.9012 36.2602H39.6881V36.4102ZM36.612 45V45.15H36.7176L36.7532 45.0506L36.612 45ZM34.9016 44.9495L31.8313 36.3597L31.5488 36.4606L34.6191 45.0505L34.9016 44.9495ZM31.6901 36.5602H33.5709V36.2602H31.6901V36.5602ZM33.429 36.4587L35.6028 42.8161L35.8867 42.719L33.7129 36.3616L33.429 36.4587ZM35.8872 42.8147L37.9907 36.4573L37.7059 36.363L35.6024 42.7205L35.8872 42.8147ZM37.8483 36.5602H39.6881V36.2602H37.8483V36.5602ZM39.5469 36.3596L36.4707 44.9494L36.7532 45.0506L39.8293 36.4607L39.5469 36.3596ZM36.612 44.85H34.7604V45.15H36.612V44.85Z" fill="white"/>
</svg>
