<svg width="62" height="62" viewBox="0 0 62 62" fill="none" xmlns="http://www.w3.org/2000/svg">
<path d="M15.5 0C13.3687 0 11.625 1.74375 11.625 3.875V58.125C11.625 60.2563 13.3687 62 15.5 62H54.25C56.3813 62 58.125 60.2563 58.125 58.125V15.5L42.625 0H15.5Z" fill="#E2E5E7"/>
<path d="M46.5 15.5H58.125L42.625 0V11.625C42.625 13.7563 44.3687 15.5 46.5 15.5Z" fill="#B0B7BD"/>
<path d="M58.125 27.125L46.5 15.5H58.125V27.125Z" fill="#CAD1D8"/>
<path d="M50.375 50.3125C50.375 51.3781 49.5031 52.25 48.4375 52.25H5.8125C4.74687 52.25 3.875 51.3781 3.875 50.3125V30.9375C3.875 29.8719 4.74687 29 5.8125 29H48.4375C49.5031 29 50.375 29.8719 50.375 30.9375V50.3125Z" fill="#007AFF"/>
<path d="M48.4375 52.3125H11.625V54.25H48.4375C49.5031 54.25 50.375 53.3781 50.375 52.3125V50.375C50.375 51.4406 49.5031 52.3125 48.4375 52.3125Z" fill="#CAD1D8"/>
<path d="M19.0127 45H17.4834V44.0859C17.2295 44.4414 16.9288 44.707 16.5811 44.8828C16.2373 45.0547 15.8897 45.1406 15.5381 45.1406C14.8233 45.1406 14.21 44.8535 13.6983 44.2793C13.1905 43.7012 12.9366 42.8965 12.9366 41.8652C12.9366 40.8105 13.1846 40.0098 13.6807 39.4629C14.1768 38.9121 14.8038 38.6367 15.5616 38.6367C16.2569 38.6367 16.8584 38.9258 17.3663 39.5039V36.4102H19.0127V45ZM14.6182 41.7539C14.6182 42.418 14.71 42.8984 14.8936 43.1953C15.1592 43.625 15.5303 43.8398 16.0069 43.8398C16.3858 43.8398 16.708 43.6797 16.9737 43.3594C17.2393 43.0352 17.3721 42.5527 17.3721 41.9121C17.3721 41.1973 17.2432 40.6836 16.9854 40.3711C16.7276 40.0547 16.3975 39.8965 15.9952 39.8965C15.6045 39.8965 15.2764 40.0527 15.0108 40.3652C14.7491 40.6738 14.6182 41.1367 14.6182 41.7539ZM20.6208 41.8008C20.6208 41.2539 20.7555 40.7246 21.0251 40.2129C21.2946 39.7012 21.6755 39.3105 22.1677 39.041C22.6637 38.7715 23.2165 38.6367 23.8259 38.6367C24.7673 38.6367 25.5387 38.9434 26.1403 39.5566C26.7419 40.166 27.0427 40.9375 27.0427 41.8711C27.0427 42.8125 26.738 43.5938 26.1286 44.2148C25.5231 44.832 24.7595 45.1406 23.8376 45.1406C23.2673 45.1406 22.7223 45.0117 22.2028 44.7539C21.6872 44.4961 21.2946 44.1191 21.0251 43.623C20.7555 43.123 20.6208 42.5156 20.6208 41.8008ZM22.3083 41.8887C22.3083 42.5059 22.4548 42.9785 22.7477 43.3066C23.0407 43.6348 23.402 43.7988 23.8317 43.7988C24.2614 43.7988 24.6208 43.6348 24.9098 43.3066C25.2028 42.9785 25.3493 42.502 25.3493 41.877C25.3493 41.2676 25.2028 40.7988 24.9098 40.4707C24.6208 40.1426 24.2614 39.9785 23.8317 39.9785C23.402 39.9785 23.0407 40.1426 22.7477 40.4707C22.4548 40.7988 22.3083 41.2715 22.3083 41.8887ZM34.1234 40.6172L32.5003 40.9102C32.4456 40.5859 32.3206 40.3418 32.1253 40.1777C31.9339 40.0137 31.6839 39.9316 31.3753 39.9316C30.9652 39.9316 30.637 40.0742 30.3909 40.3594C30.1488 40.6406 30.0277 41.1133 30.0277 41.7773C30.0277 42.5156 30.1507 43.0371 30.3968 43.3418C30.6468 43.6465 30.9808 43.7988 31.3988 43.7988C31.7113 43.7988 31.9671 43.7109 32.1663 43.5352C32.3655 43.3555 32.5062 43.0488 32.5882 42.6152L34.2054 42.8906C34.0374 43.6328 33.7152 44.1934 33.2386 44.5723C32.762 44.9512 32.1234 45.1406 31.3226 45.1406C30.4124 45.1406 29.6859 44.8535 29.1429 44.2793C28.6038 43.7051 28.3343 42.9102 28.3343 41.8945C28.3343 40.8672 28.6058 40.0684 29.1488 39.498C29.6917 38.9238 30.4261 38.6367 31.3519 38.6367C32.1097 38.6367 32.7113 38.8008 33.1566 39.1289C33.6058 39.4531 33.928 39.9492 34.1234 40.6172ZM34.9463 45L37.1904 41.7949L35.04 38.7773H37.0498L38.1513 40.4883L39.3115 38.7773H41.2451L39.1357 41.7246L41.4384 45H39.417L38.1513 43.0723L36.874 45H34.9463Z" fill="white"/>
<path d="M19.0127 45V45.15H19.1627V45H19.0127ZM17.4834 45H17.3334V45.15H17.4834V45ZM17.4834 44.0859H17.6334V43.6179L17.3614 43.9988L17.4834 44.0859ZM16.5811 44.8828L16.6482 45.017L16.6488 45.0167L16.5811 44.8828ZM13.6983 44.2793L13.5856 44.3783L13.5863 44.3791L13.6983 44.2793ZM13.6807 39.4629L13.7918 39.5637L13.7922 39.5633L13.6807 39.4629ZM17.3663 39.5039L17.2536 39.6029L17.5163 39.902V39.5039H17.3663ZM17.3663 36.4102V36.2602H17.2163V36.4102H17.3663ZM19.0127 36.4102H19.1627V36.2602H19.0127V36.4102ZM14.8936 43.1953L15.0212 43.1164L15.0212 43.1164L14.8936 43.1953ZM16.9737 43.3594L17.0891 43.4551L17.0897 43.4544L16.9737 43.3594ZM16.9854 40.3711L16.8691 40.4658L16.8697 40.4666L16.9854 40.3711ZM15.0108 40.3652L14.8965 40.2681L14.8964 40.2682L15.0108 40.3652ZM19.0127 44.85H17.4834V45.15H19.0127V44.85ZM17.6334 45V44.0859H17.3334V45H17.6334ZM17.3614 43.9988C17.1198 44.3369 16.8369 44.5854 16.5134 44.749L16.6488 45.0167C17.0206 44.8287 17.3392 44.5459 17.6055 44.1731L17.3614 43.9988ZM16.514 44.7486C16.1891 44.9111 15.8643 44.9906 15.5381 44.9906V45.2906C15.9151 45.2906 16.2856 45.1983 16.6482 45.017L16.514 44.7486ZM15.5381 44.9906C14.8696 44.9906 14.296 44.7245 13.8103 44.1795L13.5863 44.3791C14.124 44.9825 14.777 45.2906 15.5381 45.2906V44.9906ZM13.811 44.1803C13.3344 43.6377 13.0866 42.8726 13.0866 41.8652H12.7866C12.7866 42.9204 13.0466 43.7646 13.5856 44.3783L13.811 44.1803ZM13.0866 41.8652C13.0866 40.832 13.3297 40.0731 13.7918 39.5637L13.5696 39.3621C13.0396 39.9464 12.7866 40.7891 12.7866 41.8652H13.0866ZM13.7922 39.5633C14.2591 39.0449 14.8452 38.7867 15.5616 38.7867V38.4867C14.7623 38.4867 14.0945 38.7793 13.5692 39.3625L13.7922 39.5633ZM15.5616 38.7867C16.2088 38.7867 16.7708 39.0533 17.2536 39.6029L17.4789 39.4049C16.9461 38.7982 16.3049 38.4867 15.5616 38.4867V38.7867ZM17.5163 39.5039V36.4102H17.2163V39.5039H17.5163ZM17.3663 36.5602H19.0127V36.2602H17.3663V36.5602ZM18.8627 36.4102V45H19.1627V36.4102H18.8627ZM14.4682 41.7539C14.4682 42.4247 14.5596 42.9405 14.766 43.2742L15.0212 43.1164C14.8604 42.8564 14.7682 42.4112 14.7682 41.7539H14.4682ZM14.766 43.2742C15.057 43.7449 15.4747 43.9898 16.0069 43.9898V43.6898C15.586 43.6898 15.2615 43.5051 15.0212 43.1164L14.766 43.2742ZM16.0069 43.9898C16.4352 43.9898 16.7982 43.806 17.0891 43.4551L16.8582 43.2636C16.6179 43.5534 16.3364 43.6898 16.0069 43.6898V43.9898ZM17.0897 43.4544C17.3863 43.0924 17.5221 42.5699 17.5221 41.9121H17.2221C17.2221 42.5355 17.0923 42.9779 16.8576 43.2643L17.0897 43.4544ZM17.5221 41.9121C17.5221 41.1863 17.3926 40.629 17.1011 40.2756L16.8697 40.4666C17.0938 40.7382 17.2221 41.2082 17.2221 41.9121H17.5221ZM17.1017 40.2763C16.8159 39.9256 16.4433 39.7465 15.9952 39.7465V40.0465C16.3517 40.0465 16.6393 40.1838 16.8691 40.4658L17.1017 40.2763ZM15.9952 39.7465C15.5581 39.7465 15.189 39.924 14.8965 40.2681L15.1251 40.4624C15.3638 40.1815 15.651 40.0465 15.9952 40.0465V39.7465ZM14.8964 40.2682C14.6023 40.615 14.4682 41.1191 14.4682 41.7539H14.7682C14.7682 41.1544 14.8958 40.7327 15.1252 40.4623L14.8964 40.2682ZM22.1677 39.041L22.096 38.9092L22.0956 38.9095L22.1677 39.041ZM26.1403 39.5566L26.0332 39.6617L26.0336 39.662L26.1403 39.5566ZM26.1286 44.2148L26.0215 44.1098L26.0215 44.1098L26.1286 44.2148ZM22.2028 44.7539L22.1357 44.8881L22.1361 44.8883L22.2028 44.7539ZM21.0251 43.623L20.893 43.6942L20.8933 43.6947L21.0251 43.623ZM24.9098 43.3066L24.798 43.2067L24.7973 43.2075L24.9098 43.3066ZM24.9098 40.4707L24.7973 40.5699L24.798 40.5706L24.9098 40.4707ZM20.7708 41.8008C20.7708 41.2797 20.8989 40.7742 21.1578 40.2828L20.8924 40.143C20.6122 40.675 20.4708 41.2281 20.4708 41.8008H20.7708ZM21.1578 40.2828C21.414 39.7963 21.7742 39.4275 22.2397 39.1726L22.0956 38.9095C21.5768 39.1936 21.1752 39.606 20.8924 40.143L21.1578 40.2828ZM22.2393 39.1728C22.7117 38.9162 23.2395 38.7867 23.8259 38.7867V38.4867C23.1935 38.4867 22.6158 38.6268 22.096 38.9092L22.2393 39.1728ZM23.8259 38.7867C24.7312 38.7867 25.4627 39.0801 26.0332 39.6617L26.2474 39.4516C25.6148 38.8067 24.8033 38.4867 23.8259 38.4867V38.7867ZM26.0336 39.662C26.6048 40.2407 26.8927 40.973 26.8927 41.8711H27.1927C27.1927 40.902 26.879 40.0914 26.2471 39.4513L26.0336 39.662ZM26.8927 41.8711C26.8927 42.7768 26.601 43.5192 26.0215 44.1098L26.2357 44.3199C26.8749 43.6683 27.1927 42.8482 27.1927 41.8711H26.8927ZM26.0215 44.1098C25.4463 44.6962 24.7221 44.9906 23.8376 44.9906V45.2906C24.7968 45.2906 25.6 44.9679 26.2357 44.3199L26.0215 44.1098ZM23.8376 44.9906C23.2908 44.9906 22.7687 44.8673 22.2695 44.6195L22.1361 44.8883C22.676 45.1562 23.2437 45.2906 23.8376 45.2906V44.9906ZM22.2699 44.6197C21.7811 44.3754 21.4114 44.0199 21.1569 43.5514L20.8933 43.6947C21.1778 44.2183 21.5933 44.6168 22.1357 44.8881L22.2699 44.6197ZM21.1571 43.5519C20.902 43.0787 20.7708 42.4971 20.7708 41.8008H20.4708C20.4708 42.5342 20.6091 43.1674 20.893 43.6942L21.1571 43.5519ZM22.1583 41.8887C22.1583 42.5279 22.31 43.0416 22.6358 43.4065L22.8596 43.2067C22.5995 42.9154 22.4583 42.4838 22.4583 41.8887H22.1583ZM22.6358 43.4065C22.9565 43.7657 23.3582 43.9488 23.8317 43.9488V43.6488C23.4459 43.6488 23.1249 43.5039 22.8596 43.2067L22.6358 43.4065ZM23.8317 43.9488C24.3054 43.9488 24.7054 43.7656 25.0224 43.4058L24.7973 43.2075C24.5361 43.5039 24.2175 43.6488 23.8317 43.6488V43.9488ZM25.0217 43.4065C25.3479 43.0413 25.4993 42.5234 25.4993 41.877H25.1993C25.1993 42.4805 25.0578 42.9158 24.798 43.2067L25.0217 43.4065ZM25.4993 41.877C25.4993 41.245 25.3473 40.7354 25.0217 40.3708L24.798 40.5706C25.0583 40.8622 25.1993 41.2902 25.1993 41.877H25.4993ZM25.0224 40.3715C24.7054 40.0118 24.3054 39.8285 23.8317 39.8285V40.1285C24.2175 40.1285 24.5361 40.2734 24.7973 40.5699L25.0224 40.3715ZM23.8317 39.8285C23.3582 39.8285 22.9565 40.0117 22.6358 40.3708L22.8596 40.5706C23.1249 40.2735 23.4459 40.1285 23.8317 40.1285V39.8285ZM22.6358 40.3708C22.31 40.7358 22.1583 41.2494 22.1583 41.8887H22.4583C22.4583 41.2935 22.5995 40.8619 22.8596 40.5706L22.6358 40.3708ZM34.1234 40.6172L34.15 40.7648L34.3141 40.7352L34.2673 40.5751L34.1234 40.6172ZM32.5003 40.9102L32.3524 40.9351L32.3776 41.0847L32.527 41.0578L32.5003 40.9102ZM32.1253 40.1777L32.0277 40.2916L32.0288 40.2926L32.1253 40.1777ZM30.3909 40.3594L30.2774 40.2614L30.2773 40.2615L30.3909 40.3594ZM30.3968 43.3418L30.2801 43.4361L30.2808 43.4369L30.3968 43.3418ZM32.1663 43.5352L32.2656 43.6476L32.2668 43.6465L32.1663 43.5352ZM32.5882 42.6152L32.6134 42.4674L32.4682 42.4426L32.4408 42.5874L32.5882 42.6152ZM34.2054 42.8906L34.3517 42.9237L34.3866 42.7693L34.2306 42.7428L34.2054 42.8906ZM29.1429 44.2793L29.0335 44.382L29.0339 44.3824L29.1429 44.2793ZM29.1488 39.498L29.2574 39.6015L29.2577 39.6011L29.1488 39.498ZM33.1566 39.1289L33.0676 39.2497L33.0688 39.2505L33.1566 39.1289ZM34.0967 40.4696L32.4737 40.7625L32.527 41.0578L34.15 40.7648L34.0967 40.4696ZM32.6482 40.8852C32.5894 40.5362 32.4515 40.2558 32.2218 40.0629L32.0288 40.2926C32.1898 40.4278 32.3019 40.6356 32.3524 40.9351L32.6482 40.8852ZM32.2229 40.0638C31.9986 39.8716 31.7114 39.7816 31.3753 39.7816V40.0816C31.6564 40.0816 31.8692 40.1558 32.0277 40.2916L32.2229 40.0638ZM31.3753 39.7816C30.9259 39.7816 30.5547 39.94 30.2774 40.2614L30.5045 40.4574C30.7194 40.2084 31.0044 40.0816 31.3753 40.0816V39.7816ZM30.2773 40.2615C29.9992 40.5845 29.8777 41.1028 29.8777 41.7773H30.1777C30.1777 41.1238 30.2983 40.6968 30.5046 40.4573L30.2773 40.2615ZM29.8777 41.7773C29.8777 42.5236 30.0003 43.0896 30.2801 43.436L30.5135 43.2475C30.3011 42.9846 30.1777 42.5077 30.1777 41.7773H29.8777ZM30.2808 43.4369C30.5612 43.7787 30.939 43.9488 31.3988 43.9488V43.6488C31.0226 43.6488 30.7323 43.5143 30.5128 43.2466L30.2808 43.4369ZM31.3988 43.9488C31.741 43.9488 32.0342 43.8517 32.2656 43.6476L32.0671 43.4227C31.9 43.5701 31.6815 43.6488 31.3988 43.6488V43.9488ZM32.2668 43.6465C32.5016 43.4347 32.6511 43.0899 32.7356 42.6431L32.4408 42.5874C32.3613 43.0078 32.2295 43.2762 32.0659 43.4238L32.2668 43.6465ZM32.563 42.7631L34.1802 43.0385L34.2306 42.7428L32.6134 42.4674L32.563 42.7631ZM34.0591 42.8575C33.8967 43.5749 33.589 44.1021 33.1452 44.4549L33.3319 44.6897C33.8414 44.2847 34.1781 43.6907 34.3517 42.9237L34.0591 42.8575ZM33.1452 44.4549C32.7026 44.8068 32.1002 44.9906 31.3226 44.9906V45.2906C32.1465 45.2906 32.8215 45.0955 33.3319 44.6897L33.1452 44.4549ZM31.3226 44.9906C30.4468 44.9906 29.7621 44.7159 29.2519 44.1762L29.0339 44.3824C29.6096 44.9912 30.378 45.2906 31.3226 45.2906V44.9906ZM29.2523 44.1766C28.7462 43.6376 28.4843 42.8834 28.4843 41.8945H28.1843C28.1843 42.9369 28.4615 43.7726 29.0335 44.382L29.2523 44.1766ZM28.4843 41.8945C28.4843 40.8936 28.7483 40.1362 29.2574 39.6015L29.0401 39.3946C28.4633 40.0005 28.1843 40.8408 28.1843 41.8945H28.4843ZM29.2577 39.6011C29.7675 39.062 30.4596 38.7867 31.3519 38.7867V38.4867C30.3925 38.4867 29.6159 38.7856 29.0398 39.395L29.2577 39.6011ZM31.3519 38.7867C32.0893 38.7867 32.6561 38.9464 33.0676 39.2497L33.2455 39.0081C32.7664 38.6551 32.1301 38.4867 31.3519 38.4867V38.7867ZM33.0688 39.2505C33.4846 39.5507 33.791 40.015 33.9794 40.6593L34.2673 40.5751C34.0651 39.8835 33.7269 39.3556 33.2443 39.0073L33.0688 39.2505ZM34.9463 45L34.8234 44.914L34.6581 45.15H34.9463V45ZM37.1904 41.7949L37.3133 41.881L37.374 41.7942L37.3125 41.7079L37.1904 41.7949ZM35.04 38.7773V38.6273H34.7489L34.9178 38.8644L35.04 38.7773ZM37.0498 38.7773L37.1759 38.6961L37.1316 38.6273H37.0498V38.7773ZM38.1513 40.4883L38.0252 40.5695L38.1481 40.7603L38.2755 40.5725L38.1513 40.4883ZM39.3115 38.7773V38.6273H39.232L39.1873 38.6932L39.3115 38.7773ZM41.2451 38.7773L41.3671 38.8646L41.5369 38.6273H41.2451V38.7773ZM39.1357 41.7246L39.0137 41.6373L38.9518 41.7238L39.013 41.8109L39.1357 41.7246ZM41.4384 45V45.15H41.7273L41.5611 44.9137L41.4384 45ZM39.417 45L39.2916 45.0823L39.336 45.15H39.417V45ZM38.1513 43.0723L38.2767 42.9899L38.1519 42.7998L38.0263 42.9894L38.1513 43.0723ZM36.874 45V45.15H36.9545L36.999 45.0829L36.874 45ZM35.0691 45.086L37.3133 41.881L37.0675 41.7089L34.8234 44.914L35.0691 45.086ZM37.3125 41.7079L35.1622 38.6903L34.9178 38.8644L37.0682 41.882L37.3125 41.7079ZM35.04 38.9273H37.0498V38.6273H35.04V38.9273ZM36.9236 38.8585L38.0252 40.5695L38.2774 40.4071L37.1759 38.6961L36.9236 38.8585ZM38.2755 40.5725L39.4356 38.8615L39.1873 38.6932L38.0272 40.4041L38.2755 40.5725ZM39.3115 38.9273H41.2451V38.6273H39.3115V38.9273ZM41.1231 38.69L39.0137 41.6373L39.2577 41.8119L41.3671 38.8646L41.1231 38.69ZM39.013 41.8109L41.3157 45.0863L41.5611 44.9137L39.2584 41.6383L39.013 41.8109ZM41.4384 44.85H39.417V45.15H41.4384V44.85ZM39.5423 44.9177L38.2767 42.9899L38.0259 43.1546L39.2916 45.0823L39.5423 44.9177ZM38.0263 42.9894L36.7489 44.9171L36.999 45.0829L38.2764 43.1551L38.0263 42.9894ZM36.874 44.85H34.9463V45.15H36.874V44.85Z" fill="white"/>
</svg>
