<svg width="62" height="62" viewBox="0 0 62 62" fill="none" xmlns="http://www.w3.org/2000/svg">
<path d="M15.5 0C13.3687 0 11.625 1.74375 11.625 3.875V58.125C11.625 60.2562 13.3687 62 15.5 62H54.25C56.3812 62 58.125 60.2562 58.125 58.125V15.5L42.625 0H15.5Z" fill="#E2E5E7"/>
<path d="M46.5 15.5H58.125L42.625 0V11.625C42.625 13.7563 44.3687 15.5 46.5 15.5Z" fill="#B0B7BD"/>
<path d="M58.125 27.125L46.5 15.5H58.125V27.125Z" fill="#CAD1D8"/>
<path d="M50.375 50.3125C50.375 51.3781 49.5031 52.25 48.4375 52.25H5.8125C4.74687 52.25 3.875 51.3781 3.875 50.3125V30.9375C3.875 29.8719 4.74687 29 5.8125 29H48.4375C49.5031 29 50.375 29.8719 50.375 30.9375V50.3125Z" fill="#F7B84E"/>
<path d="M48.4375 52.3125H11.625V54.25H48.4375C49.5031 54.25 50.375 53.3781 50.375 52.3125V50.375C50.375 51.4406 49.5031 52.3125 48.4375 52.3125Z" fill="#CAD1D8"/>
<path d="M14.8262 37.9336V36.4102H16.4727V37.9336H14.8262ZM16.4727 38.7773V44.8066C16.4727 45.5996 16.4199 46.1582 16.3145 46.4824C16.2129 46.8105 16.0137 47.0664 15.7168 47.25C15.4238 47.4336 15.0488 47.5254 14.5918 47.5254C14.4277 47.5254 14.25 47.5098 14.0586 47.4785C13.8711 47.4512 13.668 47.4082 13.4492 47.3496L13.7363 45.9434C13.8145 45.959 13.8887 45.9707 13.959 45.9785C14.0254 45.9902 14.0879 45.9961 14.1465 45.9961C14.3145 45.9961 14.4512 45.959 14.5566 45.8848C14.666 45.8145 14.7383 45.7285 14.7734 45.627C14.8086 45.5254 14.8262 45.2207 14.8262 44.7129V38.7773H16.4727ZM18.1543 38.7773H19.6895V39.6914C19.8887 39.3789 20.1582 39.125 20.498 38.9297C20.8379 38.7344 21.2148 38.6367 21.6289 38.6367C22.3516 38.6367 22.9648 38.9199 23.4688 39.4863C23.9727 40.0527 24.2246 40.8418 24.2246 41.8535C24.2246 42.8926 23.9707 43.7012 23.4629 44.2793C22.9551 44.8535 22.3398 45.1406 21.6172 45.1406C21.2734 45.1406 20.9609 45.0723 20.6797 44.9355C20.4023 44.7988 20.1094 44.5645 19.8008 44.2324V47.3672H18.1543V38.7773ZM19.7832 41.7832C19.7832 42.4824 19.9219 43 20.1992 43.3359C20.4766 43.668 20.8145 43.834 21.2129 43.834C21.5957 43.834 21.9141 43.6816 22.168 43.377C22.4219 43.0684 22.5488 42.5645 22.5488 41.8652C22.5488 41.2129 22.418 40.7285 22.1562 40.4121C21.8945 40.0957 21.5703 39.9375 21.1836 39.9375C20.7812 39.9375 20.4473 40.0938 20.1816 40.4062C19.916 40.7148 19.7832 41.1738 19.7832 41.7832ZM29.1406 43.0195L30.7812 43.2949C30.5703 43.8965 30.2363 44.3555 29.7793 44.6719C29.3262 44.9844 28.7578 45.1406 28.0742 45.1406C26.9922 45.1406 26.1914 44.7871 25.6719 44.0801C25.2617 43.5137 25.0566 42.7988 25.0566 41.9355C25.0566 40.9043 25.3262 40.0977 25.8652 39.5156C26.4043 38.9297 27.0859 38.6367 27.9102 38.6367C28.8359 38.6367 29.5664 38.9434 30.1016 39.5566C30.6367 40.166 30.8926 41.1016 30.8691 42.3633H26.7441C26.7559 42.8516 26.8887 43.2324 27.1426 43.5059C27.3965 43.7754 27.7129 43.9102 28.0918 43.9102C28.3496 43.9102 28.5664 43.8398 28.7422 43.6992C28.918 43.5586 29.0508 43.332 29.1406 43.0195ZM29.2344 41.3555C29.2227 40.8789 29.0996 40.5176 28.8652 40.2715C28.6309 40.0215 28.3457 39.8965 28.0098 39.8965C27.6504 39.8965 27.3535 40.0273 27.1191 40.2891C26.8848 40.5508 26.7695 40.9062 26.7734 41.3555H29.2344ZM32.0645 45.4102L33.9453 45.6387C33.9766 45.8574 34.0488 46.0078 34.1621 46.0898C34.3184 46.207 34.5645 46.2656 34.9004 46.2656C35.3301 46.2656 35.6523 46.2012 35.8672 46.0723C36.0117 45.9863 36.1211 45.8477 36.1953 45.6562C36.2461 45.5195 36.2715 45.2676 36.2715 44.9004V43.9922C35.7793 44.6641 35.1582 45 34.4082 45C33.5723 45 32.9102 44.6465 32.4219 43.9395C32.0391 43.3809 31.8477 42.6855 31.8477 41.8535C31.8477 40.8105 32.0977 40.0137 32.5977 39.4629C33.1016 38.9121 33.7266 38.6367 34.4727 38.6367C35.2422 38.6367 35.877 38.9746 36.377 39.6504V38.7773H37.918V44.3613C37.918 45.0957 37.8574 45.6445 37.7363 46.0078C37.6152 46.3711 37.4453 46.6562 37.2266 46.8633C37.0078 47.0703 36.7148 47.2324 36.3477 47.3496C35.9844 47.4668 35.5234 47.5254 34.9648 47.5254C33.9102 47.5254 33.1621 47.3438 32.7207 46.9805C32.2793 46.6211 32.0586 46.1641 32.0586 45.6094C32.0586 45.5547 32.0605 45.4883 32.0645 45.4102ZM33.5352 41.7598C33.5352 42.4199 33.6621 42.9043 33.916 43.2129C34.1738 43.5176 34.4902 43.6699 34.8652 43.6699C35.2676 43.6699 35.6074 43.5137 35.8848 43.2012C36.1621 42.8848 36.3008 42.418 36.3008 41.8008C36.3008 41.1562 36.168 40.6777 35.9023 40.3652C35.6367 40.0527 35.3008 39.8965 34.8945 39.8965C34.5 39.8965 34.1738 40.0508 33.916 40.3594C33.6621 40.6641 33.5352 41.1309 33.5352 41.7598Z" fill="white"/>
<path d="M14.8262 37.9336H14.6762V38.0836H14.8262V37.9336ZM14.8262 36.4102V36.2602H14.6762V36.4102H14.8262ZM16.4727 36.4102H16.6227V36.2602H16.4727V36.4102ZM16.4727 37.9336V38.0836H16.6227V37.9336H16.4727ZM16.4727 38.7773H16.6227V38.6273H16.4727V38.7773ZM16.3145 46.4824L16.1718 46.436L16.1712 46.4381L16.3145 46.4824ZM15.7168 47.25L15.6379 47.1224L15.6371 47.1229L15.7168 47.25ZM14.0586 47.4785L14.0828 47.3305L14.0802 47.3301L14.0586 47.4785ZM13.4492 47.3496L13.3023 47.3196L13.274 47.458L13.4104 47.4945L13.4492 47.3496ZM13.7363 45.9434L13.7657 45.7963L13.6192 45.767L13.5894 45.9134L13.7363 45.9434ZM13.959 45.9785L13.9851 45.8305L13.9755 45.8294L13.959 45.9785ZM14.5566 45.8848L14.4755 45.7585L14.4703 45.7621L14.5566 45.8848ZM14.8262 38.7773V38.6273H14.6762V38.7773H14.8262ZM14.9762 37.9336V36.4102H14.6762V37.9336H14.9762ZM14.8262 36.5602H16.4727V36.2602H14.8262V36.5602ZM16.3227 36.4102V37.9336H16.6227V36.4102H16.3227ZM16.4727 37.7836H14.8262V38.0836H16.4727V37.7836ZM16.3227 38.7773V44.8066H16.6227V38.7773H16.3227ZM16.3227 44.8066C16.3227 45.5992 16.2692 46.1365 16.1718 46.436L16.4571 46.5288C16.5706 46.1799 16.6227 45.6 16.6227 44.8066H16.3227ZM16.1712 46.4381C16.0805 46.731 15.9045 46.9575 15.6379 47.1224L15.7957 47.3776C16.1228 47.1753 16.3453 46.8901 16.4577 46.5268L16.1712 46.4381ZM15.6371 47.1229C15.3746 47.2874 15.0295 47.3754 14.5918 47.3754V47.6754C15.0681 47.6754 15.4731 47.5798 15.7964 47.3771L15.6371 47.1229ZM14.5918 47.3754C14.4371 47.3754 14.2676 47.3606 14.0828 47.3305L14.0344 47.6266C14.2324 47.6589 14.4183 47.6754 14.5918 47.6754V47.3754ZM14.0802 47.3301C13.8995 47.3037 13.7022 47.2621 13.488 47.2047L13.4104 47.4945C13.6338 47.5543 13.8427 47.5986 14.0369 47.6269L14.0802 47.3301ZM13.5962 47.3796L13.8833 45.9734L13.5894 45.9134L13.3023 47.3196L13.5962 47.3796ZM13.7069 46.0904C13.7888 46.1068 13.8673 46.1193 13.9424 46.1276L13.9755 45.8294C13.91 45.8222 13.8401 45.8112 13.7657 45.7963L13.7069 46.0904ZM13.9329 46.1262C14.0067 46.1392 14.078 46.1461 14.1465 46.1461V45.8461C14.0978 45.8461 14.0441 45.8412 13.9851 45.8308L13.9329 46.1262ZM14.1465 46.1461C14.3361 46.1461 14.5056 46.1041 14.643 46.0074L14.4703 45.7621C14.3968 45.8138 14.2928 45.8461 14.1465 45.8461V46.1461ZM14.6378 46.0109C14.7693 45.9264 14.8669 45.8156 14.9152 45.676L14.6317 45.5779C14.6097 45.6414 14.5627 45.7025 14.4755 45.7586L14.6378 46.0109ZM14.9152 45.676C14.9406 45.6026 14.9541 45.4805 14.9627 45.3309C14.9718 45.1744 14.9762 44.9681 14.9762 44.7129H14.6762C14.6762 44.9655 14.6718 45.1654 14.6632 45.3136C14.6543 45.4688 14.6414 45.5498 14.6317 45.5779L14.9152 45.676ZM14.9762 44.7129V38.7773H14.6762V44.7129H14.9762ZM14.8262 38.9273H16.4727V38.6273H14.8262V38.9273ZM18.1543 38.7773V38.6273H18.0043V38.7773H18.1543ZM19.6895 38.7773H19.8395V38.6273H19.6895V38.7773ZM19.6895 39.6914H19.5395V40.2057L19.8159 39.772L19.6895 39.6914ZM23.4629 44.2793L23.5753 44.3787L23.5756 44.3783L23.4629 44.2793ZM20.6797 44.9355L20.6134 45.0701L20.6141 45.0705L20.6797 44.9355ZM19.8008 44.2324L19.9107 44.1303L19.6508 43.8507V44.2324H19.8008ZM19.8008 47.3672V47.5172H19.9508V47.3672H19.8008ZM18.1543 47.3672H18.0043V47.5172H18.1543V47.3672ZM20.1992 43.3359L20.0835 43.4314L20.0841 43.4321L20.1992 43.3359ZM22.168 43.377L22.2832 43.473L22.2838 43.4723L22.168 43.377ZM20.1816 40.4062L20.2953 40.5041L20.2959 40.5034L20.1816 40.4062ZM18.1543 38.9273H19.6895V38.6273H18.1543V38.9273ZM19.5395 38.7773V39.6914H19.8395V38.7773H19.5395ZM19.8159 39.772C20.0014 39.4811 20.2527 39.2437 20.5728 39.0597L20.4233 38.7996C20.0637 39.0063 19.7759 39.2767 19.563 39.6108L19.8159 39.772ZM20.5728 39.0597C20.8886 38.8782 21.2395 38.7867 21.6289 38.7867V38.4867C21.1901 38.4867 20.7872 38.5905 20.4233 38.7996L20.5728 39.0597ZM21.6289 38.7867C22.3064 38.7867 22.8797 39.0498 23.3567 39.586L23.5808 39.3866C23.05 38.79 22.3967 38.4867 21.6289 38.4867V38.7867ZM23.3567 39.586C23.829 40.1169 24.0746 40.8661 24.0746 41.8535H24.3746C24.3746 40.8175 24.1163 39.9886 23.5808 39.3866L23.3567 39.586ZM24.0746 41.8535C24.0746 42.869 23.8266 43.6379 23.3502 44.1803L23.5756 44.3783C24.1148 43.7645 24.3746 42.9161 24.3746 41.8535H24.0746ZM23.3505 44.1799C22.8692 44.7242 22.294 44.9906 21.6172 44.9906V45.2906C22.3857 45.2906 23.0409 44.9829 23.5753 44.3787L23.3505 44.1799ZM21.6172 44.9906C21.2939 44.9906 21.0041 44.9265 20.7453 44.8006L20.6141 45.0705C20.9178 45.2181 21.253 45.2906 21.6172 45.2906V44.9906ZM20.746 44.801C20.4908 44.6752 20.2121 44.4546 19.9107 44.1303L19.6909 44.3345C20.0067 44.6743 20.3139 44.9225 20.6134 45.0701L20.746 44.801ZM19.6508 44.2324V47.3672H19.9508V44.2324H19.6508ZM19.8008 47.2172H18.1543V47.5172H19.8008V47.2172ZM18.3043 47.3672V38.7773H18.0043V47.3672H18.3043ZM19.6332 41.7832C19.6332 42.4975 19.7741 43.0566 20.0835 43.4314L20.3149 43.2404C20.0697 42.9434 19.9332 42.4673 19.9332 41.7832H19.6332ZM20.0841 43.4321C20.3872 43.7949 20.7658 43.984 21.2129 43.984V43.684C20.8631 43.684 20.566 43.541 20.3143 43.2398L20.0841 43.4321ZM21.2129 43.984C21.642 43.984 22.002 43.8104 22.2832 43.473L22.0527 43.2809C21.8261 43.5528 21.5494 43.684 21.2129 43.684V43.984ZM22.2838 43.4723C22.5711 43.123 22.6988 42.5757 22.6988 41.8652H22.3988C22.3988 42.5532 22.2726 43.0137 22.0521 43.2816L22.2838 43.4723ZM22.6988 41.8652C22.6988 41.1973 22.5656 40.6717 22.2718 40.3165L22.0407 40.5077C22.2703 40.7854 22.3988 41.2285 22.3988 41.8652H22.6988ZM22.2718 40.3165C21.9836 39.9681 21.6181 39.7875 21.1836 39.7875V40.0875C21.5225 40.0875 21.8054 40.2233 22.0407 40.5077L22.2718 40.3165ZM21.1836 39.7875C20.7363 39.7875 20.3608 39.9638 20.0673 40.3091L20.2959 40.5034C20.5337 40.2237 20.8262 40.0875 21.1836 40.0875V39.7875ZM20.068 40.3084C19.7697 40.6549 19.6332 41.1552 19.6332 41.7832H19.9332C19.9332 41.1925 20.0624 40.7748 20.2953 40.5041L20.068 40.3084ZM29.1406 43.0195L29.1655 42.8716L29.0334 42.8494L28.9965 42.9781L29.1406 43.0195ZM30.7812 43.2949L30.9228 43.3446L30.9817 43.1765L30.8061 43.147L30.7812 43.2949ZM29.7793 44.6719L29.8645 44.7954L29.8647 44.7952L29.7793 44.6719ZM25.6719 44.0801L25.5504 44.1681L25.551 44.1689L25.6719 44.0801ZM25.8652 39.5156L25.9753 39.6176L25.9756 39.6172L25.8652 39.5156ZM30.1016 39.5566L29.9885 39.6553L29.9889 39.6556L30.1016 39.5566ZM30.8691 42.3633V42.5133H31.0164L31.0191 42.3661L30.8691 42.3633ZM26.7441 42.3633V42.2133H26.5905L26.5942 42.3669L26.7441 42.3633ZM27.1426 43.5059L27.0327 43.6079L27.0334 43.6087L27.1426 43.5059ZM29.2344 41.3555V41.5055H29.3881L29.3843 41.3518L29.2344 41.3555ZM28.8652 40.2715L28.7558 40.3741L28.7566 40.3749L28.8652 40.2715ZM26.7734 41.3555L26.6234 41.3568L26.6247 41.5055H26.7734V41.3555ZM29.1158 43.1675L30.7564 43.4429L30.8061 43.147L29.1655 42.8716L29.1158 43.1675ZM30.6397 43.2453C30.4376 43.8215 30.1212 44.2527 29.6939 44.5485L29.8647 44.7952C30.3514 44.4582 30.703 43.9714 30.9228 43.3446L30.6397 43.2453ZM29.6941 44.5484C29.2715 44.8398 28.7348 44.9906 28.0742 44.9906V45.2906C28.7808 45.2906 29.3808 45.1289 29.8645 44.7954L29.6941 44.5484ZM28.0742 44.9906C27.0275 44.9906 26.2774 44.6508 25.7928 43.9913L25.551 44.1689C26.1054 44.9234 26.9569 45.2906 28.0742 45.2906V44.9906ZM25.7934 43.9921C25.4057 43.4568 25.2066 42.7748 25.2066 41.9355H24.9066C24.9066 42.8229 25.1177 43.5706 25.5504 44.1681L25.7934 43.9921ZM25.2066 41.9355C25.2066 40.9304 25.4689 40.1643 25.9753 39.6176L25.7552 39.4137C25.1835 40.031 24.9066 40.8782 24.9066 41.9355H25.2066ZM25.9756 39.6172C26.4852 39.0633 27.1262 38.7867 27.9102 38.7867V38.4867C27.0457 38.4867 26.3234 38.796 25.7548 39.4141L25.9756 39.6172ZM27.9102 38.7867C28.7992 38.7867 29.486 39.0793 29.9885 39.6553L30.2146 39.458C29.6469 38.8074 28.8726 38.4867 27.9102 38.4867V38.7867ZM29.9889 39.6556C30.4887 40.2248 30.7423 41.1162 30.7192 42.3605L31.0191 42.3661C31.0429 41.0869 30.7847 40.1072 30.2143 39.4577L29.9889 39.6556ZM30.8691 42.2133H26.7441V42.5133H30.8691V42.2133ZM26.5942 42.3669C26.6065 42.8802 26.747 43.3002 27.0327 43.6079L27.2525 43.4038C27.0304 43.1646 26.9052 42.8229 26.8941 42.3597L26.5942 42.3669ZM27.0334 43.6087C27.3164 43.9091 27.6726 44.0602 28.0918 44.0602V43.7602C27.7531 43.7602 27.4766 43.6417 27.2518 43.403L27.0334 43.6087ZM28.0918 44.0602C28.3785 44.0602 28.6297 43.9813 28.8359 43.8163L28.6485 43.5821C28.5031 43.6984 28.3208 43.7602 28.0918 43.7602V44.0602ZM28.8359 43.8163C29.0445 43.6494 29.19 43.3906 29.2848 43.061L28.9965 42.9781C28.9115 43.2735 28.7914 43.4677 28.6485 43.5821L28.8359 43.8163ZM29.3843 41.3518C29.3721 40.853 29.2427 40.4503 28.9739 40.168L28.7566 40.3749C28.9566 40.5849 29.0732 40.9048 29.0844 41.3592L29.3843 41.3518ZM28.9747 40.1689C28.7126 39.8893 28.3881 39.7465 28.0098 39.7465V40.0465C28.3033 40.0465 28.5491 40.1536 28.7558 40.3741L28.9747 40.1689ZM28.0098 39.7465C27.6089 39.7465 27.271 39.8947 27.0074 40.189L27.2309 40.3891C27.4361 40.16 27.6919 40.0465 28.0098 40.0465V39.7465ZM27.0074 40.189C26.7417 40.4857 26.6193 40.8809 26.6234 41.3568L26.9234 41.3542C26.9198 40.9316 27.0278 40.6159 27.2309 40.3891L27.0074 40.189ZM26.7734 41.5055H29.2344V41.2055H26.7734V41.5055ZM32.0645 45.4102L32.0825 45.2613L31.9227 45.2418L31.9146 45.4027L32.0645 45.4102ZM33.9453 45.6387L34.0938 45.6175L34.0775 45.5036L33.9634 45.4898L33.9453 45.6387ZM34.1621 46.0898L34.2521 45.9698L34.2501 45.9684L34.1621 46.0898ZM35.8672 46.0723L35.7905 45.9433L35.79 45.9436L35.8672 46.0723ZM36.1953 45.6562L36.3352 45.7105L36.3359 45.7085L36.1953 45.6562ZM36.2715 43.9922H36.4215V43.5336L36.1505 43.9035L36.2715 43.9922ZM32.4219 43.9395L32.2981 44.0242L32.2984 44.0247L32.4219 43.9395ZM32.5977 39.4629L32.487 39.3616L32.4866 39.3621L32.5977 39.4629ZM36.377 39.6504L36.2564 39.7396L36.527 40.1053V39.6504H36.377ZM36.377 38.7773V38.6273H36.227V38.7773H36.377ZM37.918 38.7773H38.068V38.6273H37.918V38.7773ZM36.3477 47.3496L36.3021 47.2067L36.3016 47.2069L36.3477 47.3496ZM32.7207 46.9805L32.816 46.8646L32.8154 46.8641L32.7207 46.9805ZM33.916 43.2129L33.8002 43.3082L33.8015 43.3098L33.916 43.2129ZM35.8848 43.2012L35.997 43.3007L35.9976 43.3L35.8848 43.2012ZM33.916 40.3594L33.8009 40.2632L33.8008 40.2633L33.916 40.3594ZM32.0464 45.5591L33.9272 45.7876L33.9634 45.4898L32.0825 45.2613L32.0464 45.5591ZM33.7968 45.6599C33.8306 45.8962 33.9131 46.0947 34.0741 46.2113L34.2501 45.9684C34.1846 45.9209 34.1225 45.8187 34.0938 45.6175L33.7968 45.6599ZM34.0721 46.2098C34.2672 46.3562 34.553 46.4156 34.9004 46.4156V46.1156C34.5759 46.1156 34.3695 46.0579 34.2521 45.9698L34.0721 46.2098ZM34.9004 46.4156C35.3402 46.4156 35.695 46.3505 35.9444 46.2009L35.79 45.9436C35.6097 46.0518 35.32 46.1156 34.9004 46.1156V46.4156ZM35.9438 46.2012C36.1231 46.0946 36.2516 45.926 36.3352 45.7105L36.0555 45.602C35.9906 45.7693 35.9003 45.8781 35.7905 45.9433L35.9438 46.2012ZM36.3359 45.7085C36.3972 45.5435 36.4215 45.2663 36.4215 44.9004H36.1215C36.1215 45.2688 36.095 45.4956 36.0547 45.604L36.3359 45.7085ZM36.4215 44.9004V43.9922H36.1215V44.9004H36.4215ZM36.1505 43.9035C35.6829 44.5418 35.1046 44.85 34.4082 44.85V45.15C35.2118 45.15 35.8757 44.7863 36.3925 44.0808L36.1505 43.9035ZM34.4082 44.85C33.6232 44.85 33.0065 44.522 32.5453 43.8542L32.2984 44.0247C32.8138 44.7709 33.5214 45.15 34.4082 45.15V44.85ZM32.5456 43.8547C32.1835 43.3262 31.9977 42.6623 31.9977 41.8535H31.6977C31.6977 42.7088 31.8947 43.4355 32.2981 44.0242L32.5456 43.8547ZM31.9977 41.8535C31.9977 40.8328 32.2423 40.0775 32.7087 39.5637L32.4866 39.3621C31.953 39.9498 31.6977 40.7883 31.6977 41.8535H31.9977ZM32.7083 39.5641C33.1838 39.0444 33.7687 38.7867 34.4727 38.7867V38.4867C33.6844 38.4867 33.0193 38.7798 32.487 39.3616L32.7083 39.5641ZM34.4727 38.7867C35.1898 38.7867 35.7816 39.098 36.2564 39.7396L36.4975 39.5612C35.9723 38.8513 35.2946 38.4867 34.4727 38.4867V38.7867ZM36.527 39.6504V38.7773H36.227V39.6504H36.527ZM36.377 38.9273H37.918V38.6273H36.377V38.9273ZM37.768 38.7773V44.3613H38.068V38.7773H37.768ZM37.768 44.3613C37.768 45.0915 37.7073 45.6207 37.594 45.9604L37.8786 46.0552C38.0076 45.6684 38.068 45.0999 38.068 44.3613H37.768ZM37.594 45.9604C37.4787 46.3064 37.3201 46.5683 37.1235 46.7543L37.3297 46.9722C37.5706 46.7442 37.7518 46.4357 37.8786 46.0552L37.594 45.9604ZM37.1235 46.7543C36.925 46.9422 36.6536 47.0945 36.3021 47.2067L36.3933 47.4925C36.7761 47.3703 37.0906 47.1985 37.3297 46.9722L37.1235 46.7543ZM36.3016 47.2069C35.9584 47.3176 35.5144 47.3754 34.9648 47.3754V47.6754C35.5325 47.6754 36.0104 47.616 36.3937 47.4924L36.3016 47.2069ZM34.9648 47.3754C33.9191 47.3754 33.2158 47.1937 32.816 46.8646L32.6254 47.0963C33.1084 47.4938 33.9012 47.6754 34.9648 47.6754V47.3754ZM32.8154 46.8641C32.4079 46.5324 32.2086 46.1176 32.2086 45.6094H31.9086C31.9086 46.2105 32.1507 46.7098 32.626 47.0968L32.8154 46.8641ZM32.2086 45.6094C32.2086 45.558 32.2104 45.4942 32.2143 45.4176L31.9146 45.4027C31.9107 45.4823 31.9086 45.5514 31.9086 45.6094H32.2086ZM33.3852 41.7598C33.3852 42.4337 33.5138 42.9601 33.8002 43.3082L34.0318 43.1176C33.8104 42.8485 33.6852 42.4061 33.6852 41.7598H33.3852ZM33.8015 43.3098C34.0857 43.6457 34.443 43.8199 34.8652 43.8199V43.5199C34.5375 43.5199 34.2619 43.3895 34.0305 43.116L33.8015 43.3098ZM34.8652 43.8199C35.3123 43.8199 35.6924 43.6439 35.997 43.3007L35.7726 43.1016C35.5225 43.3834 35.2228 43.5199 34.8652 43.5199V43.8199ZM35.9976 43.3C36.3079 42.9459 36.4508 42.4377 36.4508 41.8008H36.1508C36.1508 42.3982 36.0163 42.8236 35.772 43.1023L35.9976 43.3ZM36.4508 41.8008C36.4508 41.1399 36.3153 40.6195 36.0166 40.2681L35.7881 40.4624C36.0206 40.736 36.1508 41.1726 36.1508 41.8008H36.4508ZM36.0166 40.2681C35.7228 39.9224 35.3453 39.7465 34.8945 39.7465V40.0465C35.2563 40.0465 35.5506 40.183 35.7881 40.4624L36.0166 40.2681ZM34.8945 39.7465C34.4546 39.7465 34.0866 39.9213 33.8009 40.2632L34.0311 40.4555C34.2611 40.1803 34.5454 40.0465 34.8945 40.0465V39.7465ZM33.8008 40.2633C33.5145 40.6068 33.3852 41.1151 33.3852 41.7598H33.6852C33.6852 41.1466 33.8097 40.7213 34.0312 40.4554L33.8008 40.2633Z" fill="white"/>
</svg>
