<svg width="62" height="62" viewBox="0 0 62 62" fill="none" xmlns="http://www.w3.org/2000/svg">
<path d="M15.5 0C13.3687 0 11.625 1.74375 11.625 3.875V58.125C11.625 60.2563 13.3687 62 15.5 62H54.25C56.3813 62 58.125 60.2563 58.125 58.125V15.5L42.625 0H15.5Z" fill="#E2E5E7"/>
<path d="M46.5 15.5H58.125L42.625 0V11.625C42.625 13.7563 44.3687 15.5 46.5 15.5Z" fill="#B0B7BD"/>
<path d="M58.125 27.125L46.5 15.5H58.125V27.125Z" fill="#CAD1D8"/>
<path d="M50.375 50.3125C50.375 51.3781 49.5031 52.25 48.4375 52.25H5.8125C4.74687 52.25 3.875 51.3781 3.875 50.3125V30.9375C3.875 29.8719 4.74687 29 5.8125 29H48.4375C49.5031 29 50.375 29.8719 50.375 30.9375V50.3125Z" fill="#F7B84E"/>
<path d="M48.4375 52.3125H11.625V54.25H48.4375C49.5031 54.25 50.375 53.3781 50.375 52.3125V50.375C50.375 51.4406 49.5031 52.3125 48.4375 52.3125Z" fill="#CAD1D8"/>
<path d="M17.9727 36.4102H19.7012V41.8477C19.7012 42.5586 19.6387 43.1055 19.5137 43.4883C19.3457 43.9883 19.041 44.3906 18.5996 44.6953C18.1582 44.9961 17.5762 45.1465 16.8535 45.1465C16.0059 45.1465 15.3535 44.9102 14.8965 44.4375C14.4395 43.9609 14.209 43.2637 14.2051 42.3457L15.8398 42.1582C15.8594 42.6504 15.9316 42.998 16.0566 43.2012C16.2441 43.5098 16.5293 43.6641 16.9121 43.6641C17.2988 43.6641 17.5723 43.5547 17.7324 43.3359C17.8926 43.1133 17.9727 42.6543 17.9727 41.959V36.4102ZM21.5527 45V36.4102H24.3359C25.3906 36.4102 26.0781 36.4531 26.3984 36.5391C26.8906 36.668 27.3027 36.9492 27.6348 37.3828C27.9668 37.8125 28.1328 38.3691 28.1328 39.0527C28.1328 39.5801 28.0371 40.0234 27.8457 40.3828C27.6543 40.7422 27.4102 41.0254 27.1133 41.2324C26.8203 41.4355 26.5215 41.5703 26.2168 41.6367C25.8027 41.7188 25.2031 41.7598 24.418 41.7598H23.2871V45H21.5527ZM23.2871 37.8633V40.3008H24.2363C24.9199 40.3008 25.377 40.2559 25.6074 40.166C25.8379 40.0762 26.0176 39.9355 26.1465 39.7441C26.2793 39.5527 26.3457 39.3301 26.3457 39.0762C26.3457 38.7637 26.2539 38.5059 26.0703 38.3027C25.8867 38.0996 25.6543 37.9727 25.373 37.9219C25.166 37.8828 24.75 37.8633 24.125 37.8633H23.2871ZM33.5527 41.8418V40.3945H37.291V43.8164C36.9277 44.168 36.4004 44.4785 35.709 44.748C35.0215 45.0137 34.3242 45.1465 33.6172 45.1465C32.7188 45.1465 31.9355 44.959 31.2676 44.584C30.5996 44.2051 30.0977 43.666 29.7617 42.9668C29.4258 42.2637 29.2578 41.5 29.2578 40.6758C29.2578 39.7812 29.4453 38.9863 29.8203 38.291C30.1953 37.5957 30.7441 37.0625 31.4668 36.6914C32.0176 36.4062 32.7031 36.2637 33.5234 36.2637C34.5898 36.2637 35.4219 36.4883 36.0195 36.9375C36.6211 37.3828 37.0078 38 37.1797 38.7891L35.457 39.1113C35.3359 38.6895 35.1074 38.3574 34.7715 38.1152C34.4395 37.8691 34.0234 37.7461 33.5234 37.7461C32.7656 37.7461 32.1621 37.9863 31.7129 38.4668C31.2676 38.9473 31.0449 39.6602 31.0449 40.6055C31.0449 41.625 31.2715 42.3906 31.7246 42.9023C32.1777 43.4102 32.7715 43.6641 33.5059 43.6641C33.8691 43.6641 34.2324 43.5938 34.5957 43.4531C34.9629 43.3086 35.2773 43.1348 35.5391 42.9316V41.8418H33.5527Z" fill="white"/>
<path d="M17.9727 36.4102V36.2602H17.8227V36.4102H17.9727ZM19.7012 36.4102H19.8512V36.2602H19.7012V36.4102ZM19.5137 43.4883L19.6559 43.5361L19.6563 43.5348L19.5137 43.4883ZM18.5996 44.6953L18.6841 44.8193L18.6848 44.8188L18.5996 44.6953ZM14.8965 44.4375L14.7882 44.5413L14.7887 44.5418L14.8965 44.4375ZM14.2051 42.3457L14.188 42.1967L14.0545 42.212L14.0551 42.3463L14.2051 42.3457ZM15.8398 42.1582L15.9897 42.1523L15.9833 41.9908L15.8228 42.0092L15.8398 42.1582ZM16.0566 43.2012L16.1848 43.1233L16.1844 43.1226L16.0566 43.2012ZM17.7324 43.3359L17.8535 43.4246L17.8542 43.4235L17.7324 43.3359ZM17.9727 36.5602H19.7012V36.2602H17.9727V36.5602ZM19.5512 36.4102V41.8477H19.8512V36.4102H19.5512ZM19.5512 41.8477C19.5512 42.5529 19.4888 43.0812 19.3711 43.4417L19.6563 43.5348C19.7886 43.1297 19.8512 42.5643 19.8512 41.8477H19.5512ZM19.3715 43.4405C19.214 43.9092 18.9296 44.2853 18.5144 44.5719L18.6848 44.8188C19.1524 44.496 19.4774 44.0673 19.6559 43.536L19.3715 43.4405ZM18.5151 44.5714C18.106 44.8501 17.5564 44.9965 16.8535 44.9965V45.2965C17.5959 45.2965 18.2104 45.1421 18.6841 44.8193L18.5151 44.5714ZM16.8535 44.9965C16.0342 44.9965 15.4255 44.7688 15.0043 44.3332L14.7887 44.5418C15.2815 45.0515 15.9776 45.2965 16.8535 45.2965V44.9965ZM15.0047 44.3337C14.5833 43.8942 14.3589 43.2397 14.3551 42.3451L14.0551 42.3463C14.0591 43.2876 14.2956 44.0277 14.7882 44.5413L15.0047 44.3337ZM14.2222 42.4947L15.8569 42.3072L15.8228 42.0092L14.188 42.1967L14.2222 42.4947ZM15.69 42.1642C15.7096 42.6601 15.7823 43.0416 15.9289 43.2798L16.1844 43.1226C16.081 42.9545 16.0091 42.6407 15.9897 42.1523L15.69 42.1642ZM15.9284 43.2791C16.1451 43.6356 16.4807 43.8141 16.9121 43.8141V43.5141C16.5779 43.5141 16.3432 43.3839 16.1848 43.1233L15.9284 43.2791ZM16.9121 43.8141C17.325 43.8141 17.6543 43.6965 17.8535 43.4245L17.6114 43.2473C17.4902 43.4128 17.2727 43.5141 16.9121 43.5141V43.8141ZM17.8542 43.4235C17.9537 43.2852 18.0188 43.0888 18.0604 42.8505C18.1024 42.6094 18.1227 42.3115 18.1227 41.959H17.8227C17.8227 42.3018 17.8029 42.581 17.7648 42.7989C17.7263 43.0196 17.6713 43.164 17.6107 43.2483L17.8542 43.4235ZM18.1227 41.959V36.4102H17.8227V41.959H18.1227ZM21.5527 45H21.4027V45.15H21.5527V45ZM21.5527 36.4102V36.2602H21.4027V36.4102H21.5527ZM26.3984 36.5391L26.3596 36.6839L26.3604 36.6842L26.3984 36.5391ZM27.6348 37.3828L27.5157 37.474L27.5161 37.4745L27.6348 37.3828ZM27.1133 41.2324L27.1987 41.3557L27.1991 41.3555L27.1133 41.2324ZM26.2168 41.6367L26.246 41.7839L26.2487 41.7833L26.2168 41.6367ZM23.2871 41.7598V41.6098H23.1371V41.7598H23.2871ZM23.2871 45V45.15H23.4371V45H23.2871ZM23.2871 37.8633V37.7133H23.1371V37.8633H23.2871ZM23.2871 40.3008H23.1371V40.4508H23.2871V40.3008ZM26.1465 39.7441L26.0232 39.6586L26.0221 39.6604L26.1465 39.7441ZM25.373 37.9219L25.3452 38.0693L25.3464 38.0695L25.373 37.9219ZM21.7027 45V36.4102H21.4027V45H21.7027ZM21.5527 36.5602H24.3359V36.2602H21.5527V36.5602ZM24.3359 36.5602C25.3949 36.5602 26.0618 36.6041 26.3596 36.6839L26.4373 36.3942C26.0944 36.3022 25.3863 36.2602 24.3359 36.2602V36.5602ZM26.3604 36.6842C26.8179 36.804 27.2023 37.0648 27.5157 37.474L27.7539 37.2916C27.4031 36.8336 26.9633 36.532 26.4364 36.394L26.3604 36.6842ZM27.5161 37.4745C27.823 37.8718 27.9828 38.3936 27.9828 39.0527H28.2828C28.2828 38.3447 28.1105 37.7532 27.7535 37.2911L27.5161 37.4745ZM27.9828 39.0527C27.9828 39.5625 27.8902 39.9801 27.7133 40.3123L27.9781 40.4533C28.184 40.0668 28.2828 39.5976 28.2828 39.0527H27.9828ZM27.7133 40.3123C27.5317 40.6534 27.3026 40.9175 27.0275 41.1094L27.1991 41.3555C27.5177 41.1332 27.7769 40.831 27.9781 40.4533L27.7133 40.3123ZM27.0278 41.1092C26.7487 41.3027 26.4678 41.4285 26.1849 41.4902L26.2487 41.7833C26.5752 41.7121 26.8919 41.5684 27.1987 41.3557L27.0278 41.1092ZM26.1876 41.4896C25.7881 41.5687 25.2002 41.6098 24.418 41.6098V41.9098C25.2061 41.9098 25.8173 41.8688 26.2459 41.7839L26.1876 41.4896ZM24.418 41.6098H23.2871V41.9098H24.418V41.6098ZM23.1371 41.7598V45H23.4371V41.7598H23.1371ZM23.2871 44.85H21.5527V45.15H23.2871V44.85ZM23.1371 37.8633V40.3008H23.4371V37.8633H23.1371ZM23.2871 40.4508H24.2363V40.1508H23.2871V40.4508ZM24.2363 40.4508C24.5809 40.4508 24.8713 40.4395 25.1065 40.4164C25.3391 40.3935 25.5273 40.3582 25.6619 40.3058L25.5529 40.0263C25.4571 40.0636 25.3015 40.0958 25.0771 40.1178C24.8552 40.1396 24.5753 40.1508 24.2363 40.1508V40.4508ZM25.6619 40.3058C25.9187 40.2057 26.1237 40.0465 26.2709 39.8279L26.0221 39.6604C25.9115 39.8246 25.7571 39.9467 25.5529 40.0263L25.6619 40.3058ZM26.2697 39.8297C26.4215 39.6109 26.4957 39.3578 26.4957 39.0762H26.1957C26.1957 39.3024 26.1371 39.4946 26.0232 39.6586L26.2697 39.8297ZM26.4957 39.0762C26.4957 38.7321 26.3936 38.4368 26.1816 38.2022L25.959 38.4033C26.1142 38.575 26.1957 38.7952 26.1957 39.0762H26.4957ZM26.1816 38.2022C25.9747 37.9733 25.712 37.8307 25.3997 37.7743L25.3464 38.0695C25.5965 38.1147 25.7987 38.2259 25.959 38.4033L26.1816 38.2022ZM25.4009 37.7745C25.1778 37.7324 24.7477 37.7133 24.125 37.7133V38.0133C24.7523 38.0133 25.1543 38.0332 25.3452 38.0693L25.4009 37.7745ZM24.125 37.7133H23.2871V38.0133H24.125V37.7133ZM33.5527 41.8418H33.4027V41.9918H33.5527V41.8418ZM33.5527 40.3945V40.2445H33.4027V40.3945H33.5527ZM37.291 40.3945H37.441V40.2445H37.291V40.3945ZM37.291 43.8164L37.3953 43.9242L37.441 43.88V43.8164H37.291ZM35.709 44.748L35.763 44.888L35.7635 44.8878L35.709 44.748ZM31.2676 44.584L31.1936 44.7145L31.1941 44.7148L31.2676 44.584ZM29.7617 42.9668L29.6264 43.0315L29.6265 43.0318L29.7617 42.9668ZM31.4668 36.6914L31.5353 36.8248L31.5358 36.8246L31.4668 36.6914ZM36.0195 36.9375L35.9294 37.0574L35.9303 37.0581L36.0195 36.9375ZM37.1797 38.7891L37.2073 38.9365L37.3591 38.9081L37.3263 38.7571L37.1797 38.7891ZM35.457 39.1113L35.3129 39.1527L35.3505 39.2839L35.4846 39.2588L35.457 39.1113ZM34.7715 38.1152L34.6822 38.2358L34.6838 38.2369L34.7715 38.1152ZM31.7129 38.4668L31.6033 38.3644L31.6029 38.3648L31.7129 38.4668ZM31.7246 42.9023L31.6123 43.0018L31.6127 43.0022L31.7246 42.9023ZM34.5957 43.4531L34.6499 43.593L34.6506 43.5927L34.5957 43.4531ZM35.5391 42.9316L35.631 43.0501L35.6891 43.0051V42.9316H35.5391ZM35.5391 41.8418H35.6891V41.6918H35.5391V41.8418ZM33.7027 41.8418V40.3945H33.4027V41.8418H33.7027ZM33.5527 40.5445H37.291V40.2445H33.5527V40.5445ZM37.141 40.3945V43.8164H37.441V40.3945H37.141ZM37.1867 43.7086C36.8428 44.0414 36.3353 44.3429 35.6545 44.6083L35.7635 44.8878C36.4655 44.6141 37.0127 44.2945 37.3953 43.9242L37.1867 43.7086ZM35.6549 44.6081C34.9839 44.8674 34.305 44.9965 33.6172 44.9965V45.2965C34.3435 45.2965 35.059 45.16 35.763 44.888L35.6549 44.6081ZM33.6172 44.9965C32.74 44.9965 31.983 44.8136 31.341 44.4532L31.1941 44.7148C31.8881 45.1044 32.6975 45.2965 33.6172 45.2965V44.9965ZM31.3416 44.4535C30.7005 44.0899 30.2198 43.5738 29.8969 42.9018L29.6265 43.0318C29.9756 43.7582 30.4987 44.3203 31.1936 44.7145L31.3416 44.4535ZM29.8971 42.9021C29.5713 42.2204 29.4078 41.4789 29.4078 40.6758H29.1078C29.1078 41.5211 29.2802 42.307 29.6264 43.0315L29.8971 42.9021ZM29.4078 40.6758C29.4078 39.8028 29.5906 39.0329 29.9523 38.3622L29.6883 38.2198C29.3 38.9398 29.1078 39.7597 29.1078 40.6758H29.4078ZM29.9523 38.3622C30.3125 37.6944 30.8388 37.1825 31.5353 36.8248L31.3983 36.558C30.6495 36.9425 30.0781 37.497 29.6883 38.2198L29.9523 38.3622ZM31.5358 36.8246C32.0595 36.5535 32.7197 36.4137 33.5234 36.4137V36.1137C32.6866 36.1137 31.9757 36.259 31.3978 36.5582L31.5358 36.8246ZM33.5234 36.4137C34.5708 36.4137 35.3667 36.6345 35.9294 37.0574L36.1097 36.8176C35.477 36.3421 34.6089 36.1137 33.5234 36.1137V36.4137ZM35.9303 37.0581C36.5002 37.48 36.8683 38.0644 37.0331 38.821L37.3263 38.7571C37.1473 37.9356 36.742 37.2857 36.1088 36.8169L35.9303 37.0581ZM37.1521 38.6416L35.4294 38.9639L35.4846 39.2588L37.2073 38.9365L37.1521 38.6416ZM35.6012 39.0699C35.4714 38.6178 35.2241 38.2566 34.8592 37.9936L34.6838 38.2369C34.9907 38.4582 35.2004 38.7611 35.3129 39.1527L35.6012 39.0699ZM34.8608 37.9947C34.4979 37.7257 34.0487 37.5961 33.5234 37.5961V37.8961C33.9982 37.8961 34.381 38.0125 34.6822 38.2357L34.8608 37.9947ZM33.5234 37.5961C32.731 37.5961 32.0853 37.8488 31.6033 38.3644L31.8225 38.5692C32.2389 38.1238 32.8002 37.8961 33.5234 37.8961V37.5961ZM31.6029 38.3648C31.1224 38.8832 30.8949 39.639 30.8949 40.6055H31.1949C31.1949 39.6814 31.4127 39.0113 31.8229 38.5688L31.6029 38.3648ZM30.8949 40.6055C30.8949 41.6441 31.1254 42.4519 31.6123 43.0018L31.8369 42.8029C31.4176 42.3294 31.1949 41.6059 31.1949 40.6055H30.8949ZM31.6127 43.0022C32.0967 43.5446 32.7325 43.8141 33.5059 43.8141V43.5141C32.8104 43.5141 32.2588 43.2757 31.8365 42.8025L31.6127 43.0022ZM33.5059 43.8141C33.889 43.8141 34.2706 43.7398 34.6499 43.593L34.5416 43.3132C34.1943 43.4477 33.8493 43.5141 33.5059 43.5141V43.8141ZM34.6506 43.5927C35.0287 43.4439 35.3561 43.2635 35.631 43.0501L35.4471 42.8131C35.1986 43.006 34.8971 43.1733 34.5408 43.3135L34.6506 43.5927ZM35.6891 42.9316V41.8418H35.3891V42.9316H35.6891ZM35.5391 41.6918H33.5527V41.9918H35.5391V41.6918Z" fill="white"/>
</svg>
