<svg width="201" height="200" viewBox="0 0 201 200" fill="none" xmlns="http://www.w3.org/2000/svg">
<rect x="0.96875" width="200" height="200" rx="100" fill="#50CD89" fill-opacity="0.08"/>
<ellipse opacity="0.1" cx="100.969" cy="170.5" rx="75" ry="4.5" fill="#50CD89"/>
<path fill-rule="evenodd" clip-rule="evenodd" d="M107.196 56.2878C108.699 54.7053 108.635 52.204 107.052 50.7008L101.158 45.1018C99.5755 43.5986 97.0741 43.6629 95.571 45.2453C94.0678 46.8277 94.1321 49.3291 95.7145 50.8323L101.609 56.4313C103.191 57.9345 105.693 57.8702 107.196 56.2878ZM104.986 52.8759C105.367 53.238 105.383 53.8405 105.021 54.2216C104.659 54.6028 104.056 54.6183 103.675 54.2562L97.7806 48.6572C97.3995 48.2951 97.384 47.6926 97.7461 47.3114C98.1081 46.9303 98.7106 46.9148 99.0918 47.2769L104.986 52.8759ZM60.4688 56.5002C56.3266 56.5002 52.9688 59.858 52.9688 64.0002V133C52.9688 136.822 55.8278 139.977 59.5239 140.441V80.2218C59.5239 76.0797 62.8818 72.7218 67.0239 72.7218H124.524C128.666 72.7218 132.024 76.0797 132.024 80.2218V82.2412H136.684V75.6519C136.684 71.5098 133.327 68.1519 129.184 68.1519H107C104.15 68.1519 101.422 66.9933 99.4432 64.9421L93.5108 58.7929C92.0973 57.3278 90.149 56.5002 88.1132 56.5002H60.4688ZM139.684 82.2412V75.6519C139.684 69.8529 134.983 65.1519 129.184 65.1519H107C104.964 65.1519 103.016 64.3244 101.602 62.8592L95.6699 56.71C93.691 54.6588 90.9633 53.5002 88.1132 53.5002H60.4688C54.6698 53.5002 49.9688 58.2012 49.9688 64.0002V133C49.9688 138.799 54.6698 143.5 60.4688 143.5H86.0215C86.7906 154.398 95.8751 163 106.969 163C118.062 163 127.147 154.398 127.916 143.5L140.747 143.5C146.546 143.5 151.247 138.799 151.247 133V92.7412C151.247 86.9422 146.546 82.2412 140.747 82.2412H139.684ZM127.916 140.5L140.747 140.5C144.889 140.5 148.247 137.142 148.247 133V92.7412C148.247 88.5991 144.889 85.2412 140.747 85.2412H74.1185C69.9763 85.2412 66.6185 88.5991 66.6185 92.7412V140.5H86.0215C86.7906 129.602 95.8751 121 106.969 121C118.062 121 127.147 129.602 127.916 140.5ZM113.901 53.6356C111.719 53.6635 109.972 55.4554 110 57.6378C110.028 59.8201 111.82 61.5666 114.003 61.5387L122.132 61.4345C124.314 61.4065 126.061 59.6147 126.033 57.4323C126.005 55.2499 124.213 53.5034 122.03 53.5314L113.901 53.6356ZM113 57.5993C112.993 57.0736 113.414 56.6421 113.94 56.6353L122.069 56.5311C122.594 56.5244 123.026 56.9451 123.033 57.4707C123.04 57.9964 122.619 58.428 122.093 58.4347L113.964 58.5389C113.438 58.5457 113.007 58.125 113 57.5993ZM88.9688 142C88.9688 132.059 97.0277 124 106.969 124C116.91 124 124.969 132.059 124.969 142C124.969 151.941 116.91 160 106.969 160C97.0277 160 88.9688 151.941 88.9688 142ZM103.219 132.25C103.219 130.179 104.898 128.5 106.969 128.5C109.04 128.5 110.719 130.179 110.719 132.25V141.25C110.719 143.321 109.04 145 106.969 145C104.898 145 103.219 143.321 103.219 141.25V132.25ZM106.969 131.5C106.555 131.5 106.219 131.836 106.219 132.25V141.25C106.219 141.664 106.555 142 106.969 142C107.383 142 107.719 141.664 107.719 141.25V132.25C107.719 131.836 107.383 131.5 106.969 131.5ZM106.969 155.5C104.898 155.5 103.219 153.821 103.219 151.75C103.219 149.679 104.898 148 106.969 148C109.04 148 110.719 149.679 110.719 151.75C110.719 153.821 109.04 155.5 106.969 155.5ZM106.219 151.75C106.219 152.164 106.555 152.5 106.969 152.5C107.383 152.5 107.719 152.164 107.719 151.75C107.719 151.336 107.383 151 106.969 151C106.555 151 106.219 151.336 106.219 151.75Z" fill="#50CD89"/>
</svg>
