<svg width="318" height="315" viewBox="0 0 318 315" fill="none" xmlns="http://www.w3.org/2000/svg">
<g id="No Upcoming Trips">
<g id="Group 3">
<mask id="mask0_2_876" style="mask-type:luminance" maskUnits="userSpaceOnUse" x="29" y="68" width="267" height="152">
<path id="Clip 2" fill-rule="evenodd" clip-rule="evenodd" d="M95.0308 95.0555H61.0014C56.5796 95.0555 52.963 98.6839 52.963 103.12C52.963 107.556 56.5796 111.184 61.0014 111.184H78.3193H83.3946C87.8163 111.184 91.433 114.814 91.433 119.249C91.433 121.466 90.5268 123.487 89.0693 124.943C87.6177 126.406 85.6031 127.315 83.3946 127.315H72.5671H66.5891H37.4222C33.0005 127.315 29.3839 130.944 29.3839 135.379C29.3839 139.814 33.0005 143.443 37.4222 143.443H58.3027C51.9992 158.306 48.5083 174.659 48.5083 191.833C48.5083 198.064 48.9691 204.188 49.853 210.172C50.222 212.672 50.6675 215.15 51.1882 217.602C66.354 215.275 82.4414 213.403 99.2363 212.037L100.5 213.193L101.689 211.844C121.867 210.269 143.045 209.43 164.888 209.43C211.296 209.43 254.724 213.215 291.855 219.796C293.287 213.571 294.252 207.166 294.708 200.618C294.916 197.715 295.018 194.785 295.018 191.833C295.018 123.535 239.838 68.1724 171.764 68.1724C142.751 68.1724 116.085 78.23 95.0308 95.0555Z" fill="white"/>
</mask>
<g mask="url(#mask0_2_876)">
<path id="Fill 1" fill-rule="evenodd" clip-rule="evenodd" d="M23.5069 225.672H300.895V62.2954H23.5069V225.672Z" fill="#F1F2F7"/>
</g>
</g>
<g id="Group 6">
<mask id="mask1_2_876" style="mask-type:luminance" maskUnits="userSpaceOnUse" x="0" y="126" width="22" height="18">
<path id="Clip 5" fill-rule="evenodd" clip-rule="evenodd" d="M8.14181 126.94C3.66364 126.94 0 130.644 0 135.168C0 139.692 3.66364 143.396 8.14181 143.396H13.0137C17.4931 143.396 21.1567 139.692 21.1567 135.168C21.1567 130.644 17.4931 126.94 13.0137 126.94H8.14181Z" fill="white"/>
</mask>
<g mask="url(#mask1_2_876)">
<path id="Fill 4" fill-rule="evenodd" clip-rule="evenodd" d="M-5.87695 149.272H27.0335V121.063H-5.87695V149.272Z" fill="#F1F2F7"/>
</g>
</g>
<g id="Group 9">
<mask id="mask2_2_876" style="mask-type:luminance" maskUnits="userSpaceOnUse" x="51" y="209" width="267" height="106">
<path id="Clip 8" fill-rule="evenodd" clip-rule="evenodd" d="M101.512 212.005L100.321 213.346L99.0576 212.196C82.2674 213.554 66.1847 215.412 51.0212 217.727C62.8349 273.301 112.318 314.999 171.568 314.999C199.31 314.999 224.908 305.853 245.509 290.423H267.438C271.857 290.423 275.474 286.816 275.474 282.41C275.474 280.209 274.568 278.2 273.112 276.753C271.659 275.299 269.644 274.396 267.438 274.396H257.901C253.48 274.396 249.864 270.79 249.864 266.382C249.864 264.181 250.77 262.172 252.226 260.724C253.679 259.27 255.694 258.369 257.901 258.369H309.233C313.654 258.369 317.269 254.763 317.269 250.354C317.269 248.152 316.363 246.144 314.907 244.697C313.449 243.243 311.444 242.34 309.233 242.34H284.062C287.277 235.197 289.828 227.696 291.632 219.907C254.509 213.368 211.092 209.606 164.694 209.606C142.857 209.606 121.682 210.439 101.512 212.005Z" fill="white"/>
</mask>
<g mask="url(#mask2_2_876)">
<path id="Fill 7" fill-rule="evenodd" clip-rule="evenodd" d="M45.1443 320.876H323.145V203.729H45.1443V320.876Z" fill="#E8EBF2"/>
</g>
</g>
<g id="Group 12">
<mask id="mask3_2_876" style="mask-type:luminance" maskUnits="userSpaceOnUse" x="101" y="195" width="193" height="25">
<path id="Clip 11" fill-rule="evenodd" clip-rule="evenodd" d="M270.071 210.749L257.662 199.375L244.382 209.232L238.816 201.563L216.841 209.232L166.219 201.563L136.793 209.687C145.791 209.386 154.933 209.232 164.196 209.232C210.542 209.232 253.913 213.088 290.996 219.795C292.423 213.45 293.388 206.925 293.843 200.252L289.642 195.112L270.071 210.749ZM101.082 211.692C112.676 210.768 124.6 210.093 136.793 209.687L115.056 195.502L101.082 211.692Z" fill="white"/>
</mask>
<g mask="url(#mask3_2_876)">
<path id="Fill 10" fill-rule="evenodd" clip-rule="evenodd" d="M95.2057 225.672H299.721V189.236H95.2057V225.672Z" fill="#E0E2EE"/>
</g>
</g>
<g id="Group 15">
<mask id="mask4_2_876" style="mask-type:luminance" maskUnits="userSpaceOnUse" x="98" y="211" width="4" height="2">
<path id="Clip 14" fill-rule="evenodd" clip-rule="evenodd" d="M98.7314 211.737L99.942 212.744L101.082 211.567C100.297 211.619 99.5107 211.676 98.7314 211.737Z" fill="white"/>
</mask>
<g mask="url(#mask4_2_876)">
<path id="Fill 13" fill-rule="evenodd" clip-rule="evenodd" d="M92.8539 218.62H106.958V205.69H92.8539V218.62Z" fill="#F1F2F7"/>
</g>
</g>
<g id="Group 18">
<mask id="mask5_2_876" style="mask-type:luminance" maskUnits="userSpaceOnUse" x="49" y="190" width="50" height="28">
<path id="Clip 17" fill-rule="evenodd" clip-rule="evenodd" d="M49.3661 210.002C49.7352 212.507 50.1807 214.99 50.699 217.445C65.8602 215.114 81.9428 213.239 98.7318 211.871L75.3525 190.411L49.3661 210.002Z" fill="white"/>
</mask>
<g mask="url(#mask5_2_876)">
<path id="Fill 16" fill-rule="evenodd" clip-rule="evenodd" d="M43.4892 223.322H104.609V184.534H43.4892V223.322Z" fill="#E0E2EE"/>
</g>
</g>
<g id="Group 21">
<mask id="mask6_2_876" style="mask-type:luminance" maskUnits="userSpaceOnUse" x="127" y="255" width="93" height="10">
<path id="Clip 20" fill-rule="evenodd" clip-rule="evenodd" d="M127.783 260.013C127.783 262.284 148.306 264.127 173.623 264.127C198.94 264.127 219.463 262.284 219.463 260.013C219.463 257.742 198.94 255.899 173.623 255.899C148.306 255.899 127.783 257.742 127.783 260.013Z" fill="white"/>
</mask>
<g mask="url(#mask6_2_876)">
<path id="Fill 19" fill-rule="evenodd" clip-rule="evenodd" d="M121.908 270.004H225.341V250.022H121.908V270.004Z" fill="#D8DBEA"/>
</g>
</g>
<g id="Group 24">
<mask id="mask7_2_876" style="mask-type:luminance" maskUnits="userSpaceOnUse" x="283" y="273" width="17" height="18">
<path id="Clip 23" fill-rule="evenodd" clip-rule="evenodd" d="M283.265 282.09C283.265 286.615 286.967 290.317 291.493 290.317C296.018 290.317 299.72 286.615 299.72 282.09C299.72 277.566 296.018 273.862 291.493 273.862C286.967 273.862 283.265 277.566 283.265 282.09Z" fill="white"/>
</mask>
<g mask="url(#mask7_2_876)">
<path id="Fill 22" fill-rule="evenodd" clip-rule="evenodd" d="M277.387 296.195H305.596V267.986H277.387V296.195Z" fill="#E1E3EF"/>
</g>
</g>
<g id="Group 47">
<path id="Fill 25" fill-rule="evenodd" clip-rule="evenodd" d="M172.412 160.121C168.585 160.121 165.482 157.018 165.482 153.191C165.482 149.365 168.585 146.263 172.412 146.263C176.239 146.263 179.342 149.365 179.342 153.191C179.342 157.018 176.239 160.121 172.412 160.121ZM172.411 143.394C167 143.394 162.612 147.78 162.612 153.191C162.612 158.605 167 162.992 172.411 162.992C177.823 162.992 182.211 158.605 182.211 153.191C182.211 147.78 177.823 143.394 172.411 143.394Z" fill="#D8DBEA"/>
<path id="Fill 27" fill-rule="evenodd" clip-rule="evenodd" d="M198.97 245.064H145.856C140.567 245.064 136.276 240.776 136.276 235.486V186.642C136.276 167.572 151.881 151.969 170.95 151.969H173.874C192.946 151.969 208.548 167.572 208.548 186.642V235.486C208.548 240.776 204.26 245.064 198.97 245.064Z" fill="#D8DBEA"/>
<path id="Fill 29" fill-rule="evenodd" clip-rule="evenodd" d="M212.9 233.427H212.381C210.272 233.427 208.548 231.702 208.548 229.594V202.349C208.548 200.241 210.272 198.516 212.381 198.516H217.577C219.685 198.516 221.409 200.241 221.409 202.349V224.918C221.409 229.598 217.58 233.427 212.9 233.427Z" fill="#158456"/>
<path id="Fill 31" fill-rule="evenodd" clip-rule="evenodd" d="M132.444 233.427H131.925C127.243 233.427 123.414 229.598 123.414 224.918V202.349C123.414 200.241 125.138 198.516 127.247 198.516H132.444C134.552 198.516 136.276 200.241 136.276 202.349V229.594C136.276 231.702 134.552 233.427 132.444 233.427Z" fill="#158456"/>
<path id="Fill 33" fill-rule="evenodd" clip-rule="evenodd" d="M195.072 231.881L171.798 239.246L148.524 231.881V215.971H195.072V231.881Z" fill="#BEC0D6"/>
<path id="Fill 35" fill-rule="evenodd" clip-rule="evenodd" d="M157.942 236.114L156.85 237.203C155.943 238.106 154.474 238.106 153.565 237.203L152.474 236.114V225.939H157.942V236.114Z" fill="#158456"/>
<path id="Fill 37" fill-rule="evenodd" clip-rule="evenodd" d="M156.313 234.323C156.313 234.935 155.818 235.428 155.208 235.428C154.597 235.428 154.102 234.935 154.102 234.323C154.102 233.712 154.597 233.219 155.208 233.219C155.818 233.219 156.313 233.712 156.313 234.323Z" fill="#F7FFF6"/>
<path id="Fill 39" fill-rule="evenodd" clip-rule="evenodd" d="M189.179 236.114L188.087 237.203C187.18 238.106 185.711 238.106 184.802 237.203L183.711 236.114V225.939H189.179V236.114Z" fill="#158456"/>
<path id="Fill 41" fill-rule="evenodd" clip-rule="evenodd" d="M187.55 234.323C187.55 234.935 187.055 235.428 186.445 235.428C185.834 235.428 185.339 234.935 185.339 234.323C185.339 233.712 185.834 233.219 186.445 233.219C187.055 233.219 187.55 233.712 187.55 234.323Z" fill="#F7FFF6"/>
<path id="Fill 43" fill-rule="evenodd" clip-rule="evenodd" d="M205.078 188.434V193.615V204.371L143.726 174.987C147.804 164.561 157.996 157.139 169.817 157.139H175.011C190.42 157.139 205.078 173.012 205.078 188.434Z" fill="white"/>
<path id="Fill 45" fill-rule="evenodd" clip-rule="evenodd" d="M143.724 191.142V185.961V175.206L205.076 204.591C200.998 215.015 190.807 222.438 178.985 222.438H173.792C158.382 222.438 143.724 206.565 143.724 191.142Z" fill="#158456"/>
</g>
<g id="Bee">
<path id="Stroke 3" d="M192.148 49.366C151.433 52.8126 136.469 87.2755 148.728 107.364C157.378 121.538 172.036 140.693 199.36 136.098C226.682 131.502 228.984 106.216 214.595 102.776C200.205 99.3381 148.942 115.38 154.735 152.438C158.918 179.177 195.167 186.885 195.167 186.885" stroke="#D7DAE9" stroke-width="2" stroke-dasharray="7"/>
<path id="Fill 5" fill-rule="evenodd" clip-rule="evenodd" d="M215.682 28.209C215.682 28.209 221.516 12.9686 222.131 7.0399C222.454 3.94199 217.321 -4.68328 211.312 3.2951C205.304 11.2735 208.045 21.056 215.682 28.209Z" fill="#D8DBEA"/>
<path id="Fill 7_2" fill-rule="evenodd" clip-rule="evenodd" d="M194.979 11.6111C188.144 9.2998 185.05 11.1019 183.732 14.6989C182.413 18.2971 184.254 25.1461 194.563 26.7073C204.873 28.2686 215.093 28.2087 215.093 28.2087C215.093 28.2087 201.814 13.9225 194.979 11.6111Z" fill="#D8DBEA"/>
<path id="Fill 9" fill-rule="evenodd" clip-rule="evenodd" d="M214.524 31.2284C214.679 30.5914 214.884 29.9808 215.113 29.384C213.851 29.5833 212.567 29.8633 211.275 30.2423C209.873 30.6524 208.565 31.1904 207.335 31.8068C206.801 32.8159 206.368 33.8942 206.087 35.052C204.355 42.1796 208.444 49.3637 215.314 51.7161C216.058 51.5687 216.805 51.3982 217.554 51.1793C219.646 50.5664 221.576 49.7554 223.32 48.8153C216.612 45.8719 212.75 38.5265 214.524 31.2284Z" fill="#D8DBEA"/>
<path id="Fill 11" fill-rule="evenodd" clip-rule="evenodd" d="M204.716 34.946C204.88 34.2419 205.103 33.5686 205.35 32.9106C199.406 36.7182 196.078 42.6275 196.627 46.0735C192.829 47.7058 190.41 49.0809 190.41 49.0809C190.41 49.0809 193.276 48.8628 197.451 48.0603C199.688 51.3284 205.887 53.5167 212.742 52.732C206.532 49.5207 203.027 42.2126 204.716 34.946Z" fill="#D8DBEA"/>
<path id="Fill 13_2" fill-rule="evenodd" clip-rule="evenodd" d="M224.399 37.529C222.824 37.1512 221.848 35.5697 222.227 33.9857C222.605 32.4127 224.197 31.4379 225.77 31.8157C227.351 32.1959 228.318 33.7835 227.941 35.3578C227.561 36.9405 225.982 37.9081 224.399 37.529ZM231.296 35.4135C230.029 31.0248 224.203 28.7584 217.331 29.5345C217.043 30.2145 216.799 30.9319 216.625 31.6749C215.094 38.1892 218.629 44.7418 224.624 47.0146C229.627 43.8322 232.436 39.3261 231.296 35.4135Z" fill="#D8DBEA"/>
</g>
</g>
</svg>
