<svg width="62" height="62" viewBox="0 0 62 62" fill="none" xmlns="http://www.w3.org/2000/svg">
<path d="M15.5 0C13.3687 0 11.625 1.74375 11.625 3.875V58.125C11.625 60.2562 13.3687 62 15.5 62H54.25C56.3812 62 58.125 60.2562 58.125 58.125V15.5L42.625 0H15.5Z" fill="#E2E5E7"/>
<path d="M46.5 15.5H58.125L42.625 0V11.625C42.625 13.7563 44.3687 15.5 46.5 15.5Z" fill="#B0B7BD"/>
<path d="M58.125 27.125L46.5 15.5H58.125V27.125Z" fill="#CAD1D8"/>
<path d="M50.375 50.3125C50.375 51.3781 49.5031 52.25 48.4375 52.25H5.8125C4.74687 52.25 3.875 51.3781 3.875 50.3125V30.9375C3.875 29.8719 4.74687 29 5.8125 29H48.4375C49.5031 29 50.375 29.8719 50.375 30.9375V50.3125Z" fill="#50BEE8"/>
<path d="M48.4375 52.3125H11.625V54.25H48.4375C49.5031 54.25 50.375 53.3781 50.375 52.3125V50.375C50.375 51.4406 49.5031 52.3125 48.4375 52.3125Z" fill="#CAD1D8"/>
<path d="M13.873 45V36.4102H16.6562C17.7109 36.4102 18.3984 36.4531 18.7188 36.5391C19.2109 36.668 19.623 36.9492 19.9551 37.3828C20.2871 37.8125 20.4531 38.3691 20.4531 39.0527C20.4531 39.5801 20.3574 40.0234 20.166 40.3828C19.9746 40.7422 19.7305 41.0254 19.4336 41.2324C19.1406 41.4355 18.8418 41.5703 18.5371 41.6367C18.123 41.7188 17.5234 41.7598 16.7383 41.7598H15.6074V45H13.873ZM15.6074 37.8633V40.3008H16.5566C17.2402 40.3008 17.6973 40.2559 17.9277 40.166C18.1582 40.0762 18.3379 39.9355 18.4668 39.7441C18.5996 39.5527 18.666 39.3301 18.666 39.0762C18.666 38.7637 18.5742 38.5059 18.3906 38.3027C18.207 38.0996 17.9746 37.9727 17.6934 37.9219C17.4863 37.8828 17.0703 37.8633 16.4453 37.8633H15.6074ZM22.2545 45V36.4102H23.942L27.4577 42.1465V36.4102H29.069V45H27.3287L23.8659 39.3984V45H22.2545ZM35.2649 41.8418V40.3945H39.0032V43.8164C38.6399 44.168 38.1126 44.4785 37.4212 44.748C36.7337 45.0137 36.0364 45.1465 35.3294 45.1465C34.4309 45.1465 33.6477 44.959 32.9798 44.584C32.3118 44.2051 31.8098 43.666 31.4739 42.9668C31.138 42.2637 30.97 41.5 30.97 40.6758C30.97 39.7812 31.1575 38.9863 31.5325 38.291C31.9075 37.5957 32.4563 37.0625 33.179 36.6914C33.7298 36.4062 34.4153 36.2637 35.2356 36.2637C36.302 36.2637 37.1341 36.4883 37.7317 36.9375C38.3333 37.3828 38.72 38 38.8919 38.7891L37.1692 39.1113C37.0481 38.6895 36.8196 38.3574 36.4837 38.1152C36.1516 37.8691 35.7356 37.7461 35.2356 37.7461C34.4778 37.7461 33.8743 37.9863 33.4251 38.4668C32.9798 38.9473 32.7571 39.6602 32.7571 40.6055C32.7571 41.625 32.9837 42.3906 33.4368 42.9023C33.8899 43.4102 34.4837 43.6641 35.218 43.6641C35.5813 43.6641 35.9446 43.5938 36.3079 43.4531C36.6751 43.3086 36.9895 43.1348 37.2512 42.9316V41.8418H35.2649Z" fill="white"/>
<path d="M13.873 45H13.723V45.15H13.873V45ZM13.873 36.4102V36.2602H13.723V36.4102H13.873ZM18.7188 36.5391L18.6799 36.6839L18.6807 36.6842L18.7188 36.5391ZM19.9551 37.3828L19.836 37.474L19.8364 37.4745L19.9551 37.3828ZM19.4336 41.2324L19.5191 41.3557L19.5194 41.3555L19.4336 41.2324ZM18.5371 41.6367L18.5663 41.7839L18.5691 41.7833L18.5371 41.6367ZM15.6074 41.7598V41.6098H15.4574V41.7598H15.6074ZM15.6074 45V45.15H15.7574V45H15.6074ZM15.6074 37.8633V37.7133H15.4574V37.8633H15.6074ZM15.6074 40.3008H15.4574V40.4508H15.6074V40.3008ZM18.4668 39.7441L18.3435 39.6586L18.3424 39.6604L18.4668 39.7441ZM17.6934 37.9219L17.6655 38.0693L17.6667 38.0695L17.6934 37.9219ZM14.023 45V36.4102H13.723V45H14.023ZM13.873 36.5602H16.6562V36.2602H13.873V36.5602ZM16.6562 36.5602C17.7153 36.5602 18.3821 36.6041 18.6799 36.6839L18.7576 36.3942C18.4147 36.3022 17.7066 36.2602 16.6562 36.2602V36.5602ZM18.6807 36.6842C19.1382 36.804 19.5226 37.0648 19.836 37.474L20.0742 37.2916C19.7234 36.8336 19.2837 36.532 18.7568 36.394L18.6807 36.6842ZM19.8364 37.4745C20.1434 37.8718 20.3031 38.3936 20.3031 39.0527H20.6031C20.6031 38.3447 20.4309 37.7532 20.0738 37.2911L19.8364 37.4745ZM20.3031 39.0527C20.3031 39.5625 20.2106 39.9801 20.0336 40.3123L20.2984 40.4533C20.5043 40.0668 20.6031 39.5976 20.6031 39.0527H20.3031ZM20.0336 40.3123C19.852 40.6534 19.6229 40.9175 19.3478 41.1094L19.5194 41.3555C19.8381 41.1332 20.0973 40.831 20.2984 40.4533L20.0336 40.3123ZM19.3481 41.1092C19.069 41.3027 18.7881 41.4285 18.5052 41.4902L18.5691 41.7833C18.8955 41.7121 19.2122 41.5684 19.5191 41.3557L19.3481 41.1092ZM18.508 41.4896C18.1084 41.5687 17.5205 41.6098 16.7383 41.6098V41.9098C17.5264 41.9098 18.1377 41.8688 18.5663 41.7839L18.508 41.4896ZM16.7383 41.6098H15.6074V41.9098H16.7383V41.6098ZM15.4574 41.7598V45H15.7574V41.7598H15.4574ZM15.6074 44.85H13.873V45.15H15.6074V44.85ZM15.4574 37.8633V40.3008H15.7574V37.8633H15.4574ZM15.6074 40.4508H16.5566V40.1508H15.6074V40.4508ZM16.5566 40.4508C16.9012 40.4508 17.1917 40.4395 17.4268 40.4164C17.6594 40.3935 17.8476 40.3582 17.9822 40.3058L17.8733 40.0263C17.7774 40.0636 17.6218 40.0958 17.3974 40.1178C17.1755 40.1396 16.8957 40.1508 16.5566 40.1508V40.4508ZM17.9822 40.3058C18.239 40.2057 18.444 40.0465 18.5912 39.8279L18.3424 39.6604C18.2318 39.8246 18.0774 39.9467 17.8733 40.0263L17.9822 40.3058ZM18.59 39.8297C18.7418 39.6109 18.816 39.3578 18.816 39.0762H18.516C18.516 39.3024 18.4574 39.4946 18.3436 39.6586L18.59 39.8297ZM18.816 39.0762C18.816 38.7321 18.714 38.4368 18.5019 38.2022L18.2793 38.4033C18.4345 38.575 18.516 38.7952 18.516 39.0762H18.816ZM18.5019 38.2022C18.2951 37.9733 18.0324 37.8307 17.72 37.7743L17.6667 38.0695C17.9169 38.1147 18.119 38.2259 18.2793 38.4033L18.5019 38.2022ZM17.7212 37.7745C17.4981 37.7324 17.068 37.7133 16.4453 37.7133V38.0133C17.0726 38.0133 17.4746 38.0332 17.6655 38.0693L17.7212 37.7745ZM16.4453 37.7133H15.6074V38.0133H16.4453V37.7133ZM22.2545 45H22.1045V45.15H22.2545V45ZM22.2545 36.4102V36.2602H22.1045V36.4102H22.2545ZM23.942 36.4102L24.0699 36.3318L24.026 36.2602H23.942V36.4102ZM27.4577 42.1465L27.3298 42.2249L27.6077 42.6783V42.1465H27.4577ZM27.4577 36.4102V36.2602H27.3077V36.4102H27.4577ZM29.069 36.4102H29.219V36.2602H29.069V36.4102ZM29.069 45V45.15H29.219V45H29.069ZM27.3287 45L27.2012 45.0789L27.2451 45.15H27.3287V45ZM23.8659 39.3984L23.9934 39.3196L23.7159 38.8705V39.3984H23.8659ZM23.8659 45V45.15H24.0159V45H23.8659ZM22.4045 45V36.4102H22.1045V45H22.4045ZM22.2545 36.5602H23.942V36.2602H22.2545V36.5602ZM23.8141 36.4885L27.3298 42.2249L27.5855 42.0681L24.0699 36.3318L23.8141 36.4885ZM27.6077 42.1465V36.4102H27.3077V42.1465H27.6077ZM27.4577 36.5602H29.069V36.2602H27.4577V36.5602ZM28.919 36.4102V45H29.219V36.4102H28.919ZM29.069 44.85H27.3287V45.15H29.069V44.85ZM27.4563 44.9211L23.9934 39.3196L23.7383 39.4773L27.2012 45.0789L27.4563 44.9211ZM23.7159 39.3984V45H24.0159V39.3984H23.7159ZM23.8659 44.85H22.2545V45.15H23.8659V44.85ZM35.2649 41.8418H35.1149V41.9918H35.2649V41.8418ZM35.2649 40.3945V40.2445H35.1149V40.3945H35.2649ZM39.0032 40.3945H39.1532V40.2445H39.0032V40.3945ZM39.0032 43.8164L39.1075 43.9242L39.1532 43.88V43.8164H39.0032ZM37.4212 44.748L37.4752 44.888L37.4757 44.8878L37.4212 44.748ZM32.9798 44.584L32.9058 44.7145L32.9063 44.7148L32.9798 44.584ZM31.4739 42.9668L31.3386 43.0315L31.3387 43.0318L31.4739 42.9668ZM33.179 36.6914L33.2475 36.8248L33.2479 36.8246L33.179 36.6914ZM37.7317 36.9375L37.6416 37.0574L37.6425 37.0581L37.7317 36.9375ZM38.8919 38.7891L38.9195 38.9365L39.0713 38.9081L39.0384 38.7571L38.8919 38.7891ZM37.1692 39.1113L37.025 39.1527L37.0627 39.2839L37.1968 39.2588L37.1692 39.1113ZM36.4837 38.1152L36.3943 38.2358L36.396 38.2369L36.4837 38.1152ZM33.4251 38.4668L33.3155 38.3644L33.3151 38.3648L33.4251 38.4668ZM33.4368 42.9023L33.3245 43.0018L33.3249 43.0022L33.4368 42.9023ZM36.3079 43.4531L36.362 43.593L36.3628 43.5927L36.3079 43.4531ZM37.2512 42.9316L37.3432 43.0501L37.4012 43.0051V42.9316H37.2512ZM37.2512 41.8418H37.4012V41.6918H37.2512V41.8418ZM35.4149 41.8418V40.3945H35.1149V41.8418H35.4149ZM35.2649 40.5445H39.0032V40.2445H35.2649V40.5445ZM38.8532 40.3945V43.8164H39.1532V40.3945H38.8532ZM38.8989 43.7086C38.555 44.0414 38.0475 44.3429 37.3667 44.6083L37.4757 44.8878C38.1777 44.6141 38.7249 44.2945 39.1075 43.9242L38.8989 43.7086ZM37.3671 44.6081C36.6961 44.8674 36.0171 44.9965 35.3294 44.9965V45.2965C36.0557 45.2965 36.7712 45.16 37.4752 44.888L37.3671 44.6081ZM35.3294 44.9965C34.4522 44.9965 33.6951 44.8136 33.0532 44.4532L32.9063 44.7148C33.6003 45.1044 34.4097 45.2965 35.3294 45.2965V44.9965ZM33.0538 44.4535C32.4127 44.0899 31.9319 43.5738 31.6091 42.9018L31.3387 43.0318C31.6877 43.7582 32.2109 44.3203 32.9058 44.7145L33.0538 44.4535ZM31.6093 42.9021C31.2835 42.2204 31.12 41.4789 31.12 40.6758H30.82C30.82 41.5211 30.9924 42.307 31.3386 43.0315L31.6093 42.9021ZM31.12 40.6758C31.12 39.8028 31.3028 39.0329 31.6645 38.3622L31.4005 38.2198C31.0122 38.9398 30.82 39.7597 30.82 40.6758H31.12ZM31.6645 38.3622C32.0247 37.6944 32.551 37.1825 33.2475 36.8248L33.1105 36.558C32.3616 36.9425 31.7903 37.497 31.4005 38.2198L31.6645 38.3622ZM33.2479 36.8246C33.7717 36.5535 34.4319 36.4137 35.2356 36.4137V36.1137C34.3988 36.1137 33.6879 36.259 33.11 36.5582L33.2479 36.8246ZM35.2356 36.4137C36.283 36.4137 37.0789 36.6345 37.6416 37.0574L37.8218 36.8176C37.1892 36.3421 36.3211 36.1137 35.2356 36.1137V36.4137ZM37.6425 37.0581C38.2124 37.48 38.5805 38.0644 38.7453 38.821L39.0384 38.7571C38.8595 37.9356 38.4541 37.2857 37.821 36.8169L37.6425 37.0581ZM38.8643 38.6416L37.1416 38.9639L37.1968 39.2588L38.9195 38.9365L38.8643 38.6416ZM37.3134 39.0699C37.1836 38.6178 36.9363 38.2566 36.5714 37.9936L36.396 38.2369C36.7029 38.4582 36.9126 38.7611 37.025 39.1527L37.3134 39.0699ZM36.573 37.9947C36.2101 37.7257 35.7609 37.5961 35.2356 37.5961V37.8961C35.7104 37.8961 36.0932 38.0125 36.3944 38.2357L36.573 37.9947ZM35.2356 37.5961C34.4432 37.5961 33.7975 37.8488 33.3155 38.3644L33.5346 38.5692C33.9511 38.1238 34.5124 37.8961 35.2356 37.8961V37.5961ZM33.3151 38.3648C32.8346 38.8832 32.6071 39.639 32.6071 40.6055H32.9071C32.9071 39.6814 33.1249 39.0113 33.5351 38.5688L33.3151 38.3648ZM32.6071 40.6055C32.6071 41.6441 32.8375 42.4519 33.3245 43.0018L33.5491 42.8029C33.1298 42.3294 32.9071 41.6059 32.9071 40.6055H32.6071ZM33.3249 43.0022C33.8089 43.5446 34.4447 43.8141 35.218 43.8141V43.5141C34.5226 43.5141 33.9709 43.2757 33.5487 42.8025L33.3249 43.0022ZM35.218 43.8141C35.6011 43.8141 35.9827 43.7398 36.362 43.593L36.2537 43.3132C35.9065 43.4477 35.5615 43.5141 35.218 43.5141V43.8141ZM36.3628 43.5927C36.7408 43.4439 37.0683 43.2635 37.3432 43.0501L37.1593 42.8131C36.9107 43.006 36.6093 43.1733 36.253 43.3135L36.3628 43.5927ZM37.4012 42.9316V41.8418H37.1012V42.9316H37.4012ZM37.2512 41.6918H35.2649V41.9918H37.2512V41.6918Z" fill="white"/>
</svg>
