<svg width="62" height="62" viewBox="0 0 62 62" fill="none" xmlns="http://www.w3.org/2000/svg">
<path d="M15.5 0C13.3687 0 11.625 1.74375 11.625 3.875V58.125C11.625 60.2563 13.3687 62 15.5 62H54.25C56.3813 62 58.125 60.2563 58.125 58.125V15.5L42.625 0H15.5Z" fill="#E2E5E7"/>
<path d="M46.5 15.5H58.125L42.625 0V11.625C42.625 13.7563 44.3687 15.5 46.5 15.5Z" fill="#B0B7BD"/>
<path d="M58.125 27.125L46.5 15.5H58.125V27.125Z" fill="#CAD1D8"/>
<path d="M50.375 50.3125C50.375 51.3781 49.5031 52.25 48.4375 52.25H5.8125C4.74687 52.25 3.875 51.3781 3.875 50.3125V30.9375C3.875 29.8719 4.74687 29 5.8125 29H48.4375C49.5031 29 50.375 29.8719 50.375 30.9375V50.3125Z" fill="#50CD89"/>
<path d="M48.4375 52.3125H11.625V54.25H48.4375C49.5031 54.25 50.375 53.3781 50.375 52.3125V50.375C50.375 51.4406 49.5031 52.3125 48.4375 52.3125Z" fill="#CAD1D8"/>
<path d="M15.3409 45L17.585 41.7949L15.4346 38.7773H17.4444L18.5459 40.4883L19.7061 38.7773H21.6397L19.5303 41.7246L21.833 45H19.8116L18.5459 43.0723L17.2686 45H15.3409ZM23.1716 45V36.4102H24.818V45H23.1716ZM26.2913 43.2246L27.9437 42.9727C28.014 43.293 28.1566 43.5371 28.3714 43.7051C28.5863 43.8691 28.887 43.9512 29.2738 43.9512C29.6995 43.9512 30.0198 43.873 30.2347 43.7168C30.3792 43.6074 30.4515 43.4609 30.4515 43.2773C30.4515 43.1523 30.4124 43.0488 30.3343 42.9668C30.2523 42.8887 30.0687 42.8164 29.7835 42.75C28.4554 42.457 27.6136 42.1895 27.2581 41.9473C26.7659 41.6113 26.5198 41.1445 26.5198 40.5469C26.5198 40.0078 26.7327 39.5547 27.1585 39.1875C27.5843 38.8203 28.2445 38.6367 29.139 38.6367C29.9905 38.6367 30.6234 38.7754 31.0374 39.0527C31.4515 39.3301 31.7366 39.7402 31.8929 40.2832L30.3402 40.5703C30.2738 40.3281 30.1468 40.1426 29.9593 40.0137C29.7757 39.8848 29.512 39.8203 29.1683 39.8203C28.7347 39.8203 28.4241 39.8809 28.2366 40.002C28.1116 40.0879 28.0491 40.1992 28.0491 40.3359C28.0491 40.4531 28.1038 40.5527 28.2132 40.6348C28.3616 40.7441 28.8734 40.8984 29.7484 41.0977C30.6273 41.2969 31.2405 41.541 31.5882 41.8301C31.932 42.123 32.1038 42.5312 32.1038 43.0547C32.1038 43.625 31.8655 44.1152 31.389 44.5254C30.9124 44.9355 30.2073 45.1406 29.2738 45.1406C28.4261 45.1406 27.7542 44.9688 27.2581 44.625C26.7659 44.2812 26.4437 43.8145 26.2913 43.2246ZM33.1201 45L35.3642 41.7949L33.2138 38.7773H35.2236L36.3252 40.4883L37.4853 38.7773H39.4189L37.3095 41.7246L39.6123 45H37.5908L36.3252 43.0723L35.0478 45H33.1201Z" fill="white"/>
<path d="M15.3409 45L15.218 44.914L15.0527 45.15H15.3409V45ZM17.585 41.7949L17.7079 41.881L17.7686 41.7942L17.7072 41.7079L17.585 41.7949ZM15.4346 38.7773V38.6273H15.1435L15.3125 38.8644L15.4346 38.7773ZM17.4444 38.7773L17.5705 38.6961L17.5262 38.6273H17.4444V38.7773ZM18.5459 40.4883L18.4198 40.5695L18.5427 40.7603L18.6701 40.5725L18.5459 40.4883ZM19.7061 38.7773V38.6273H19.6266L19.5819 38.6932L19.7061 38.7773ZM21.6397 38.7773L21.7617 38.8646L21.9315 38.6273H21.6397V38.7773ZM19.5303 41.7246L19.4083 41.6373L19.3464 41.7238L19.4076 41.8109L19.5303 41.7246ZM21.833 45V45.15H22.1219L21.9558 44.9137L21.833 45ZM19.8116 45L19.6862 45.0823L19.7306 45.15H19.8116V45ZM18.5459 43.0723L18.6713 42.9899L18.5465 42.7998L18.4209 42.9894L18.5459 43.0723ZM17.2686 45V45.15H17.3491L17.3936 45.0829L17.2686 45ZM15.4637 45.086L17.7079 41.881L17.4621 41.7089L15.218 44.914L15.4637 45.086ZM17.7072 41.7079L15.5568 38.6903L15.3125 38.8644L17.4628 41.882L17.7072 41.7079ZM15.4346 38.9273H17.4444V38.6273H15.4346V38.9273ZM17.3183 38.8585L18.4198 40.5695L18.6721 40.4071L17.5705 38.6961L17.3183 38.8585ZM18.6701 40.5725L19.8302 38.8615L19.5819 38.6932L18.4218 40.4041L18.6701 40.5725ZM19.7061 38.9273H21.6397V38.6273H19.7061V38.9273ZM21.5177 38.69L19.4083 41.6373L19.6523 41.8119L21.7617 38.8646L21.5177 38.69ZM19.4076 41.8109L21.7103 45.0863L21.9558 44.9137L19.653 41.6383L19.4076 41.8109ZM21.833 44.85H19.8116V45.15H21.833V44.85ZM19.937 44.9177L18.6713 42.9899L18.4205 43.1546L19.6862 45.0823L19.937 44.9177ZM18.4209 42.9894L17.1436 44.9171L17.3936 45.0829L18.671 43.1551L18.4209 42.9894ZM17.2686 44.85H15.3409V45.15H17.2686V44.85ZM23.1716 45H23.0216V45.15H23.1716V45ZM23.1716 36.4102V36.2602H23.0216V36.4102H23.1716ZM24.818 36.4102H24.968V36.2602H24.818V36.4102ZM24.818 45V45.15H24.968V45H24.818ZM23.3216 45V36.4102H23.0216V45H23.3216ZM23.1716 36.5602H24.818V36.2602H23.1716V36.5602ZM24.668 36.4102V45H24.968V36.4102H24.668ZM24.818 44.85H23.1716V45.15H24.818V44.85ZM26.2913 43.2246L26.2687 43.0763L26.1046 43.1014L26.1461 43.2621L26.2913 43.2246ZM27.9437 42.9727L28.0902 42.9405L28.06 42.8032L27.9211 42.8244L27.9437 42.9727ZM28.3714 43.7051L28.279 43.8233L28.2804 43.8243L28.3714 43.7051ZM30.2347 43.7168L30.3229 43.8381L30.3252 43.8364L30.2347 43.7168ZM30.3343 42.9668L30.443 42.8632L30.4377 42.8582L30.3343 42.9668ZM29.7835 42.75L29.8175 42.6039L29.8158 42.6035L29.7835 42.75ZM27.2581 41.9473L27.1736 42.0712L27.1737 42.0712L27.2581 41.9473ZM31.8929 40.2832L31.9202 40.4307L32.0828 40.4006L32.037 40.2417L31.8929 40.2832ZM30.3402 40.5703L30.1955 40.61L30.2319 40.7429L30.3674 40.7178L30.3402 40.5703ZM29.9593 40.0137L29.8731 40.1364L29.8743 40.1373L29.9593 40.0137ZM28.2366 40.002L28.1552 39.8759L28.1517 39.8783L28.2366 40.002ZM28.2132 40.6348L28.1232 40.7548L28.1242 40.7555L28.2132 40.6348ZM29.7484 41.0977L29.7151 41.2439L29.7152 41.2439L29.7484 41.0977ZM31.5882 41.8301L31.6855 41.7159L31.6841 41.7147L31.5882 41.8301ZM27.2581 44.625L27.1722 44.748L27.1727 44.7483L27.2581 44.625ZM26.3139 43.3729L27.9663 43.1209L27.9211 42.8244L26.2687 43.0763L26.3139 43.3729ZM27.7972 43.0048C27.8734 43.352 28.0314 43.6296 28.279 43.8232L28.4638 43.5869C28.2817 43.4446 28.1546 43.2339 28.0902 42.9405L27.7972 43.0048ZM28.2804 43.8243C28.5305 44.0153 28.8679 44.1012 29.2738 44.1012V43.8012C28.9062 43.8012 28.642 43.723 28.4624 43.5859L28.2804 43.8243ZM29.2738 44.1012C29.7136 44.1012 30.0711 44.0212 30.3229 43.8381L30.1465 43.5955C29.9686 43.7249 29.6854 43.8012 29.2738 43.8012V44.1012ZM30.3252 43.8364C30.5078 43.6983 30.6015 43.5072 30.6015 43.2773H30.3015C30.3015 43.4147 30.2507 43.5166 30.1442 43.5972L30.3252 43.8364ZM30.6015 43.2773C30.6015 43.1182 30.5505 42.9763 30.4429 42.8633L30.2257 43.0702C30.2744 43.1214 30.3015 43.1865 30.3015 43.2773H30.6015ZM30.4377 42.8582C30.376 42.7993 30.2885 42.7532 30.19 42.7144C30.089 42.6747 29.9642 42.6381 29.8175 42.6039L29.7495 42.8961C29.888 42.9283 29.9975 42.9611 30.0801 42.9936C30.1653 43.0271 30.2106 43.0561 30.2308 43.0754L30.4377 42.8582ZM29.8158 42.6035C29.1541 42.4576 28.6164 42.3185 28.2015 42.1866C27.7831 42.0536 27.5013 41.9315 27.3426 41.8233L27.1737 42.0712C27.3704 42.2053 27.6873 42.338 28.1106 42.4725C28.5375 42.6082 29.0848 42.7495 29.7512 42.8965L29.8158 42.6035ZM27.3427 41.8234C26.8916 41.5155 26.6698 41.0951 26.6698 40.5469H26.3698C26.3698 41.1939 26.6403 41.7072 27.1736 42.0712L27.3427 41.8234ZM26.6698 40.5469C26.6698 40.0535 26.8621 39.6412 27.2565 39.3011L27.0606 39.0739C26.6034 39.4682 26.3698 39.9621 26.3698 40.5469H26.6698ZM27.2565 39.3011C27.6429 38.9678 28.2603 38.7867 29.139 38.7867V38.4867C28.2286 38.4867 27.5257 38.6728 27.0606 39.0739L27.2565 39.3011ZM29.139 38.7867C29.9796 38.7867 30.5766 38.9246 30.9539 39.1774L31.1209 38.9281C30.6702 38.6262 30.0015 38.4867 29.139 38.4867V38.7867ZM30.9539 39.1774C31.3347 39.4324 31.6009 39.8109 31.7487 40.3247L32.037 40.2417C31.8724 39.6696 31.5683 39.2278 31.1209 38.9281L30.9539 39.1774ZM31.8656 40.1357L30.3129 40.4228L30.3674 40.7178L31.9202 40.4307L31.8656 40.1357ZM30.4848 40.5306C30.4101 40.2581 30.264 40.0412 30.0443 39.8901L29.8743 40.1373C30.0296 40.244 30.1374 40.3981 30.1955 40.61L30.4848 40.5306ZM30.0455 39.8909C29.8265 39.7371 29.5275 39.6703 29.1683 39.6703V39.9703C29.4965 39.9703 29.7249 40.0324 29.8731 40.1364L30.0455 39.8909ZM29.1683 39.6703C28.7286 39.6703 28.3809 39.7303 28.1553 39.8759L28.318 40.128C28.4674 40.0315 28.7408 39.9703 29.1683 39.9703V39.6703ZM28.1517 39.8783C27.9912 39.9887 27.8991 40.1438 27.8991 40.3359H28.1991C28.1991 40.2546 28.2321 40.1871 28.3216 40.1256L28.1517 39.8783ZM27.8991 40.3359C27.8991 40.5086 27.9832 40.6498 28.1232 40.7548L28.3032 40.5148C28.2245 40.4557 28.1991 40.3976 28.1991 40.3359H27.8991ZM28.1242 40.7555C28.1772 40.7945 28.2514 40.8303 28.337 40.8645C28.425 40.8997 28.5348 40.9369 28.665 40.9761C28.9256 41.0547 29.2761 41.144 29.7151 41.2439L29.7817 40.9514C29.3456 40.8521 29.0027 40.7646 28.7516 40.6889C28.626 40.651 28.5253 40.6167 28.4483 40.5859C28.3688 40.5542 28.3235 40.5297 28.3022 40.514L28.1242 40.7555ZM29.7152 41.2439C30.5896 41.4421 31.1733 41.6802 31.4923 41.9454L31.6841 41.7147C31.3078 41.4019 30.6649 41.1516 29.7815 40.9514L29.7152 41.2439ZM31.4909 41.9442C31.7957 42.204 31.9538 42.5674 31.9538 43.0547H32.2538C32.2538 42.4951 32.0682 42.0421 31.6855 41.7159L31.4909 41.9442ZM31.9538 43.0547C31.9538 43.5765 31.7384 44.0268 31.2911 44.4117L31.4868 44.6391C31.9927 44.2037 32.2538 43.6735 32.2538 43.0547H31.9538ZM31.2911 44.4117C30.8523 44.7894 30.1883 44.9906 29.2738 44.9906V45.2906C30.2263 45.2906 30.9725 45.0817 31.4868 44.6391L31.2911 44.4117ZM29.2738 44.9906C28.4447 44.9906 27.8063 44.8223 27.3436 44.5017L27.1727 44.7483C27.7022 45.1152 28.4075 45.2906 29.2738 45.2906V44.9906ZM27.344 44.502C26.8816 44.1791 26.5801 43.7428 26.4366 43.1871L26.1461 43.2621C26.3072 43.8861 26.6502 44.3834 27.1722 44.748L27.344 44.502ZM33.1201 45L32.9972 44.914L32.8319 45.15H33.1201V45ZM35.3642 41.7949L35.4871 41.881L35.5479 41.7942L35.4864 41.7079L35.3642 41.7949ZM33.2138 38.7773V38.6273H32.9227L33.0917 38.8644L33.2138 38.7773ZM35.2236 38.7773L35.3497 38.6961L35.3054 38.6273H35.2236V38.7773ZM36.3252 40.4883L36.199 40.5695L36.3219 40.7603L36.4493 40.5725L36.3252 40.4883ZM37.4853 38.7773V38.6273H37.4058L37.3612 38.6932L37.4853 38.7773ZM39.4189 38.7773L39.5409 38.8646L39.7107 38.6273H39.4189V38.7773ZM37.3095 41.7246L37.1876 41.6373L37.1256 41.7238L37.1868 41.8109L37.3095 41.7246ZM39.6123 45V45.15H39.9011L39.735 44.9137L39.6123 45ZM37.5908 45L37.4654 45.0823L37.5098 45.15H37.5908V45ZM36.3252 43.0723L36.4505 42.9899L36.3257 42.7998L36.2001 42.9894L36.3252 43.0723ZM35.0478 45V45.15H35.1284L35.1729 45.0829L35.0478 45ZM33.243 45.086L35.4871 41.881L35.2413 41.7089L32.9972 44.914L33.243 45.086ZM35.4864 41.7079L33.336 38.6903L33.0917 38.8644L35.2421 41.882L35.4864 41.7079ZM33.2138 38.9273H35.2236V38.6273H33.2138V38.9273ZM35.0975 38.8585L36.199 40.5695L36.4513 40.4071L35.3497 38.6961L35.0975 38.8585ZM36.4493 40.5725L37.6095 38.8615L37.3612 38.6932L36.201 40.4041L36.4493 40.5725ZM37.4853 38.9273H39.4189V38.6273H37.4853V38.9273ZM39.2969 38.69L37.1876 41.6373L37.4315 41.8119L39.5409 38.8646L39.2969 38.69ZM37.1868 41.8109L39.4896 45.0863L39.735 44.9137L37.4322 41.6383L37.1868 41.8109ZM39.6123 44.85H37.5908V45.15H39.6123V44.85ZM37.7162 44.9177L36.4505 42.9899L36.1998 43.1546L37.4654 45.0823L37.7162 44.9177ZM36.2001 42.9894L34.9228 44.9171L35.1729 45.0829L36.4502 43.1551L36.2001 42.9894ZM35.0478 44.85H33.1201V45.15H35.0478V44.85Z" fill="white"/>
</svg>
