<?xml version="1.0" encoding="UTF-8"?>
<svg id="Layer_1" data-name="Layer 1" xmlns="http://www.w3.org/2000/svg" xmlns:xlink="http://www.w3.org/1999/xlink" viewBox="0 0 280 442.43">
  <defs>
    <style>
      .cls-1 {
        fill: #0b793b;
      }

      .cls-2 {
        fill: url(#radial-gradient);
      }

      .cls-3 {
        fill: #00700b;
      }

      .cls-4 {
        fill: #0d3f3c;
        fill-rule: evenodd;
      }
    </style>
    <radialGradient id="radial-gradient" cx="140" cy="139.65" fx="140" fy="139.65" r="139.83" gradientUnits="userSpaceOnUse">
      <stop offset="0" stop-color="#0e283d"/>
      <stop offset=".48" stop-color="#0d3f3c"/>
      <stop offset=".59" stop-color="#0c433b"/>
      <stop offset=".7" stop-color="#0c4f3b"/>
      <stop offset=".81" stop-color="#0b643b"/>
      <stop offset=".88" stop-color="#0b753b"/>
      <stop offset=".99" stop-color="#0b783b"/>
      <stop offset="1" stop-color="#0b793b"/>
    </radialGradient>
  </defs>
  <path class="cls-2" d="M164.06,58.3c.12-1.25.27-2.6.44-4.1,1.42-12.91,2.84-25.82,4.33-39.42.7-6.42,7.07-10.63,13.25-8.76,16.54,5.02,30.86,12.63,43.85,22.95,14.35,11.4,14.21,11.59.03,23.01-10.26,8.27-20.64,16.39-30.74,24.84-8.74-8.36-19.35-14.78-31.15-18.52ZM41.52,49.31c13.76,9.82,27.24,20.02,40.94,29.91,13.29-13.77,31.4-22.83,51.44-24.37,1.74-14.42,3.31-28.96,4.95-44.07.66-6.1-4.44-11.31-10.55-10.73-34.51,3.23-63.52,16.57-87.96,40.86-3.15,3.13-2.83,5.55,1.17,8.41ZM262,70.55c-2.29-4.1-4.47-6.98-9.37-3.14-13.25,10.39-26.54,20.71-38.85,30.29-.7.54-1.35,1.14-1.95,1.76,5.23,10.63,8.19,22.56,8.19,35.16,0,44.13-35.9,80.03-80.03,80.03h-14.54c-6.33,0-11.48,5.15-11.48,11.48,0,6.77-5.5,12.27-12.27,12.27h-16.45c-3.92,5.34-7.85,10.72-11.85,16.18-2.08,2.84-1.35,6.82,1.57,8.77,1.49,1,2.9,1.82,4.42,2.32,12.23,3.99,24.4,8.59,36.96,11.02,29.04,5.62,57.34,2.2,84-11.02,42.48-21.07,68.59-55.03,77.21-101.65,6.07-32.81.85-64.17-15.55-93.48ZM59.95,221.47v-33.25c0-7.16,2.89-13.91,7.92-18.84-5.49-11.39-8.21-24-7.9-36.75.25-10.33,2.52-20.18,6.39-29.2-12.73-9.57-25.79-19.06-40.26-29.61-4.1-2.99-9.93-1.28-11.76,3.45-3.77,9.72-7.36,18.51-9.63,27.63-12.56,50.4.28,94.39,35.02,132.47,4,4.39,6.89,5.21,10.92-.46,3.11-4.38,6.29-8.71,9.48-13.04-.11-.78-.19-1.58-.19-2.4Z"/>
  <path class="cls-4" d="M208.83,134.63c0-37.74-30.7-68.62-68.43-68.84-.13,0-.27,0-.4,0-37.09,0-67.93,30.02-68.83,67.11-.3,12.34,2.69,24.51,8.65,35.21l2.52,4.52-4.32,2.86c-4.31,2.86-6.88,7.61-6.88,12.73v33.25c0,3.17,2.58,5.75,5.75,5.75h24.8c.6,0,1.08-.48,1.08-1.08,0-12.5,10.17-22.67,22.67-22.67h14.46c38.04,0,68.93-30.88,68.93-68.84ZM178.24,137.1c-1.21,19.18-16.59,34.56-35.77,35.78-.81.05-1.63.08-2.44.08-10.16,0-19.94-4.02-27.15-11.23-7.78-7.78-11.85-18.57-11.15-29.59,1.21-19.18,16.59-34.56,35.78-35.77,11.02-.7,21.8,3.37,29.58,11.15,7.78,7.78,11.84,18.56,11.15,29.58Z"/>
  <g>
    <path class="cls-1" d="M115.95,384.76c-1.43-1.06-3.08-1.6-4.94-1.6s-3.47.52-4.84,1.55c-1.43,1.13-2.14,2.64-2.14,4.54s.71,3.42,2.14,4.59c1.33,1.06,2.94,1.6,4.84,1.6s3.47-.53,4.84-1.6c1.5-1.16,2.24-2.69,2.24-4.59s-.72-3.42-2.14-4.49Z"/>
    <path class="cls-1" d="M103.98,352.39c0,3.92-.88,6.78-2.64,8.58-1.76,1.8-4.09,2.69-6.98,2.69v.1h-23.89c-2.09,0-4.01-.37-5.73-1.1-1.7-.7-3.14-1.68-4.34-2.94-1.2-1.23-2.13-2.74-2.79-4.54-.63-1.76-.95-3.71-.95-5.83s.32-4.17.95-5.93c.66-1.76,1.6-3.26,2.79-4.49,1.2-1.23,2.64-2.19,4.34-2.89,1.73-.66,3.64-1,5.73-1v9.42h14.31v-18.7c-.93-.43-1.9-.83-2.89-1.2-3.46-1.2-7.26-1.8-11.42-1.8s-8.01.58-11.47,1.75c-3.46,1.2-6.42,2.94-8.88,5.24-2.49,2.26-4.42,5.04-5.78,8.33-1.4,3.29-2.09,7.05-2.09,11.27s.7,8.05,2.09,11.37c.47,1.13,1,2.21,1.6,3.24-2.73.3-5.19.87-7.38,1.7-3.36,1.3-6.13,3.06-8.33,5.29-2.19,2.26-3.86,4.9-4.99,7.93-1.1,3.02-1.65,6.28-1.65,9.77,0,2.36.23,4.62.7,6.78h14.81c-.86-2.19-1.3-4.51-1.3-6.93s.56-4.79,1.67-6.78c1.11-1.99,2.88-3.54,5.31-4.64,1.56-.7,3.44-1.05,5.63-1.05h43.93c.47,0,.91-.06,1.34-.15,6.83-.23,12.25-2.24,16.21-6.06,4.22-4.07,6.33-9.88,6.33-17.43v-11.22h5.88v-12.27h-20.1l-.05,23.49Z"/>
    <path class="cls-1" d="M175.09,321.18c1.3,1.06,2.91,1.6,4.84,1.6s3.47-.53,4.84-1.6c1.46-1.16,2.19-2.69,2.19-4.59s-.72-3.42-2.14-4.49c-1.43-1.06-3.06-1.6-4.89-1.6s-3.51.52-4.84,1.55c-1.46,1.13-2.19,2.64-2.19,4.54s.73,3.42,2.19,4.59Z"/>
    <path class="cls-1" d="M158.09,321.18c1.3,1.06,2.89,1.6,4.79,1.6s3.52-.53,4.89-1.6c1.46-1.16,2.19-2.69,2.19-4.59s-.72-3.42-2.14-4.49c-1.43-1.06-3.08-1.6-4.94-1.6s-3.46.52-4.79,1.55c-1.46,1.13-2.19,2.64-2.19,4.54s.73,3.42,2.19,4.59Z"/>
    <path class="cls-1" d="M252.18,338.08c-1.4-3.29-3.32-6.07-5.78-8.33-2.46-2.29-5.44-4.02-8.93-5.19-3.46-1.2-7.26-1.8-11.42-1.8s-7.96.6-11.42,1.8c-3.46,1.23-6.45,2.98-8.98,5.24-2.49,2.29-4.42,5.09-5.78,8.38-1.4,3.29-2.09,7.01-2.09,11.17v3.74c0,3.49-.85,6.13-2.54,7.93-1.7,1.83-4.04,2.74-7.03,2.74s-5.34-.91-7.03-2.74c-1.7-1.79-2.54-4.44-2.54-7.93v-11.92h5.88v-12.27h-20.1l-.05,23.49c0,3.92-.88,6.78-2.64,8.58-1.76,1.8-4.09,2.69-6.98,2.69v.05c-2.99,0-5.34-.9-7.03-2.69-1.7-1.83-2.54-4.49-2.54-7.98v-42.49h-14.31v42.29c0,3.32.51,6.42,1.55,9.27,1.03,2.83,2.58,5.27,4.64,7.33,2.03,2.06,4.54,3.67,7.53,4.84,2.96,1.13,6.35,1.7,10.17,1.7.31,0,.6-.04.89-.08,3.36-.08,6.41-.57,9.13-1.51,2.63-.93,4.9-2.24,6.83-3.94,1.8,1.6,3.94,2.88,6.43,3.84,2.89,1.1,6.22,1.68,9.97,1.75h.25s.03,0,.05,0c3.81-.04,7.17-.62,10.08-1.74,2.99-1.16,5.52-2.78,7.58-4.84l.05-.05c2.43,2.09,5.3,3.71,8.63,4.84,3.46,1.2,7.26,1.8,11.42,1.8s7.96-.6,11.42-1.8c3.49-1.2,6.47-2.91,8.93-5.14,2.46-2.26,4.39-5.05,5.78-8.38,1.36-3.32,2.04-7.11,2.04-11.37s-.68-7.94-2.04-11.27ZM238.89,355.19c-.65,1.76-1.57,3.27-2.77,4.54-1.2,1.26-2.65,2.24-4.36,2.94-1.71.7-3.62,1.05-5.71,1.05s-3.89-.35-5.59-1.05c-1.7-.7-3.16-1.68-4.39-2.94-1.23-1.26-2.19-2.78-2.87-4.54-.68-1.76-1.02-3.71-1.02-5.83s.34-4.01,1.02-5.73c.68-1.73,1.62-3.24,2.82-4.54,1.2-1.3,2.66-2.29,4.39-2.99,1.73-.7,3.61-1.05,5.63-1.05s4,.34,5.71,1.02c1.71.68,3.16,1.64,4.34,2.87,1.18,1.23,2.1,2.73,2.77,4.51.66,1.78,1,3.75,1,5.91s-.32,4.07-.97,5.83Z"/>
  </g>
  <g>
    <path class="cls-3" d="M23.6,410.17h13.2l4.56,18.39.78,8.78.78-8.78,5-18.39h13.54v31.58h-9.56v-14.26l.97-13.92-1.94,9.95-4.8,18.24h-8.98l-4.61-18.15-1.7-10.04.78,14.02v14.17h-8.01v-31.58Z"/>
    <path class="cls-3" d="M66.35,425.89c0-9.46,5.53-16.3,16.2-16.3s16.16,6.74,16.16,16.2-5.58,16.64-16.3,16.64-16.06-7.23-16.06-16.54ZM88.62,426.27v-1.55c0-6.7-1.8-8.39-6.16-8.39s-6.02,1.8-6.02,8.59v1.5c0,8.01,2.04,9.7,6.11,9.7s6.06-1.94,6.06-9.85Z"/>
    <path class="cls-3" d="M109.44,417.01h-8.54v-6.84h26.64v6.84h-8.54v24.74h-9.56v-24.74Z"/>
    <path class="cls-3" d="M138.26,410.17h9.61l10.92,31.58h-10.09l-1.31-4.37h-11.21l-1.45,4.37h-8.15l11.69-31.58ZM145.73,432l-2.81-9.32-.97-5.48-.97,5.48-3.06,9.32h7.81Z"/>
    <path class="cls-3" d="M162.76,410.17h14.99c6.6,0,11.55,1.8,11.55,8.44,0,4.76-2.72,6.11-6.02,6.89,3.59.63,7.18,2.18,7.18,7.67,0,5.92-3.74,8.59-11.94,8.59h-15.77v-31.58ZM176.74,423.27c2.23,0,3.2-.73,3.2-2.91v-.78c0-2.18-.97-2.91-3.4-2.91h-4.37v6.6h4.56ZM177.08,435.59c2.62,0,3.74-.68,3.74-3.15v-.68c0-2.52-.97-3.35-3.54-3.35h-5.09v7.18h4.9Z"/>
    <path class="cls-3" d="M195.32,410.17h23.09v6.84h-13.68v5.77h11.16v6.4h-11.16v5.92h14.31v6.65h-23.72v-31.58Z"/>
    <path class="cls-3" d="M233.7,410.17h9.61l10.92,31.58h-10.09l-1.31-4.37h-11.21l-1.45,4.37h-8.15l11.69-31.58ZM241.17,432l-2.81-9.32-.97-5.48-.97,5.48-3.06,9.32h7.81Z"/>
  </g>
</svg>