<svg width="168" height="63" viewBox="0 0 168 63" fill="none" xmlns="http://www.w3.org/2000/svg">
<path d="M141.934 13.1025C141.961 12.8215 141.995 12.5181 142.033 12.1809C142.352 9.27923 142.671 6.37752 143.006 3.32072C143.163 1.87773 144.595 0.931472 145.984 1.35178C149.702 2.4801 152.92 4.19056 155.84 6.51013C159.066 9.07244 159.034 9.11515 155.847 11.682C153.541 13.5408 151.208 15.3659 148.938 17.2651C146.973 15.3861 144.588 13.9431 141.936 13.1025H141.934ZM114.391 11.0818C117.484 13.289 120.514 15.5816 123.593 17.8045C126.58 14.7095 130.651 12.6732 135.155 12.327C135.546 9.08593 135.899 5.81785 136.268 2.42166C136.416 1.0506 135.27 -0.120426 133.896 0.00993712C126.14 0.735927 119.619 3.73429 114.126 9.19382C113.418 9.89733 113.49 10.4413 114.389 11.0841L114.391 11.0818ZM163.947 15.8558C163.433 14.9343 162.943 14.287 161.841 15.1501C158.863 17.4854 155.876 19.805 153.109 21.9582C152.952 22.0796 152.806 22.2144 152.671 22.3538C153.847 24.743 154.512 27.4245 154.512 30.2565C154.512 40.1754 146.443 48.2444 136.524 48.2444H133.256C131.833 48.2444 130.676 49.402 130.676 50.8247C130.676 52.3464 129.439 53.5826 127.918 53.5826H124.22C123.339 54.7828 122.456 55.9921 121.557 57.2193C121.089 57.8576 121.253 58.7522 121.91 59.1905C122.245 59.4152 122.562 59.5995 122.903 59.7119C125.652 60.6087 128.387 61.6426 131.21 62.1888C137.738 63.452 144.098 62.6833 150.091 59.7119C159.639 54.9761 165.507 47.3431 167.445 36.8646C168.809 29.4901 167.636 22.4414 163.95 15.8536L163.947 15.8558ZM118.534 49.7773V42.3039C118.534 40.6946 119.183 39.1774 120.314 38.0693C119.08 35.5093 118.469 32.675 118.538 29.8092C118.594 27.4874 119.105 25.2735 119.975 23.2461C117.113 21.0951 114.178 18.9621 110.925 16.5908C110.004 15.9188 108.694 16.3031 108.282 17.3663C107.435 19.551 106.628 21.5267 106.118 23.5765C103.295 34.9046 106.181 44.792 113.989 53.3511C114.888 54.3378 115.538 54.5221 116.443 53.2477C117.142 52.2632 117.857 51.29 118.574 50.3167C118.549 50.1414 118.532 49.9616 118.532 49.7773H118.534Z" fill="#158456"/>
<path fill-rule="evenodd" clip-rule="evenodd" d="M151.999 30.258C151.999 21.7753 145.098 14.8346 136.618 14.7852C136.589 14.7852 136.557 14.7852 136.528 14.7852C128.192 14.7852 121.26 21.5326 121.058 29.8691C120.99 32.6427 121.662 35.3781 123.002 37.7831L123.568 38.799L122.597 39.4418C121.628 40.0847 121.051 41.1523 121.051 42.3031V49.7765C121.051 50.489 121.631 51.0689 122.343 51.0689H127.917C128.052 51.0689 128.16 50.961 128.16 50.8262C128.16 48.0166 130.446 45.7307 133.255 45.7307H136.506C145.056 45.7307 151.999 38.79 151.999 30.258ZM145.123 30.8131C144.851 35.1241 141.394 38.581 137.083 38.8552C136.901 38.8664 136.717 38.8732 136.535 38.8732C134.251 38.8732 132.053 37.9696 130.432 36.3491C128.684 34.6004 127.769 32.1752 127.926 29.6983C128.198 25.3873 131.655 21.9304 135.968 21.6585C138.445 21.5011 140.868 22.4159 142.617 24.1646C144.366 25.9132 145.278 28.3362 145.123 30.8131Z" fill="#158456"/>
<path d="M36.9845 34.5001C36.4118 34.0756 35.751 33.8594 35.0062 33.8594C34.2613 33.8594 33.6166 34.0676 33.0679 34.4801C32.4953 34.9326 32.2109 35.5373 32.2109 36.2982C32.2109 37.0591 32.4953 37.6678 33.0679 38.1363C33.6005 38.5608 34.2453 38.7771 35.0062 38.7771C35.7671 38.7771 36.3958 38.5648 36.9444 38.1363C37.5451 37.6718 37.8415 37.0591 37.8415 36.2982C37.8415 35.5373 37.5531 34.9286 36.9845 34.5001Z" fill="#158456"/>
<path d="M32.1933 21.5376C32.1933 23.1075 31.8409 24.2528 31.1361 24.9736C30.4313 25.6945 29.4982 26.0509 28.3409 26.0509V26.0909H18.7738C17.9368 26.0909 17.1679 25.9427 16.4791 25.6504C15.7983 25.3701 15.2217 24.9776 14.7411 24.473C14.2605 23.9805 13.8881 23.3758 13.6238 22.6549C13.3715 21.9501 13.2434 21.1692 13.2434 20.3202C13.2434 19.4712 13.3715 18.6503 13.6238 17.9455C13.8881 17.2407 14.2645 16.6399 14.7411 16.1474C15.2217 15.6548 15.7983 15.2704 16.4791 14.99C17.1719 14.7257 17.9368 14.5896 18.7738 14.5896V18.3619H24.5044V10.8733C24.132 10.7011 23.7435 10.5409 23.3471 10.3927C21.9615 9.91215 20.4397 9.67188 18.7738 9.67188C17.1078 9.67188 15.5661 9.90414 14.1804 10.3727C12.7948 10.8532 11.6095 11.55 10.6243 12.4711C9.62716 13.3762 8.85427 14.4895 8.30964 15.807C7.74899 17.1245 7.47267 18.6303 7.47267 20.3202C7.47267 22.0102 7.75299 23.544 8.30964 24.8735C8.49786 25.326 8.7101 25.7585 8.95038 26.171C7.85711 26.2911 6.87197 26.5194 5.99495 26.8518C4.64939 27.3724 3.54011 28.0772 2.65908 28.9703C1.78207 29.8753 1.11329 30.9325 0.660766 32.1459C0.220255 33.3553 0 34.6609 0 36.0585C0 37.0036 0.0921071 37.9086 0.280325 38.7736H6.2112C5.8668 37.8966 5.6906 36.9675 5.6906 35.9984C5.6906 35.0293 5.91486 34.0802 6.35938 33.2833C6.80389 32.4863 7.51271 31.8656 8.48584 31.4251C9.11057 31.1448 9.86344 31.0046 10.7405 31.0046H28.3329C28.5211 31.0046 28.6973 30.9806 28.8695 30.9445C31.6047 30.8524 33.7752 30.0475 35.361 28.5177C37.051 26.8878 37.896 24.5611 37.896 21.5376V17.0444H40.2507V12.1307H32.2013L32.1813 21.5376H32.1933Z" fill="#158456"/>
<path d="M60.67 9.03868C61.1906 9.46317 61.8353 9.67942 62.6082 9.67942C63.3811 9.67942 63.9978 9.46717 64.5465 9.03868C65.1312 8.57414 65.4235 7.96143 65.4235 7.20055C65.4235 6.43966 65.1352 5.83096 64.5665 5.40246C63.9938 4.97797 63.3411 4.76172 62.6082 4.76172C61.8754 4.76172 61.2026 4.96996 60.67 5.38243C60.0853 5.83496 59.793 6.43966 59.793 7.20055C59.793 7.96143 60.0853 8.57013 60.67 9.03868Z" fill="#158456"/>
<path d="M53.8614 9.03868C54.382 9.46317 55.0187 9.67942 55.7796 9.67942C56.5405 9.67942 57.1893 9.46717 57.7379 9.03868C58.3226 8.57414 58.6149 7.96143 58.6149 7.20055C58.6149 6.43966 58.3266 5.83096 57.7579 5.40246C57.1853 4.97797 56.5245 4.76172 55.7796 4.76172C55.0348 4.76172 54.394 4.96996 53.8614 5.38243C53.2767 5.83496 52.9844 6.43966 52.9844 7.20055C52.9844 7.96143 53.2767 8.57013 53.8614 9.03868Z" fill="#158456"/>
<path d="M91.5413 15.806C90.9806 14.4885 90.2117 13.3752 89.2266 12.4702C88.2414 11.5531 87.0481 10.8603 85.6504 10.3918C84.2648 9.9112 82.7431 9.67093 81.0771 9.67093C79.4112 9.67093 77.8894 9.9112 76.5038 10.3918C75.1182 10.8843 73.9208 11.5851 72.9077 12.4902C71.9105 13.4073 71.1376 14.5286 70.593 15.8461C70.0323 17.1636 69.756 18.6533 69.756 20.3193V21.817C69.756 23.2146 69.4156 24.2719 68.7388 24.9927C68.058 25.7255 67.121 26.09 65.9236 26.09C64.7262 26.09 63.7851 25.7255 63.1083 24.9927C62.4275 24.2759 62.0911 23.2146 62.0911 21.817V17.0435H64.4459V12.1298H56.3965L56.3765 21.5367C56.3765 23.1065 56.0241 24.2518 55.3193 24.9727C54.6145 25.6935 53.6814 26.0499 52.524 26.0499V26.0699C51.3266 26.0699 50.3856 25.7095 49.7088 24.9927C49.028 24.2598 48.6916 23.1946 48.6916 21.797V4.78125H42.9609V21.7169C42.9609 23.0464 43.1652 24.2879 43.5817 25.4292C43.9941 26.5625 44.6149 27.5396 45.4398 28.3646C46.2528 29.1896 47.2579 29.8343 48.4553 30.3029C49.6407 30.7554 50.9983 30.9836 52.528 30.9836C52.6522 30.9836 52.7683 30.9676 52.8844 30.9516C54.23 30.9196 55.4514 30.7233 56.5407 30.3469C57.5939 29.9745 58.503 29.4499 59.2759 28.7691C59.9967 29.4098 60.8537 29.9224 61.8508 30.3069C63.0082 30.7474 64.3417 30.9796 65.8435 31.0077H65.9436C65.9436 31.0077 65.9556 31.0077 65.9636 31.0077C67.4894 30.9917 68.8349 30.7594 70.0003 30.3109C71.1977 29.8463 72.2109 29.1976 73.0358 28.3726L73.0558 28.3526C74.029 29.1896 75.1783 29.8383 76.5118 30.2908C77.8975 30.7714 79.4192 31.0117 81.0852 31.0117C82.7511 31.0117 84.2729 30.7714 85.6585 30.2908C87.0561 29.8103 88.2495 29.1255 89.2346 28.2324C90.2197 27.3274 90.9926 26.2101 91.5493 24.8766C92.0939 23.547 92.3662 22.0293 92.3662 20.3233C92.3662 18.6173 92.0939 17.1436 91.5493 15.81L91.5413 15.806ZM86.2191 22.658C85.9588 23.3628 85.5904 23.9675 85.1098 24.4761C84.6293 24.9807 84.0486 25.3731 83.3638 25.6535C82.679 25.9338 81.9141 26.0739 81.0771 26.0739C80.2402 26.0739 79.5193 25.9338 78.8386 25.6535C78.1578 25.3731 77.5731 24.9807 77.0805 24.4761C76.5879 23.9715 76.2035 23.3628 75.9312 22.658C75.6589 21.9532 75.5227 21.1723 75.5227 20.3233C75.5227 19.4743 75.6589 18.7174 75.9312 18.0286C76.2035 17.3358 76.5799 16.7311 77.0605 16.2105C77.541 15.6899 78.1257 15.2934 78.8185 15.0131C79.5113 14.7328 80.2642 14.5926 81.0731 14.5926C81.8821 14.5926 82.675 14.7288 83.3598 15.0011C84.0446 15.2734 84.6253 15.6579 85.0978 16.1504C85.5704 16.643 85.9388 17.2437 86.2071 17.9565C86.4714 18.6694 86.6076 19.4583 86.6076 20.3233C86.6076 21.1883 86.4794 21.9532 86.2191 22.658Z" fill="#158456"/>
<path d="M0.00390625 44.6719H5.29004L7.11615 52.0364L7.42852 55.5525L7.74088 52.0364L9.7432 44.6719H15.1655V57.3185H11.337V51.6079L11.7255 46.0335L10.9486 50.0181L9.02637 57.3225H5.4302L3.58406 50.0541L2.90327 46.0335L3.21563 51.648V57.3225H0.00791099V44.6759L0.00390625 44.6719Z" fill="#158456"/>
<path d="M17.1211 50.969C17.1211 47.1806 19.3357 44.4414 23.6086 44.4414C27.8816 44.4414 30.0801 47.1405 30.0801 50.9289C30.0801 54.7173 27.8455 57.5927 23.5526 57.5927C19.2596 57.5927 17.1211 54.6973 17.1211 50.969ZM26.0394 51.1212V50.5004C26.0394 47.8173 25.3186 47.1405 23.5726 47.1405C21.8266 47.1405 21.1618 47.8614 21.1618 50.5805V51.1812C21.1618 54.389 21.9787 55.0657 23.6086 55.0657C25.2385 55.0657 26.0354 54.2888 26.0354 51.1212H26.0394Z" fill="#158456"/>
<path d="M34.3809 47.4111H30.9609V44.6719H41.6293V47.4111H38.2093V57.3185H34.3809V47.4111Z" fill="#158456"/>
<path d="M45.9235 44.6719H49.772L54.145 57.3185H50.1044L49.5798 55.5685H45.0905L44.5099 57.3185H41.2461L45.9275 44.6719H45.9235ZM48.915 53.414L47.7897 49.6817L47.4012 47.4871L47.0128 49.6817L45.7874 53.414H48.915Z" fill="#158456"/>
<path d="M55.7345 44.6719H61.7374C64.3805 44.6719 66.3628 45.3927 66.3628 48.0518C66.3628 49.958 65.2735 50.4986 63.952 50.811C65.3897 51.0633 66.8273 51.684 66.8273 53.8826C66.8273 56.2533 65.3296 57.3225 62.0458 57.3225H55.7305V44.6759L55.7345 44.6719ZM61.333 49.9179C62.226 49.9179 62.6145 49.6256 62.6145 48.7526V48.4402C62.6145 47.5672 62.226 47.2749 61.2529 47.2749H59.5028V49.9179H61.329H61.333ZM61.4691 54.8517C62.5183 54.8517 62.9669 54.5794 62.9669 53.5902V53.3179C62.9669 52.3087 62.5784 51.9763 61.5492 51.9763H59.5109V54.8517H61.4731H61.4691Z" fill="#158456"/>
<path d="M68.7734 44.6719H78.0202V47.4111H72.5418V49.7217H77.011V52.2847H72.5418V54.6555H78.2724V57.3185H68.7734V44.6719Z" fill="#158456"/>
<path d="M84.1423 44.6719H87.9907L92.3638 57.3185H88.3231L87.7985 55.5685H83.3093L82.7286 57.3185H79.4648L84.1463 44.6719H84.1423ZM87.1337 53.414L86.0084 49.6817L85.62 47.4871L85.2315 49.6817L84.0061 53.414H87.1337Z" fill="#158456"/>
</svg>
