<svg xmlns="http://www.w3.org/2000/svg" viewBox="0 0 280.01 442.42"><defs><style>.cls-1{fill:#fff;}.cls-2{fill:#f2f4f4;fill-rule:evenodd;}.cls-3{fill:#f9f9f9;}</style></defs><title>Asset 1</title><g id="Layer_2" data-name="Layer 2"><g id="Layer_1-2" data-name="Layer 1"><path class="cls-1" d="M164.06,58.29c.12-1.25.27-2.6.44-4.1,1.42-12.91,2.84-25.82,4.33-39.42A10.33,10.33,0,0,1,182.08,6a129.92,129.92,0,0,1,43.85,23c14.35,11.4,14.21,11.59,0,23-10.26,8.27-20.64,16.39-30.74,24.84a80.13,80.13,0,0,0-31.15-18.52Zm-122.54-9c13.76,9.82,27.24,20,40.94,29.91A80.07,80.07,0,0,1,133.9,54.84c1.74-14.42,3.31-29,4.95-44.07A9.72,9.72,0,0,0,128.3,0c-34.51,3.23-63.52,16.57-88,40.86-3.15,3.13-2.83,5.55,1.17,8.41ZM262,70.54c-2.29-4.1-4.47-7-9.37-3.14-13.25,10.39-26.54,20.71-38.85,30.29a18.22,18.22,0,0,0-1.95,1.76A79.94,79.94,0,0,1,140,214.64H125.45A11.49,11.49,0,0,0,114,226.12a12.28,12.28,0,0,1-12.27,12.27H85.25c-3.92,5.34-7.85,10.72-11.85,16.18A6.16,6.16,0,0,0,75,263.34a18.26,18.26,0,0,0,4.42,2.32c12.23,4,24.4,8.59,37,11,29,5.62,57.34,2.2,84-11,42.48-21.07,68.59-55,77.21-101.65,6.07-32.81.85-64.17-15.55-93.48ZM60,221.46V188.21a26.34,26.34,0,0,1,7.92-18.84A80.19,80.19,0,0,1,60,132.62a78.74,78.74,0,0,1,6.39-29.2C53.63,93.85,40.57,84.36,26.1,73.81a7.73,7.73,0,0,0-11.76,3.45C10.57,87,7,95.77,4.71,104.89c-12.56,50.4.28,94.39,35,132.47,4,4.39,6.89,5.21,10.92-.46,3.11-4.38,6.29-8.71,9.48-13a17.15,17.15,0,0,1-.19-2.4Z"/><path class="cls-2" d="M208.83,134.62A69,69,0,0,0,140.4,65.78H140c-37.09,0-67.93,30-68.83,67.11a68.93,68.93,0,0,0,8.65,35.21l2.52,4.52L78,175.48a15.26,15.26,0,0,0-6.88,12.73v33.25a5.76,5.76,0,0,0,5.75,5.75h24.8a1.08,1.08,0,0,0,1.08-1.08,22.7,22.7,0,0,1,22.67-22.67H139.9a68.94,68.94,0,0,0,68.93-68.84Zm-30.59,2.47a38.35,38.35,0,0,1-35.77,35.78c-.81,0-1.63.08-2.44.08a38.33,38.33,0,1,1,38.21-35.86Z"/><path class="cls-1" d="M116,384.75a8.09,8.09,0,0,0-4.94-1.6,7.82,7.82,0,0,0-4.84,1.55,5.48,5.48,0,0,0-2.14,4.54,5.63,5.63,0,0,0,2.14,4.59,8.12,8.12,0,0,0,9.68,0,5.51,5.51,0,0,0,2.24-4.59A5.34,5.34,0,0,0,116,384.75Z"/><path class="cls-1" d="M104,352.38q0,5.88-2.64,8.58a9.32,9.32,0,0,1-7,2.69v.1H70.47a14.56,14.56,0,0,1-5.73-1.1,12.45,12.45,0,0,1-4.34-2.94,12.61,12.61,0,0,1-2.79-4.54,17.22,17.22,0,0,1-1-5.83,17.82,17.82,0,0,1,1-5.93,12.89,12.89,0,0,1,2.79-4.49A12.75,12.75,0,0,1,64.74,336a16,16,0,0,1,5.73-1v9.42H84.78v-18.7c-.93-.43-1.9-.83-2.89-1.2a34.63,34.63,0,0,0-11.42-1.8A35.75,35.75,0,0,0,59,324.5a24.61,24.61,0,0,0-8.88,5.24,22.89,22.89,0,0,0-5.78,8.33,28.56,28.56,0,0,0-2.09,11.27,29.36,29.36,0,0,0,2.09,11.37,27.09,27.09,0,0,0,1.6,3.24,30.05,30.05,0,0,0-7.38,1.7,23.3,23.3,0,0,0-8.33,5.29,22.63,22.63,0,0,0-5,7.93,28.35,28.35,0,0,0-1.65,9.77,31.81,31.81,0,0,0,.7,6.78H39.1a18.83,18.83,0,0,1-1.3-6.93,14,14,0,0,1,1.67-6.78,11,11,0,0,1,5.31-4.64A13.7,13.7,0,0,1,50.41,376H94.34a6.47,6.47,0,0,0,1.34-.15c6.83-.23,12.25-2.24,16.21-6.06q6.33-6.1,6.33-17.43V341.16h5.88V328.89H104l0,23.49Z"/><path class="cls-1" d="M175.09,321.17a7.41,7.41,0,0,0,4.84,1.6,7.49,7.49,0,0,0,4.84-1.6,5.58,5.58,0,0,0,2.19-4.59,5.34,5.34,0,0,0-2.14-4.49,8,8,0,0,0-4.89-1.6,7.8,7.8,0,0,0-4.84,1.55,5.44,5.44,0,0,0-2.19,4.54A5.59,5.59,0,0,0,175.09,321.17Z"/><path class="cls-1" d="M158.09,321.17a7.33,7.33,0,0,0,4.79,1.6,7.68,7.68,0,0,0,4.89-1.6,5.58,5.58,0,0,0,2.19-4.59,5.34,5.34,0,0,0-2.14-4.49,8.09,8.09,0,0,0-4.94-1.6,7.6,7.6,0,0,0-4.79,1.55,5.44,5.44,0,0,0-2.19,4.54A5.59,5.59,0,0,0,158.09,321.17Z"/><path class="cls-1" d="M252.18,338.07a23.77,23.77,0,0,0-5.78-8.33,24.2,24.2,0,0,0-8.93-5.19,37.13,37.13,0,0,0-22.84,0,26.77,26.77,0,0,0-9,5.24,23.34,23.34,0,0,0-5.78,8.38,28.27,28.27,0,0,0-2.09,11.17v3.74q0,5.24-2.54,7.93a10.39,10.39,0,0,1-14.06,0c-1.7-1.79-2.54-4.44-2.54-7.93V341.16h5.88V328.89h-20.1l0,23.49q0,5.88-2.64,8.58a9.32,9.32,0,0,1-7,2.69v.05a9.21,9.21,0,0,1-7-2.69c-1.7-1.83-2.54-4.49-2.54-8V310.54H130.87v42.29a26.88,26.88,0,0,0,1.55,9.27,19.8,19.8,0,0,0,4.64,7.33,21.29,21.29,0,0,0,7.53,4.84,28.38,28.38,0,0,0,10.17,1.7,6.4,6.4,0,0,0,.89-.08,30.09,30.09,0,0,0,9.13-1.51,20.56,20.56,0,0,0,6.83-3.94,20.85,20.85,0,0,0,6.43,3.84A29.51,29.51,0,0,0,188,376h.3a28.8,28.8,0,0,0,10.08-1.74,21.64,21.64,0,0,0,7.58-4.84l.05-.05a25.77,25.77,0,0,0,8.63,4.84,37.13,37.13,0,0,0,22.84,0,25.41,25.41,0,0,0,8.93-5.14,23.48,23.48,0,0,0,5.78-8.38,29.79,29.79,0,0,0,2-11.37,29.3,29.3,0,0,0-2-11.27Zm-13.29,17.11a13.14,13.14,0,0,1-2.77,4.54,12.44,12.44,0,0,1-4.36,2.94,15,15,0,0,1-5.71,1,14.32,14.32,0,0,1-5.59-1,12.94,12.94,0,0,1-4.39-2.94,13.27,13.27,0,0,1-2.87-4.54,16.08,16.08,0,0,1-1-5.83,15.39,15.39,0,0,1,1-5.73,14.36,14.36,0,0,1,2.82-4.54,12,12,0,0,1,4.39-3,14.88,14.88,0,0,1,5.63-1,15.62,15.62,0,0,1,5.71,1,12.15,12.15,0,0,1,4.34,2.87,13.05,13.05,0,0,1,2.77,4.51,16.89,16.89,0,0,1,1,5.91,16.58,16.58,0,0,1-1,5.83Z"/><path class="cls-3" d="M23.6,410.16H36.8l4.56,18.39.78,8.78.78-8.78,5-18.39H61.46v31.58H51.9V427.48l1-13.92-1.94,9.95-4.8,18.24h-9L32.54,423.6l-1.7-10,.78,14v14.17h-8V410.17Z"/><path class="cls-3" d="M66.35,425.88c0-9.46,5.53-16.3,16.2-16.3s16.16,6.74,16.16,16.2-5.58,16.64-16.3,16.64-16.06-7.23-16.06-16.54Zm22.27.38v-1.55c0-6.7-1.8-8.39-6.16-8.39s-6,1.8-6,8.59v1.5c0,8,2,9.7,6.11,9.7s6.06-1.94,6.06-9.85Z"/><path class="cls-3" d="M109.44,417H100.9v-6.84h26.64V417H119v24.74h-9.56Z"/><path class="cls-3" d="M138.26,410.16h9.61l10.92,31.58H148.7l-1.31-4.37H136.18l-1.45,4.37h-8.15l11.69-31.58ZM145.73,432l-2.81-9.32-1-5.48-1,5.48L137.92,432Z"/><path class="cls-3" d="M162.76,410.16h15c6.6,0,11.55,1.8,11.55,8.44,0,4.76-2.72,6.11-6,6.89,3.59.63,7.18,2.18,7.18,7.67,0,5.92-3.74,8.59-11.94,8.59H162.75V410.17Zm14,13.1c2.23,0,3.2-.73,3.2-2.91v-.78c0-2.18-1-2.91-3.4-2.91h-4.37v6.6h4.57Zm.34,12.32c2.62,0,3.74-.68,3.74-3.15v-.68c0-2.52-1-3.35-3.54-3.35h-5.09v7.18h4.89Z"/><path class="cls-3" d="M195.32,410.16h23.09V417H204.73v5.77h11.16v6.4H204.73v5.92H219v6.65H195.32Z"/><path class="cls-3" d="M233.7,410.16h9.61l10.92,31.58H244.14l-1.31-4.37H231.62l-1.45,4.37H222l11.69-31.58ZM241.17,432l-2.81-9.32-1-5.48-1,5.48L233.36,432Z"/></g></g></svg>