<svg width="18" height="18" viewBox="0 0 18 18" fill="none" xmlns="http://www.w3.org/2000/svg">
<path d="M10.1311 5.75205L11.1328 6.75379L9.37977 8.50682C8.96484 8.92176 8.96484 9.59449 9.37977 10.0094C9.7947 10.4244 10.4674 10.4244 10.8824 10.0094L13.3867 7.50509C14.3549 6.53692 14.3549 4.96719 13.3867 3.99902C12.4185 3.03085 10.8488 3.03085 9.88064 3.99902L4.87196 9.00769C3.90379 9.97586 3.90379 11.5456 4.87196 12.5138L5.1224 12.7642C5.95226 13.5941 7.29774 13.5941 8.1276 12.7642L9.12934 13.7659C7.74623 15.149 5.50377 15.149 4.12066 13.7659L3.87023 13.5155C2.34881 11.9941 2.34881 9.52737 3.87023 8.00596L8.8789 2.99729C10.4003 1.47587 12.867 1.47587 14.3884 2.99729C15.9099 4.5187 15.9099 6.98541 14.3884 8.50682L11.8841 11.0112C10.9159 11.9793 9.34621 11.9793 8.37803 11.0112C7.40986 10.043 7.40986 8.47326 8.37803 7.50509L10.1311 5.75205Z" fill="#181C32"/>
</svg>
