<svg xmlns="http://www.w3.org/2000/svg" width="18" height="17" viewBox="0 0 18 17" fill="none">
  <path d="M9.455 16.3129C9.46054 16.3075 9.46599 16.3021 9.47136 16.2964L16.8047 8.96311C17.065 8.70294 17.0651 8.28098 16.8049 8.02064C16.8049 8.02056 16.8049 8.02073 16.8049 8.02064L9.47136 0.687143C9.20655 0.431365 8.78451 0.438689 8.52873 0.703501C8.27922 0.961883 8.27922 1.37147 8.52873 1.62977L14.724 7.82517H1.66667C1.2985 7.82517 1 8.12367 1 8.49184C1 8.86 1.2985 9.1585 1.66667 9.1585H14.724L8.52865 15.3538C8.26384 15.6096 8.25651 16.0316 8.51229 16.2964C8.76807 16.5613 9.19019 16.5687 9.455 16.3129Z" fill="#FBFBFB"/>
  <path d="M16.8049 8.02064C17.0651 8.28098 17.065 8.70294 16.8047 8.96311L9.47136 16.2964C9.46599 16.3021 9.46054 16.3075 9.455 16.3129C9.19019 16.5687 8.76807 16.5613 8.51229 16.2964C8.25651 16.0316 8.26384 15.6096 8.52865 15.3538L14.724 9.1585H1.66667C1.2985 9.1585 1 8.86 1 8.49184C1 8.12367 1.2985 7.82517 1.66667 7.82517H14.724L8.52873 1.62977C8.27922 1.37147 8.27922 0.961883 8.52873 0.703501C8.78451 0.438689 9.20655 0.431365 9.47136 0.687143L16.8049 8.02064ZM16.8049 8.02064C16.8049 8.02056 16.8049 8.02073 16.8049 8.02064Z" stroke="#FBFBFB" stroke-width="0.6"/>
</svg>