<svg xmlns="http://www.w3.org/2000/svg" width="108" height="40" viewBox="0 0 108 40" fill="none">
  <path d="M90.7773 8.34915C90.7945 8.17012 90.816 7.97676 90.8403 7.76193C91.0437 5.9129 91.2471 4.06388 91.4605 2.11603C91.5608 1.19653 92.4731 0.593552 93.3582 0.861381C95.7272 1.58037 97.7781 2.6703 99.6386 4.14838C101.694 5.78114 101.674 5.80835 99.6429 7.44397C98.1734 8.62844 96.6868 9.79142 95.2402 11.0017C93.9884 9.80431 92.4688 8.88481 90.7788 8.34915H90.7773ZM73.2266 7.06156C75.1974 8.46802 77.1281 9.92891 79.0902 11.3454C80.9937 9.3732 83.5875 8.07559 86.4577 7.85502C86.7069 5.78973 86.9318 3.70725 87.1666 1.54313C87.2612 0.669461 86.5307 -0.076738 85.6556 0.00633213C80.713 0.468947 76.558 2.37956 73.0576 5.85848C72.6065 6.30677 72.6523 6.65337 73.2252 7.06299L73.2266 7.06156ZM104.805 10.1036C104.477 9.51643 104.165 9.10394 103.463 9.65392C101.565 11.142 99.6615 12.6201 97.8984 13.9922C97.7982 14.0695 97.7051 14.1555 97.6192 14.2443C98.3682 15.7667 98.7922 17.4754 98.7922 19.28C98.7922 25.6005 93.6504 30.7423 87.3299 30.7423H85.2474C84.3408 30.7423 83.6032 31.4799 83.6032 32.3865C83.6032 33.3561 82.8155 34.1438 81.8459 34.1438H79.4898C78.9284 34.9087 78.3655 35.6792 77.7926 36.4612C77.4947 36.868 77.5993 37.438 78.0175 37.7173C78.2309 37.8605 78.4328 37.978 78.6505 38.0496C80.4022 38.621 82.1452 39.2799 83.9441 39.6279C88.1033 40.4328 92.1566 39.943 95.9749 38.0496C102.059 35.0318 105.799 30.1679 107.033 23.4908C107.903 18.7916 107.155 14.3001 104.806 10.1022L104.805 10.1036ZM75.8662 31.7191V26.9569C75.8662 25.9314 76.2802 24.9646 77.0006 24.2585C76.2143 22.6272 75.8247 20.8211 75.8691 18.995C75.9049 17.5155 76.23 16.1047 76.7843 14.8129C74.9611 13.4422 73.0906 12.083 71.0181 10.572C70.4309 10.1437 69.5959 10.3887 69.3338 11.0661C68.7938 12.4583 68.2797 13.7172 67.9545 15.0234C66.1556 22.2419 67.9946 28.5423 72.9703 33.9963C73.5431 34.6251 73.9571 34.7425 74.5343 33.9304C74.9797 33.3031 75.4351 32.683 75.892 32.0628C75.8763 31.9511 75.8648 31.8365 75.8648 31.7191H75.8662Z" fill="#FBFBFB"/>
  <path fill-rule="evenodd" clip-rule="evenodd" d="M97.1896 19.2814C97.1896 13.8762 92.7926 9.45338 87.3888 9.42188C87.3701 9.42188 87.3501 9.42188 87.3315 9.42188C82.0193 9.42188 77.6022 13.7215 77.4733 19.0337C77.4304 20.801 77.8586 22.5441 78.7122 24.0766L79.0732 24.724L78.4544 25.1336C77.8371 25.5432 77.469 26.2235 77.469 26.9568V31.719C77.469 32.1731 77.8386 32.5426 78.2926 32.5426H81.8445C81.9305 32.5426 81.9992 32.4738 81.9992 32.3879C81.9992 30.5976 83.4558 29.141 85.2461 29.141H87.3171C92.7654 29.141 97.1896 24.7182 97.1896 19.2814ZM92.8084 19.6352C92.6351 22.3822 90.4323 24.585 87.6852 24.7598C87.5692 24.7669 87.4518 24.7712 87.3358 24.7712C85.8806 24.7712 84.4799 24.1955 83.4472 23.1628C82.3329 22.0485 81.75 20.5031 81.8503 18.9248C82.0236 16.1778 84.2264 13.975 86.9748 13.8017C88.5532 13.7014 90.0971 14.2843 91.2114 15.3986C92.3257 16.5129 92.9072 18.0569 92.8084 19.6352Z" fill="#FBFBFB"/>
  <path d="M23.9013 21.983C23.5364 21.7125 23.1154 21.5747 22.6407 21.5747C22.1661 21.5747 21.7552 21.7074 21.4056 21.9702C21.0407 22.2586 20.8595 22.6439 20.8595 23.1288C20.8595 23.6136 21.0407 24.0015 21.4056 24.3001C21.745 24.5706 22.1559 24.7084 22.6407 24.7084C23.1256 24.7084 23.5262 24.5731 23.8758 24.3001C24.2586 24.0041 24.4474 23.6136 24.4474 23.1288C24.4474 22.6439 24.2637 22.256 23.9013 21.983Z" fill="#FBFBFB"/>
  <path d="M20.8475 13.7227C20.8475 14.723 20.623 15.4529 20.1739 15.9122C19.7247 16.3715 19.1302 16.5986 18.3927 16.5986V16.6241H12.2963C11.763 16.6241 11.273 16.5297 10.8341 16.3434C10.4003 16.1648 10.0329 15.9147 9.72664 15.5932C9.42042 15.2793 9.18309 14.894 9.01467 14.4347C8.85391 13.9855 8.77225 13.4879 8.77225 12.947C8.77225 12.406 8.85391 11.8828 9.01467 11.4337C9.18309 10.9846 9.42297 10.6018 9.72664 10.2879C10.0329 9.97406 10.4003 9.72909 10.8341 9.55046C11.2756 9.38204 11.763 9.29528 12.2963 9.29528V11.6991H15.948V6.92717C15.7107 6.81744 15.4632 6.71537 15.2105 6.62095C14.3276 6.31473 13.3579 6.16162 12.2963 6.16162C11.2348 6.16162 10.2523 6.30963 9.36938 6.60819C8.48644 6.91441 7.7311 7.35843 7.10335 7.94535C6.46794 8.52207 5.97544 9.23147 5.62839 10.071C5.27113 10.9106 5.09505 11.8701 5.09505 12.947C5.09505 14.0238 5.27368 15.0012 5.62839 15.8484C5.74832 16.1367 5.88357 16.4123 6.03668 16.6752C5.34003 16.7517 4.71228 16.8972 4.15343 17.109C3.29601 17.4407 2.58915 17.8899 2.02775 18.4589C1.46889 19.0356 1.04274 19.7093 0.754381 20.4825C0.473679 21.2532 0.333328 22.0851 0.333328 22.9757C0.333328 23.5779 0.392021 24.1546 0.511957 24.7058H4.29123C4.07177 24.147 3.95949 23.5549 3.95949 22.9374C3.95949 22.3198 4.10239 21.7151 4.38564 21.2072C4.6689 20.6994 5.12057 20.3039 5.74067 20.0232C6.13875 19.8446 6.6185 19.7552 7.17735 19.7552H18.3876C18.5075 19.7552 18.6198 19.7399 18.7295 19.717C20.4724 19.6583 21.8555 19.1454 22.866 18.1706C23.9429 17.132 24.4814 15.6493 24.4814 13.7227V10.8596H25.9818V7.72844H20.8526L20.8399 13.7227H20.8475Z" fill="#FBFBFB"/>
  <path d="M38.9931 5.75856C39.3248 6.02906 39.7357 6.16686 40.2282 6.16686C40.7207 6.16686 41.1137 6.03161 41.4633 5.75856C41.8358 5.46255 42.0221 5.07212 42.0221 4.58727C42.0221 4.10242 41.8384 3.71454 41.476 3.4415C41.1111 3.171 40.6952 3.0332 40.2282 3.0332C39.7612 3.0332 39.3325 3.1659 38.9931 3.42873C38.6205 3.71709 38.4342 4.10242 38.4342 4.58727C38.4342 5.07212 38.6205 5.46 38.9931 5.75856Z" fill="#FBFBFB"/>
  <path d="M34.6554 5.75856C34.9871 6.02906 35.3929 6.16686 35.8777 6.16686C36.3626 6.16686 36.776 6.03161 37.1256 5.75856C37.4981 5.46255 37.6844 5.07212 37.6844 4.58727C37.6844 4.10242 37.5007 3.71454 37.1383 3.4415C36.7734 3.171 36.3524 3.0332 35.8777 3.0332C35.4031 3.0332 34.9948 3.1659 34.6554 3.42873C34.2828 3.71709 34.0965 4.10242 34.0965 4.58727C34.0965 5.07212 34.2828 5.46 34.6554 5.75856Z" fill="#FBFBFB"/>
  <path d="M58.6653 10.0716C58.3081 9.23204 57.8181 8.52263 57.1904 7.94591C56.5626 7.36154 55.8022 6.92008 54.9116 6.62151C54.0287 6.31529 53.059 6.16218 51.9974 6.16218C50.9358 6.16218 49.9661 6.31529 49.0832 6.62151C48.2003 6.93539 47.4373 7.38196 46.7916 7.95867C46.1562 8.54304 45.6637 9.25756 45.3167 10.0971C44.9594 10.9367 44.7833 11.886 44.7833 12.9475V13.9019C44.7833 14.7925 44.5664 15.4662 44.1352 15.9255C43.7014 16.3925 43.1042 16.6247 42.3412 16.6247C41.5782 16.6247 40.9786 16.3925 40.5473 15.9255C40.1135 15.4687 39.8991 14.7925 39.8991 13.9019V10.8601H41.3996V7.72901H36.2704L36.2577 13.7233C36.2577 14.7236 36.0331 15.4534 35.584 15.9127C35.1349 16.3721 34.5403 16.5992 33.8028 16.5992V16.6119C33.0398 16.6119 32.4401 16.3823 32.0089 15.9255C31.575 15.4585 31.3607 14.7797 31.3607 13.8891V3.04639H27.709V13.8381C27.709 14.6853 27.8392 15.4764 28.1046 16.2037C28.3674 16.9258 28.7629 17.5485 29.2886 18.0742C29.8066 18.5998 30.4471 19.0107 31.2101 19.3092C31.9655 19.5976 32.8305 19.7431 33.8054 19.7431C33.8845 19.7431 33.9585 19.7328 34.0325 19.7226C34.8899 19.7022 35.6682 19.5772 36.3623 19.3373C37.0334 19.1 37.6127 18.7657 38.1052 18.3319C38.5645 18.7402 39.1106 19.0668 39.746 19.3118C40.4835 19.5925 41.3333 19.7405 42.2902 19.7584H42.354C42.354 19.7584 42.3617 19.7584 42.3668 19.7584C43.339 19.7482 44.1964 19.6001 44.939 19.3143C45.702 19.0183 46.3476 18.6049 46.8733 18.0793L46.8861 18.0665C47.5062 18.5998 48.2385 19.0132 49.0883 19.3016C49.9712 19.6078 50.9409 19.7609 52.0025 19.7609C53.0641 19.7609 54.0338 19.6078 54.9167 19.3016C55.8073 18.9954 56.5677 18.559 57.1955 17.9899C57.8232 17.4132 58.3157 16.7013 58.6704 15.8515C59.0175 15.0043 59.191 14.0371 59.191 12.9501C59.191 11.863 59.0175 10.9239 58.6704 10.0741L58.6653 10.0716ZM55.2739 14.4378C55.1081 14.8869 54.8733 15.2722 54.5671 15.5963C54.2609 15.9179 53.8909 16.1679 53.4545 16.3466C53.0181 16.5252 52.5307 16.6145 51.9974 16.6145C51.4641 16.6145 51.0047 16.5252 50.5709 16.3466C50.1371 16.1679 49.7645 15.9179 49.4507 15.5963C49.1368 15.2748 48.8918 14.8869 48.7183 14.4378C48.5448 13.9887 48.458 13.491 48.458 12.9501C48.458 12.4091 48.5448 11.9268 48.7183 11.4879C48.8918 11.0464 49.1317 10.6611 49.4379 10.3293C49.7441 9.99759 50.1167 9.74496 50.5582 9.56633C50.9996 9.3877 51.4794 9.29838 51.9948 9.29838C52.5103 9.29838 53.0156 9.38515 53.4519 9.55868C53.8883 9.7322 54.2583 9.97718 54.5594 10.2911C54.8605 10.6049 55.0953 10.9877 55.2663 11.4419C55.4347 11.8962 55.5215 12.3989 55.5215 12.9501C55.5215 13.5013 55.4398 13.9887 55.2739 14.4378Z" fill="#FBFBFB"/>
  <path d="M0.336121 28.4668H3.70454L4.86818 33.1596L5.06722 35.4001L5.26627 33.1596L6.54219 28.4668H9.99737V36.5255H7.55782V32.8866L7.80534 29.3344L7.31029 31.8735L6.08541 36.528H3.79386L2.61746 31.8965L2.18365 29.3344L2.38269 32.9121V36.528H0.338672V28.4693L0.336121 28.4668Z" fill="#FBFBFB"/>
  <path d="M11.2443 32.4783C11.2443 30.0643 12.6555 28.3188 15.3783 28.3188C18.1011 28.3188 19.502 30.0388 19.502 32.4528C19.502 34.8669 18.0781 36.6991 15.3426 36.6991C12.607 36.6991 11.2443 34.8541 11.2443 32.4783ZM16.9272 32.5753V32.1798C16.9272 30.47 16.4679 30.0388 15.3553 30.0388C14.2427 30.0388 13.8191 30.4981 13.8191 32.2308V32.6136C13.8191 34.6576 14.3397 35.0889 15.3783 35.0889C16.4169 35.0889 16.9247 34.5938 16.9247 32.5753H16.9272Z" fill="#FBFBFB"/>
  <path d="M22.2412 30.2123H20.0619V28.4668H26.86V30.2123H24.6807V36.5255H22.2412V30.2123Z" fill="#FBFBFB"/>
  <path d="M29.5958 28.4668H32.0481L34.8347 36.5255H32.2599L31.9256 35.4103H29.065L28.695 36.5255H26.6153L29.5984 28.4668H29.5958ZM31.502 34.0375L30.785 31.6591L30.5374 30.2607L30.2899 31.6591L29.509 34.0375H31.502Z" fill="#FBFBFB"/>
  <path d="M35.8475 28.4668H39.6727C41.3569 28.4668 42.62 28.9261 42.62 30.6205C42.62 31.8352 41.9259 32.1797 41.0838 32.3788C41.9999 32.5395 42.916 32.9351 42.916 34.336C42.916 35.8467 41.9617 36.528 39.8692 36.528H35.8449V28.4693L35.8475 28.4668ZM39.4149 31.8097C39.984 31.8097 40.2315 31.6234 40.2315 31.0671V30.8681C40.2315 30.3118 39.984 30.1255 39.3639 30.1255H38.2487V31.8097H39.4124H39.4149ZM39.5017 34.9536C40.1703 34.9536 40.4561 34.78 40.4561 34.1497V33.9762C40.4561 33.3331 40.2085 33.1213 39.5527 33.1213H38.2538V34.9536H39.5042H39.5017Z" fill="#FBFBFB"/>
  <path d="M44.157 28.4668H50.0492V30.2123H46.5583V31.6847H49.4061V33.3178H46.5583V34.8285H50.2099V36.5255H44.157V28.4668Z" fill="#FBFBFB"/>
  <path d="M53.9502 28.4668H56.4025L59.1891 36.5255H56.6143L56.2801 35.4103H53.4194L53.0494 36.5255H50.9697L53.9528 28.4668H53.9502ZM55.8564 34.0375L55.1394 31.6591L54.8919 30.2607L54.6443 31.6591L53.8635 34.0375H55.8564Z" fill="#FBFBFB"/>
</svg>