<svg xmlns="http://www.w3.org/2000/svg" width="22" height="22" viewBox="0 0 22 22" fill="none">
  <path d="M11.0508 21C16.5736 21 21.0508 16.5228 21.0508 11C21.0508 5.47715 16.5736 1 11.0508 1C5.52793 1 1.05078 5.47715 1.05078 11C1.05078 16.5228 5.52793 21 11.0508 21Z" stroke="#333333" stroke-width="1.4" stroke-linecap="round" stroke-linejoin="round"/>
  <path d="M11.051 21C13.0458 21 14.663 16.5228 14.663 11C14.663 5.47715 13.0458 1 11.051 1C9.05611 1 7.43896 5.47715 7.43896 11C7.43896 16.5228 9.05611 21 11.051 21Z" stroke="#333333" stroke-width="1.4" stroke-linecap="round" stroke-linejoin="round"/>
  <path d="M1.68701 7.79602H20.369" stroke="#333333" stroke-width="1.4" stroke-linecap="round" stroke-linejoin="round"/>
  <path d="M1.68701 14.204H20.369" stroke="#333333" stroke-width="1.4" stroke-linecap="round" stroke-linejoin="round"/>
</svg>