<svg width="22" height="22" viewBox="0 0 22 22" fill="none" xmlns="http://www.w3.org/2000/svg">
<path d="M11.0508 21C16.5736 21 21.0508 16.5228 21.0508 11C21.0508 5.47715 16.5736 1 11.0508 1C5.52793 1 1.05078 5.47715 1.05078 11C1.05078 16.5228 5.52793 21 11.0508 21Z" stroke="white" stroke-width="1.4" stroke-linecap="round" stroke-linejoin="round"/>
<path d="M11.0508 21C13.0456 21 14.6628 16.5228 14.6628 11C14.6628 5.47715 13.0456 1 11.0508 1C9.05593 1 7.43878 5.47715 7.43878 11C7.43878 16.5228 9.05593 21 11.0508 21Z" stroke="white" stroke-width="1.4" stroke-linecap="round" stroke-linejoin="round"/>
<path d="M1.68677 7.79602H20.3688" stroke="white" stroke-width="1.4" stroke-linecap="round" stroke-linejoin="round"/>
<path d="M1.68677 14.204H20.3688" stroke="white" stroke-width="1.4" stroke-linecap="round" stroke-linejoin="round"/>
</svg>
