<svg width="59" height="34" viewBox="0 0 59 34" fill="none" xmlns="http://www.w3.org/2000/svg">
<path d="M23.568 18.9829C23.2031 18.7124 22.782 18.5746 22.3074 18.5746C21.8327 18.5746 21.4219 18.7073 21.0723 18.9702C20.7074 19.2585 20.5262 19.6439 20.5262 20.1287C20.5262 20.6136 20.7074 21.0014 21.0723 21.3C21.4117 21.5705 21.8225 21.7083 22.3074 21.7083C22.7922 21.7083 23.1929 21.5731 23.5425 21.3C23.9252 21.004 24.1141 20.6136 24.1141 20.1287C24.1141 19.6439 23.9304 19.256 23.568 18.9829Z" fill="#FBFBFB"/>
<path d="M20.5142 10.7227C20.5142 11.723 20.2896 12.4528 19.8405 12.9121C19.3914 13.3715 18.7968 13.5986 18.0593 13.5986V13.6241H11.963C11.4297 13.6241 10.9397 13.5297 10.5008 13.3434C10.067 13.1648 9.69953 12.9147 9.39331 12.5931C9.08709 12.2793 8.84977 11.8939 8.68134 11.4346C8.52058 10.9855 8.43892 10.4879 8.43892 9.94689C8.43892 9.4059 8.52058 8.88278 8.68134 8.43365C8.84977 7.98453 9.08964 7.60175 9.39331 7.28787C9.69953 6.974 10.067 6.72903 10.5008 6.5504C10.9423 6.38198 11.4297 6.29521 11.963 6.29521V8.69904H15.6147V3.92711C15.3774 3.81738 15.1298 3.71531 14.8772 3.62089C13.9943 3.31467 13.0246 3.16156 11.963 3.16156C10.9014 3.16156 9.91899 3.30957 9.03605 3.60813C8.15312 3.91435 7.39777 4.35837 6.77002 4.94529C6.13461 5.52201 5.64211 6.23141 5.29506 7.07097C4.9378 7.91052 4.76173 8.87002 4.76173 9.94689C4.76173 11.0238 4.94035 12.0011 5.29506 12.8483C5.415 13.1367 5.55024 13.4123 5.70335 13.6751C5.0067 13.7517 4.37895 13.8971 3.8201 14.1089C2.96268 14.4407 2.25582 14.8898 1.69442 15.4589C1.13557 16.0356 0.70941 16.7093 0.421053 17.4825C0.140351 18.2531 0 19.085 0 19.9756C0 20.5778 0.0586924 21.1546 0.178629 21.7057H3.9579C3.73844 21.1469 3.62616 20.5549 3.62616 19.9373C3.62616 19.3198 3.76906 18.715 4.05232 18.2072C4.33557 17.6994 4.78724 17.3038 5.40734 17.0231C5.80543 16.8445 6.28517 16.7552 6.84402 16.7552H18.0542C18.1742 16.7552 18.2865 16.7399 18.3962 16.7169C20.1391 16.6582 21.5222 16.1453 22.5327 15.1705C23.6096 14.1319 24.148 12.6493 24.148 10.7227V7.85949H25.6485V4.72838H20.5193L20.5066 10.7227H20.5142Z" fill="#FBFBFB"/>
<path d="M38.6598 2.75838C38.9915 3.02887 39.4024 3.16667 39.8949 3.16667C40.3874 3.16667 40.7803 3.03143 41.1299 2.75838C41.5025 2.46237 41.6888 2.07194 41.6888 1.58709C41.6888 1.10224 41.5051 0.714362 41.1427 0.441315C40.7778 0.170821 40.3618 0.03302 39.8949 0.03302C39.4279 0.03302 38.9992 0.165712 38.6598 0.428551C38.2872 0.716909 38.1009 1.10224 38.1009 1.58709C38.1009 2.07194 38.2872 2.45981 38.6598 2.75838Z" fill="#FBFBFB"/>
<path d="M34.3221 2.75838C34.6538 3.02887 35.0595 3.16667 35.5444 3.16667C36.0292 3.16667 36.4426 3.03143 36.7922 2.75838C37.1648 2.46237 37.3511 2.07194 37.3511 1.58709C37.3511 1.10224 37.1674 0.714362 36.805 0.441315C36.4401 0.170821 36.019 0.03302 35.5444 0.03302C35.0697 0.03302 34.6614 0.165712 34.3221 0.428551C33.9495 0.716909 33.7632 1.10224 33.7632 1.58709C33.7632 2.07194 33.9495 2.45981 34.3221 2.75838Z" fill="#FBFBFB"/>
<path d="M58.332 7.07141C57.9747 6.23185 57.4848 5.52245 56.857 4.94573C56.2293 4.36136 55.4688 3.91989 54.5783 3.62133C53.6953 3.31511 52.7256 3.162 51.6641 3.162C50.6025 3.162 49.6328 3.31511 48.7499 3.62133C47.8669 3.9352 47.1039 4.38177 46.4583 4.95849C45.8229 5.54286 45.3304 6.25737 44.9834 7.09693C44.6261 7.93648 44.45 8.88577 44.45 9.94733V10.9017C44.45 11.7923 44.2331 12.466 43.8019 12.9253C43.368 13.3923 42.7709 13.6245 42.0079 13.6245C41.2449 13.6245 40.6452 13.3923 40.214 12.9253C39.7802 12.4685 39.5658 11.7923 39.5658 10.9017V7.85993H41.0663V4.72882H35.9371L35.9243 10.7231C35.9243 11.7234 35.6998 12.4532 35.2507 12.9126C34.8015 13.3719 34.207 13.599 33.4695 13.599V13.6118C32.7065 13.6118 32.1068 13.3821 31.6755 12.9253C31.2417 12.4583 31.0274 11.7795 31.0274 10.889V0.0462036H27.3757V10.8379C27.3757 11.6851 27.5058 12.4762 27.7712 13.2035C28.0341 13.9256 28.4296 14.5483 28.9553 15.074C29.4733 15.5996 30.1138 16.0105 30.8768 16.3091C31.6321 16.5974 32.4972 16.7429 33.472 16.7429C33.5511 16.7429 33.6251 16.7327 33.6991 16.7225C34.5566 16.702 35.3349 16.577 36.029 16.3371C36.7001 16.0998 37.2794 15.7655 37.7719 15.3317C38.2312 15.74 38.7773 16.0666 39.4127 16.3116C40.1502 16.5923 40.9999 16.7403 41.9569 16.7582H42.0207C42.0207 16.7582 42.0283 16.7582 42.0334 16.7582C43.0057 16.748 43.8631 16.6 44.6057 16.3142C45.3687 16.0181 46.0143 15.6047 46.54 15.0791L46.5527 15.0663C47.1728 15.5996 47.9052 16.013 48.755 16.3014C49.6379 16.6076 50.6076 16.7607 51.6692 16.7607C52.7307 16.7607 53.7004 16.6076 54.5834 16.3014C55.474 15.9952 56.2344 15.5588 56.8622 14.9898C57.4899 14.413 57.9824 13.7011 58.3371 12.8513C58.6842 12.0041 58.8577 11.037 58.8577 9.94988C58.8577 8.8628 58.6842 7.92372 58.3371 7.07396L58.332 7.07141ZM54.9406 11.4376C54.7747 11.8867 54.54 12.2721 54.2338 12.5961C53.9275 12.9177 53.5575 13.1677 53.1212 13.3464C52.6848 13.525 52.1974 13.6143 51.6641 13.6143C51.1307 13.6143 50.6714 13.525 50.2376 13.3464C49.8038 13.1677 49.4312 12.9177 49.1173 12.5961C48.8035 12.2746 48.5585 11.8867 48.385 11.4376C48.2114 10.9885 48.1247 10.4909 48.1247 9.94988C48.1247 9.40889 48.2114 8.9266 48.385 8.48768C48.5585 8.04621 48.7983 7.66088 49.1046 7.32914C49.4108 6.99741 49.7834 6.74478 50.2248 6.56615C50.6663 6.38752 51.146 6.2982 51.6615 6.2982C52.177 6.2982 52.6822 6.38497 53.1186 6.55849C53.555 6.73202 53.925 6.97699 54.2261 7.29087C54.5272 7.60474 54.762 7.98752 54.933 8.44175C55.1014 8.89598 55.1881 9.39868 55.1881 9.94988C55.1881 10.5011 55.1065 10.9885 54.9406 11.4376Z" fill="#FBFBFB"/>
<path d="M0.00279236 25.4669H3.37122L4.53485 30.1597L4.7339 32.4003L4.93294 30.1597L6.20886 25.4669H9.66404V33.5256H7.22449V29.8867L7.47202 26.3345L6.97696 28.8736L5.75208 33.5282H3.46053L2.28413 28.8966L1.85032 26.3345L2.04937 29.9122V33.5282H0.00534425V25.4695L0.00279236 25.4669Z" fill="#FBFBFB"/>
<path d="M10.911 29.4783C10.911 27.0642 12.3221 25.3188 15.0449 25.3188C17.7678 25.3188 19.1687 27.0387 19.1687 29.4528C19.1687 31.8668 17.7448 33.699 15.0092 33.699C12.2737 33.699 10.911 31.854 10.911 29.4783ZM16.5939 29.5752V29.1797C16.5939 27.47 16.1346 27.0387 15.022 27.0387C13.9094 27.0387 13.4858 27.4981 13.4858 29.2308V29.6135C13.4858 31.6576 14.0064 32.0888 15.0449 32.0888C16.0835 32.0888 16.5914 31.5937 16.5914 29.5752H16.5939Z" fill="#FBFBFB"/>
<path d="M21.9079 27.2124H19.7286V25.4669H26.5267V27.2124H24.3474V33.5256H21.9079V27.2124Z" fill="#FBFBFB"/>
<path d="M29.2625 25.4669H31.7148L34.5014 33.5256H31.9266L31.5923 32.4105H28.7317L28.3617 33.5256H26.2819L29.265 25.4669H29.2625ZM31.1687 31.0376L30.4516 28.6593L30.2041 27.2609L29.9566 28.6593L29.1757 31.0376H31.1687Z" fill="#FBFBFB"/>
<path d="M35.5141 25.4669H39.3393C41.0235 25.4669 42.2867 25.9262 42.2867 27.6207C42.2867 28.8353 41.5926 29.1798 40.7505 29.3789C41.6666 29.5396 42.5827 29.9352 42.5827 31.3361C42.5827 32.8468 41.6283 33.5282 39.5358 33.5282H35.5116V25.4695L35.5141 25.4669ZM39.0816 28.8098C39.6507 28.8098 39.8982 28.6235 39.8982 28.0672V27.8682C39.8982 27.3119 39.6507 27.1256 39.0306 27.1256H37.9154V28.8098H39.079H39.0816ZM39.1684 31.9537C39.8369 31.9537 40.1228 31.7802 40.1228 31.1499V30.9763C40.1228 30.3333 39.8752 30.1215 39.2194 30.1215H37.9205V31.9537H39.1709H39.1684Z" fill="#FBFBFB"/>
<path d="M43.8237 25.4669H49.7159V27.2124H46.2249V28.6848H49.0728V30.318H46.2249V31.8286H49.8766V33.5256H43.8237V25.4669Z" fill="#FBFBFB"/>
<path d="M53.6169 25.4669H56.0692L58.8558 33.5256H56.281L55.9467 32.4105H53.0861L52.7161 33.5256H50.6364L53.6195 25.4669H53.6169ZM55.5231 31.0376L54.8061 28.6593L54.5585 27.2609L54.311 28.6593L53.5301 31.0376H55.5231Z" fill="#FBFBFB"/>
</svg>
