<svg width="42" height="40" viewBox="0 0 42 40" fill="none" xmlns="http://www.w3.org/2000/svg">
<path d="M24.444 8.34915C24.4612 8.17012 24.4827 7.97676 24.507 7.76193C24.7104 5.9129 24.9138 4.06388 25.1272 2.11603C25.2274 1.19653 26.1398 0.593552 27.0249 0.861381C29.3938 1.58037 31.4448 2.6703 33.3053 4.14838C35.3606 5.78114 35.3405 5.80835 33.3096 7.44397C31.8401 8.62844 30.3534 9.79142 28.9069 11.0017C27.6551 9.80431 26.1355 8.88481 24.4454 8.34915H24.444ZM6.89329 7.06156C8.86406 8.46802 10.7947 9.92891 12.7569 11.3454C14.6603 9.3732 17.2541 8.07559 20.1244 7.85502C20.3736 5.78973 20.5984 3.70725 20.8333 1.54313C20.9278 0.669461 20.1974 -0.076738 19.3223 0.00633213C14.3796 0.468947 10.2247 2.37956 6.72429 5.85848C6.27313 6.30677 6.31896 6.65337 6.89186 7.06299L6.89329 7.06156ZM38.4714 10.1036C38.1434 9.51643 37.8312 9.10394 37.1294 9.65392C35.2317 11.142 33.3282 12.6201 31.5651 13.9922C31.4649 14.0695 31.3718 14.1555 31.2858 14.2443C32.0349 15.7667 32.4588 17.4754 32.4588 19.28C32.4588 25.6005 27.3171 30.7423 20.9966 30.7423H18.9141C18.0075 30.7423 17.2699 31.4799 17.2699 32.3865C17.2699 33.3561 16.4822 34.1438 15.5125 34.1438H13.1565C12.5951 34.9087 12.0322 35.6792 11.4593 36.4612C11.1614 36.868 11.2659 37.438 11.6841 37.7173C11.8976 37.8605 12.0995 37.978 12.3172 38.0496C14.0688 38.621 15.8119 39.2799 17.6108 39.6279C21.77 40.4328 25.8233 39.943 29.6416 38.0496C35.7258 35.0318 39.4654 30.1679 40.7 23.4908C41.5693 18.7916 40.8217 14.3001 38.4728 10.1022L38.4714 10.1036ZM9.53292 31.7191V26.9569C9.53292 25.9314 9.94684 24.9646 10.6673 24.2585C9.88095 22.6272 9.49138 20.8211 9.53578 18.995C9.57159 17.5155 9.89671 16.1047 10.451 14.8129C8.62774 13.4422 6.75723 12.083 4.68478 10.572C4.09756 10.1437 3.26256 10.3887 3.00046 11.0661C2.4605 12.4583 1.94633 13.7172 1.62121 15.0234C-0.177689 22.2419 1.66131 28.5423 6.63692 33.9963C7.20982 34.6251 7.62374 34.7425 8.20093 33.9304C8.64636 33.3031 9.10181 32.683 9.5587 32.0628C9.54294 31.9511 9.53149 31.8365 9.53149 31.7191H9.53292Z" fill="#FBFBFB"/>
<path fill-rule="evenodd" clip-rule="evenodd" d="M30.8563 19.2814C30.8563 13.8762 26.4593 9.45338 21.0554 9.42188C21.0368 9.42188 21.0168 9.42188 20.9981 9.42188C15.6859 9.42188 11.2689 13.7215 11.14 19.0337C11.097 20.801 11.5253 22.5441 12.3789 24.0766L12.7398 24.724L12.1211 25.1336C11.5038 25.5432 11.1357 26.2235 11.1357 26.9568V31.719C11.1357 32.1731 11.5052 32.5426 11.9592 32.5426H15.5112C15.5971 32.5426 15.6659 32.4738 15.6659 32.3879C15.6659 30.5976 17.1225 29.141 18.9128 29.141H20.9838C26.4321 29.141 30.8563 24.7182 30.8563 19.2814ZM26.475 19.6352C26.3017 22.3822 24.0989 24.585 21.3519 24.7598C21.2359 24.7669 21.1184 24.7712 21.0024 24.7712C19.5473 24.7712 18.1465 24.1955 17.1139 23.1628C15.9996 22.0485 15.4167 20.5031 15.5169 18.9248C15.6902 16.1778 17.893 13.975 20.6415 13.8017C22.2198 13.7014 23.7638 14.2843 24.8781 15.3986C25.9924 16.5129 26.5739 18.0569 26.475 19.6352Z" fill="#FBFBFB"/>
</svg>
