<svg xmlns="http://www.w3.org/2000/svg" width="108" height="40" viewBox="0 0 108 40" fill="none">
  <path d="M90.444 8.34915C90.4612 8.17012 90.4827 7.97676 90.507 7.76193C90.7104 5.9129 90.9138 4.06388 91.1272 2.11603C91.2274 1.19653 92.1398 0.593552 93.0249 0.861381C95.3938 1.58037 97.4448 2.6703 99.3053 4.14838C101.361 5.78114 101.341 5.80835 99.3096 7.44397C97.8401 8.62844 96.3534 9.79142 94.9069 11.0017C93.6551 9.80431 92.1355 8.88481 90.4454 8.34915H90.444ZM72.8933 7.06156C74.8641 8.46802 76.7947 9.92891 78.7569 11.3454C80.6604 9.3732 83.2541 8.07559 86.1244 7.85502C86.3736 5.78973 86.5984 3.70725 86.8333 1.54313C86.9279 0.669461 86.1974 -0.076738 85.3223 0.00633213C80.3796 0.468947 76.2247 2.37956 72.7243 5.85848C72.2731 6.30677 72.319 6.65337 72.8919 7.06299L72.8933 7.06156ZM104.471 10.1036C104.143 9.51643 103.831 9.10394 103.129 9.65392C101.232 11.142 99.3282 12.6201 97.5651 13.9922C97.4649 14.0695 97.3718 14.1555 97.2858 14.2443C98.0349 15.7667 98.4588 17.4754 98.4588 19.28C98.4588 25.6005 93.3171 30.7423 86.9966 30.7423H84.9141C84.0075 30.7423 83.2699 31.4799 83.2699 32.3865C83.2699 33.3561 82.4822 34.1438 81.5125 34.1438H79.1565C78.5951 34.9087 78.0322 35.6792 77.4593 36.4612C77.1614 36.868 77.2659 37.438 77.6842 37.7173C77.8976 37.8605 78.0995 37.978 78.3172 38.0496C80.0688 38.621 81.8119 39.2799 83.6108 39.6279C87.77 40.4328 91.8233 39.943 95.6416 38.0496C101.726 35.0318 105.465 30.1679 106.7 23.4908C107.569 18.7916 106.822 14.3001 104.473 10.1022L104.471 10.1036ZM75.5329 31.7191V26.9569C75.5329 25.9314 75.9468 24.9646 76.6673 24.2585C75.881 22.6272 75.4914 20.8211 75.5358 18.995C75.5716 17.5155 75.8967 16.1047 76.451 14.8129C74.6277 13.4422 72.7572 12.083 70.6848 10.572C70.0976 10.1437 69.2626 10.3887 69.0005 11.0661C68.4605 12.4583 67.9463 13.7172 67.6212 15.0234C65.8223 22.2419 67.6613 28.5423 72.6369 33.9963C73.2098 34.6251 73.6237 34.7425 74.2009 33.9304C74.6464 33.3031 75.1018 32.683 75.5587 32.0628C75.543 31.9511 75.5315 31.8365 75.5315 31.7191H75.5329Z" fill="#158456"/>
  <path fill-rule="evenodd" clip-rule="evenodd" d="M96.8563 19.2814C96.8563 13.8762 92.4593 9.45338 87.0555 9.42188C87.0368 9.42188 87.0168 9.42188 86.9982 9.42188C81.686 9.42188 77.2689 13.7215 77.14 19.0337C77.0971 20.801 77.5253 22.5441 78.3789 24.0766L78.7399 24.724L78.1211 25.1336C77.5038 25.5432 77.1357 26.2235 77.1357 26.9568V31.719C77.1357 32.1731 77.5053 32.5426 77.9593 32.5426H81.5112C81.5972 32.5426 81.6659 32.4738 81.6659 32.3879C81.6659 30.5976 83.1225 29.141 84.9128 29.141H86.9838C92.4321 29.141 96.8563 24.7182 96.8563 19.2814ZM92.4751 19.6352C92.3018 22.3822 90.099 24.585 87.3519 24.7598C87.2359 24.7669 87.1185 24.7712 87.0025 24.7712C85.5473 24.7712 84.1466 24.1955 83.1139 23.1628C81.9996 22.0485 81.4167 20.5031 81.517 18.9248C81.6903 16.1778 83.8931 13.975 86.6415 13.8017C88.2199 13.7014 89.7638 14.2843 90.8781 15.3986C91.9924 16.5129 92.5739 18.0569 92.4751 19.6352Z" fill="#158456"/>
  <path d="M23.5682 21.9829C23.2032 21.7124 22.7822 21.5746 22.3075 21.5746C21.8329 21.5746 21.4221 21.7073 21.0725 21.9702C20.7075 22.2585 20.5264 22.6439 20.5264 23.1287C20.5264 23.6136 20.7075 24.0014 21.0725 24.3C21.4119 24.5705 21.8227 24.7083 22.3075 24.7083C22.7924 24.7083 23.193 24.5731 23.5426 24.3C23.9254 24.004 24.1142 23.6136 24.1142 23.1287C24.1142 22.6439 23.9305 22.256 23.5682 21.9829Z" fill="#158456"/>
  <path d="M20.5142 13.7227C20.5142 14.723 20.2896 15.4528 19.8405 15.9121C19.3914 16.3715 18.7968 16.5986 18.0593 16.5986V16.6241H11.963C11.4297 16.6241 10.9397 16.5297 10.5008 16.3434C10.067 16.1648 9.69953 15.9147 9.39331 15.5931C9.08709 15.2793 8.84977 14.8939 8.68134 14.4346C8.52058 13.9855 8.43892 13.4879 8.43892 12.9469C8.43892 12.4059 8.52058 11.8828 8.68134 11.4337C8.84977 10.9845 9.08964 10.6018 9.39331 10.2879C9.69953 9.974 10.067 9.72903 10.5008 9.5504C10.9423 9.38198 11.4297 9.29521 11.963 9.29521V11.699H15.6147V6.92711C15.3774 6.81738 15.1298 6.71531 14.8772 6.62089C13.9943 6.31467 13.0246 6.16156 11.963 6.16156C10.9014 6.16156 9.91899 6.30957 9.03605 6.60813C8.15312 6.91435 7.39777 7.35837 6.77002 7.94529C6.13461 8.52201 5.64211 9.23141 5.29506 10.071C4.9378 10.9105 4.76173 11.87 4.76173 12.9469C4.76173 14.0238 4.94035 15.0011 5.29506 15.8483C5.415 16.1367 5.55024 16.4123 5.70335 16.6751C5.0067 16.7517 4.37895 16.8971 3.8201 17.1089C2.96268 17.4407 2.25582 17.8898 1.69442 18.4589C1.13557 19.0356 0.70941 19.7093 0.421053 20.4825C0.140351 21.2531 0 22.085 0 22.9756C0 23.5778 0.0586924 24.1546 0.178629 24.7057H3.9579C3.73844 24.1469 3.62616 23.5549 3.62616 22.9373C3.62616 22.3198 3.76906 21.715 4.05232 21.2072C4.33557 20.6994 4.78724 20.3038 5.40734 20.0231C5.80543 19.8445 6.28517 19.7552 6.84402 19.7552H18.0542C18.1742 19.7552 18.2865 19.7399 18.3962 19.7169C20.1391 19.6582 21.5222 19.1453 22.5327 18.1705C23.6096 17.1319 24.148 15.6493 24.148 13.7227V10.8595H25.6485V7.72838H20.5193L20.5066 13.7227H20.5142Z" fill="#158456"/>
  <path d="M38.6599 5.75838C38.9917 6.02887 39.4025 6.16667 39.895 6.16667C40.3875 6.16667 40.7805 6.03143 41.1301 5.75838C41.5027 5.46237 41.689 5.07194 41.689 4.58709C41.689 4.10224 41.5052 3.71436 41.1429 3.44132C40.778 3.17082 40.362 3.03302 39.895 3.03302C39.428 3.03302 38.9993 3.16571 38.6599 3.42855C38.2874 3.71691 38.1011 4.10224 38.1011 4.58709C38.1011 5.07194 38.2874 5.45981 38.6599 5.75838Z" fill="#158456"/>
  <path d="M34.322 5.75838C34.6538 6.02887 35.0595 6.16667 35.5444 6.16667C36.0292 6.16667 36.4426 6.03143 36.7922 5.75838C37.1648 5.46237 37.3511 5.07194 37.3511 4.58709C37.3511 4.10224 37.1673 3.71436 36.805 3.44132C36.4401 3.17082 36.019 3.03302 35.5444 3.03302C35.0697 3.03302 34.6614 3.16571 34.322 3.42855C33.9495 3.71691 33.7632 4.10224 33.7632 4.58709C33.7632 5.07194 33.9495 5.45981 34.322 5.75838Z" fill="#158456"/>
  <path d="M58.3318 10.0714C57.9746 9.23185 57.4846 8.52245 56.8568 7.94573C56.2291 7.36136 55.4687 6.91989 54.5781 6.62133C53.6951 6.31511 52.7254 6.162 51.6639 6.162C50.6023 6.162 49.6326 6.31511 48.7497 6.62133C47.8667 6.9352 47.1037 7.38177 46.4581 7.95849C45.8227 8.54286 45.3302 9.25737 44.9832 10.0969C44.6259 10.9365 44.4498 11.8858 44.4498 12.9473V13.9017C44.4498 14.7923 44.2329 15.466 43.8017 15.9253C43.3678 16.3923 42.7707 16.6245 42.0077 16.6245C41.2447 16.6245 40.645 16.3923 40.2138 15.9253C39.78 15.4685 39.5656 14.7923 39.5656 13.9017V10.8599H41.0661V7.72882H35.9369L35.9241 13.7231C35.9241 14.7234 35.6996 15.4532 35.2505 15.9126C34.8013 16.3719 34.2068 16.599 33.4693 16.599V16.6118C32.7063 16.6118 32.1066 16.3821 31.6753 15.9253C31.2415 15.4583 31.0272 14.7795 31.0272 13.889V3.0462H27.3755V13.8379C27.3755 14.6851 27.5056 15.4762 27.771 16.2035C28.0339 16.9256 28.4294 17.5483 28.9551 18.074C29.4731 18.5996 30.1136 19.0105 30.8766 19.3091C31.632 19.5974 32.497 19.7429 33.4718 19.7429C33.5509 19.7429 33.6249 19.7327 33.6989 19.7225C34.5564 19.702 35.3347 19.577 36.0288 19.3371C36.6999 19.0998 37.2792 18.7655 37.7717 18.3317C38.231 18.74 38.7771 19.0666 39.4125 19.3116C40.15 19.5923 40.9997 19.7403 41.9567 19.7582H42.0205C42.0205 19.7582 42.0281 19.7582 42.0332 19.7582C43.0055 19.748 43.8629 19.6 44.6055 19.3142C45.3685 19.0181 46.0141 18.6047 46.5398 18.0791L46.5525 18.0663C47.1726 18.5996 47.905 19.013 48.7548 19.3014C49.6377 19.6076 50.6074 19.7607 51.669 19.7607C52.7305 19.7607 53.7002 19.6076 54.5832 19.3014C55.4738 18.9952 56.2342 18.5588 56.862 17.9898C57.4897 17.413 57.9822 16.7011 58.3369 15.8513C58.684 15.0041 58.8575 14.037 58.8575 12.9499C58.8575 11.8628 58.684 10.9237 58.3369 10.074L58.3318 10.0714ZM54.9404 14.4376C54.7745 14.8867 54.5398 15.2721 54.2336 15.5961C53.9273 15.9177 53.5573 16.1677 53.121 16.3464C52.6846 16.525 52.1972 16.6143 51.6639 16.6143C51.1305 16.6143 50.6712 16.525 50.2374 16.3464C49.8036 16.1677 49.431 15.9177 49.1171 15.5961C48.8033 15.2746 48.5583 14.8867 48.3848 14.4376C48.2112 13.9885 48.1245 13.4909 48.1245 12.9499C48.1245 12.4089 48.2112 11.9266 48.3848 11.4877C48.5583 11.0462 48.7982 10.6609 49.1044 10.3291C49.4106 9.99741 49.7832 9.74478 50.2246 9.56615C50.6661 9.38752 51.1458 9.2982 51.6613 9.2982C52.1768 9.2982 52.682 9.38497 53.1184 9.55849C53.5548 9.73202 53.9248 9.97699 54.2259 10.2909C54.527 10.6047 54.7618 10.9875 54.9328 11.4417C55.1012 11.896 55.1879 12.3987 55.1879 12.9499C55.1879 13.5011 55.1063 13.9885 54.9404 14.4376Z" fill="#158456"/>
  <path d="M0.00292969 28.4669H3.37135L4.53499 33.1597L4.73403 35.4003L4.93308 33.1597L6.20899 28.4669H9.66418V36.5256H7.22463V32.8867L7.47215 29.3345L6.9771 31.8736L5.75222 36.5282H3.46067L2.28427 31.8966L1.85046 29.3345L2.0495 32.9122V36.5282H0.00548158V28.4695L0.00292969 28.4669Z" fill="#158456"/>
  <path d="M10.9111 32.4783C10.9111 30.0642 12.3223 28.3188 15.0451 28.3188C17.7679 28.3188 19.1689 30.0387 19.1689 32.4528C19.1689 34.8668 17.745 36.699 15.0094 36.699C12.2738 36.699 10.9111 34.854 10.9111 32.4783ZM16.5941 32.5752V32.1797C16.5941 30.47 16.1347 30.0387 15.0221 30.0387C13.9095 30.0387 13.4859 30.4981 13.4859 32.2308V32.6135C13.4859 34.6576 14.0065 35.0888 15.0451 35.0888C16.0837 35.0888 16.5915 34.5937 16.5915 32.5752H16.5941Z" fill="#158456"/>
  <path d="M21.9078 30.2124H19.7285V28.4669H26.5266V30.2124H24.3473V36.5256H21.9078V30.2124Z" fill="#158456"/>
  <path d="M29.2628 28.4669H31.7151L34.5017 36.5256H31.9269L31.5926 35.4105H28.732L28.362 36.5256H26.2822L29.2653 28.4669H29.2628ZM31.169 34.0376L30.4519 31.6593L30.2044 30.2609L29.9569 31.6593L29.176 34.0376H31.169Z" fill="#158456"/>
  <path d="M35.5143 28.4669H39.3395C41.0237 28.4669 42.2868 28.9262 42.2868 30.6207C42.2868 31.8353 41.5927 32.1798 40.7506 32.3789C41.6667 32.5396 42.5829 32.9352 42.5829 34.3361C42.5829 35.8468 41.6285 36.5282 39.536 36.5282H35.5117V28.4695L35.5143 28.4669ZM39.0817 31.8098C39.6508 31.8098 39.8983 31.6235 39.8983 31.0672V30.8682C39.8983 30.3119 39.6508 30.1256 39.0307 30.1256H37.9155V31.8098H39.0792H39.0817ZM39.1685 34.9537C39.8371 34.9537 40.1229 34.7802 40.1229 34.1499V33.9763C40.1229 33.3333 39.8754 33.1215 39.2195 33.1215H37.9207V34.9537H39.1711H39.1685Z" fill="#158456"/>
  <path d="M43.8237 28.4669H49.7159V30.2124H46.225V31.6848H49.0729V33.318H46.225V34.8286H49.8767V36.5256H43.8237V28.4669Z" fill="#158456"/>
  <path d="M53.6173 28.4669H56.0696L58.8562 36.5256H56.2814L55.9471 35.4105H53.0865L52.7165 36.5256H50.6367L53.6198 28.4669H53.6173ZM55.5235 34.0376L54.8064 31.6593L54.5589 30.2609L54.3114 31.6593L53.5305 34.0376H55.5235Z" fill="#158456"/>
</svg>