            <svg xmlns="http://www.w3.org/2000/svg" width="24" height="24" viewBox="0 0 24 24" fill="none">
              <g clip-path="url(#clip0_3020_860)">
                <path d="M11.931 18.72C18.1522 18.72 23.0754 12.5602 23.2816 12.2981L23.5159 12L23.2816 11.7019C23.0754 11.4399 18.1522 5.28003 11.931 5.28003C5.70982 5.28003 0.786678 11.4399 0.580513 11.7019L0.346191 12L0.580513 12.2981C0.786678 12.5602 5.70982 18.72 11.931 18.72ZM11.931 6.24003C16.9391 6.24003 21.2228 10.7808 22.2822 12C21.2242 13.2202 16.9463 17.76 11.931 17.76C6.92294 17.76 2.6393 13.2192 1.57984 12C2.63787 10.7799 6.91579 6.24003 11.931 6.24003Z" fill="#505050"/>
                <path d="M11.9308 16.3201C14.2994 16.3201 16.2259 14.3818 16.2259 12.0001C16.2259 9.61829 14.2994 7.68005 11.9308 7.68005C9.56233 7.68005 7.63574 9.61829 7.63574 12.0001C7.63574 14.3818 9.56233 16.3201 11.9308 16.3201ZM11.9308 8.64005C13.7725 8.64005 15.2715 10.1473 15.2715 12.0001C15.2715 13.8529 13.7725 15.3601 11.9308 15.3601C10.0892 15.3601 8.59021 13.8529 8.59021 12.0001C8.59021 10.1473 10.0892 8.64005 11.9308 8.64005Z" fill="#505050"/>
              </g>
              <defs>
                <clipPath id="clip0_3020_860">
                  <rect width="23.8617" height="24" fill="white"/>
                </clipPath>
              </defs>
            </svg>