<svg width="13" height="14" viewBox="0 0 13 14" fill="none" xmlns="http://www.w3.org/2000/svg">
<path d="M2.12372 13.8976C1.85338 13.8976 1.58303 13.8276 1.33531 13.6863C1.08926 13.5485 0.884684 13.3473 0.742905 13.1035C0.601127 12.8597 0.527341 12.5824 0.529241 12.3004V1.699C0.529241 1.11804 0.830482 0.59997 1.33531 0.313073C1.83959 0.0256247 2.43876 0.0316936 2.93807 0.329073L11.844 5.63004C12.3312 5.92025 12.6225 6.43225 12.6225 6.99997C12.6225 7.5677 12.3312 8.0797 11.844 8.3699L2.93862 13.6709C2.69242 13.8186 2.41084 13.8969 2.12372 13.8976ZM2.12593 1.20687C2.03985 1.20763 1.95538 1.23022 1.88041 1.27252C1.80441 1.31461 1.74121 1.37647 1.69751 1.45155C1.6538 1.52663 1.63121 1.61213 1.63214 1.699V12.3009C1.63214 12.5586 1.80538 12.6849 1.88041 12.7274C1.95551 12.7712 2.04106 12.7939 2.12799 12.793C2.21493 12.7922 2.30001 12.7678 2.37421 12.7225L11.2796 7.42149C11.4959 7.29294 11.5196 7.08383 11.5196 6.99997C11.5196 6.91611 11.4964 6.70701 11.2796 6.57845L2.37365 1.27749C2.2992 1.2315 2.21345 1.20706 2.12593 1.20687Z" fill="white"/>
</svg>
