<svg
            xmlns="http://www.w3.org/2000/svg"
            width="135"
            height="22"
            viewBox="0 0 135 22"
            fill="none"
          >
            <path
              d="M8.44496 4.29509H10.2566V1.13974C9.94408 1.09674 8.86914 1 7.61726 1C5.00516 1 3.21581 2.643 3.21581 5.66274V8.44186H0.333328V11.9693H3.21581V20.845H6.74987V11.9701H9.51576L9.95483 8.44269H6.74904V6.01251C6.74987 4.99297 7.02439 4.29509 8.44496 4.29509Z"
              fill="white"
            />
            <path
              d="M72.295 4.11613C71.4769 4.475 70.6051 4.71288 69.6962 4.82838C70.6312 4.27013 71.3449 3.39287 71.6804 2.3355C70.8086 2.85525 69.8461 3.22238 68.8204 3.42725C67.9926 2.54588 66.8129 2 65.5259 2C63.0289 2 61.0186 4.02675 61.0186 6.51137C61.0186 6.86888 61.0489 7.21263 61.1231 7.53988C57.3735 7.357 54.0556 5.55988 51.8267 2.82225C51.4376 3.49738 51.2094 4.27012 51.2094 5.102C51.2094 6.664 52.0137 8.04862 53.2127 8.85025C52.4881 8.8365 51.7772 8.62613 51.175 8.29475C51.175 8.3085 51.175 8.32638 51.175 8.34425C51.175 10.536 52.7384 12.3565 54.7885 12.7759C54.4214 12.8763 54.0212 12.9244 53.606 12.9244C53.3172 12.9244 53.0257 12.9079 52.7521 12.8474C53.3365 14.6335 54.9947 15.9466 56.9665 15.9893C55.432 17.1896 53.4836 17.9129 51.3744 17.9129C51.0045 17.9129 50.6497 17.8964 50.295 17.851C52.2929 19.1394 54.6606 19.875 57.214 19.875C65.5135 19.875 70.051 13 70.051 7.04075C70.051 6.84137 70.0441 6.64887 70.0345 6.45775C70.9296 5.8225 71.6817 5.02913 72.295 4.11613Z"
              fill="white"
            />
            <path
              fill-rule="evenodd"
              clip-rule="evenodd"
              d="M119.17 0H127.42C131.216 0 134.295 3.07862 134.295 6.875V15.125C134.295 18.9214 131.216 22 127.42 22H119.17C115.374 22 112.295 18.9214 112.295 15.125V6.875C112.295 3.07862 115.374 0 119.17 0ZM127.42 19.9375C130.074 19.9375 132.232 17.7787 132.232 15.125V6.875C132.232 4.22125 130.074 2.0625 127.42 2.0625H119.17C116.516 2.0625 114.357 4.22125 114.357 6.875V15.125C114.357 17.7787 116.516 19.9375 119.17 19.9375H127.42Z"
              fill="white"
            />
            <path
              fill-rule="evenodd"
              clip-rule="evenodd"
              d="M117.795 11C117.795 7.96263 120.258 5.5 123.295 5.5C126.332 5.5 128.795 7.96263 128.795 11C128.795 14.0374 126.332 16.5 123.295 16.5C120.258 16.5 117.795 14.0374 117.795 11ZM119.857 11C119.857 12.8948 121.4 14.4375 123.295 14.4375C125.19 14.4375 126.732 12.8948 126.732 11C126.732 9.10388 125.19 7.5625 123.295 7.5625C121.4 7.5625 119.857 9.10388 119.857 11Z"
              fill="white"
            />
            <circle cx="129.207" cy="5.08737" r="0.732875" fill="white" />
          </svg>