<svg width="52" height="52" viewBox="0 0 52 52" fill="none" xmlns="http://www.w3.org/2000/svg">
<path d="M26 52C11.6406 52 -5.08827e-07 40.3594 -1.1365e-06 26C-1.76417e-06 11.6406 11.6406 -5.08827e-07 26 -1.1365e-06C40.3594 -1.76417e-06 52 11.6406 52 26C52 40.3594 40.3594 52 26 52Z" fill="white"/>
<path d="M31.2028 20.1537C31.1951 20.1536 31.1874 20.1536 31.1796 20.1538L20.8087 20.1538C20.4406 20.1537 20.1422 20.452 20.1422 20.8201C20.1421 20.8201 20.1422 20.82 20.1422 20.8201L20.1422 31.1912C20.1486 31.5593 20.4522 31.8526 20.8203 31.8462C21.1794 31.8399 21.469 31.5503 21.4752 31.1912L21.4753 22.4297L30.7083 31.6626C30.9686 31.923 31.3907 31.923 31.6511 31.6626C31.9114 31.4023 31.9114 30.9801 31.6511 30.7198L22.4181 21.4869L31.1797 21.4869C31.5478 21.4933 31.8514 21.2001 31.8578 20.8319C31.8642 20.4638 31.5709 20.1601 31.2028 20.1537Z" fill="#158456"/>
<path d="M20.1422 20.8201C20.1422 20.452 20.4406 20.1537 20.8087 20.1538L31.1796 20.1538C31.1874 20.1536 31.1951 20.1536 31.2028 20.1537C31.5709 20.1601 31.8642 20.4638 31.8578 20.8319C31.8514 21.2001 31.5478 21.4933 31.1797 21.4869L22.4181 21.4869L31.6511 30.7198C31.9114 30.9801 31.9114 31.4023 31.6511 31.6626C31.3907 31.923 30.9686 31.923 30.7083 31.6626L21.4753 22.4297L21.4752 31.1912C21.469 31.5503 21.1794 31.8399 20.8203 31.8462C20.4522 31.8526 20.1486 31.5593 20.1422 31.1912L20.1422 20.8201ZM20.1422 20.8201C20.1421 20.8201 20.1422 20.82 20.1422 20.8201Z" stroke="#158456" stroke-width="0.6"/>
</svg>
