<svg xmlns="http://www.w3.org/2000/svg" width="24" height="24" viewBox="0 0 24 24" fill="none">
  <path d="M19.8367 8.43697L10.2367 18.037C10.1531 18.1209 10.0538 18.1875 9.94438 18.2329C9.83498 18.2783 9.71769 18.3017 9.59924 18.3017C9.48079 18.3017 9.3635 18.2783 9.25411 18.2329C9.14471 18.1875 9.04535 18.1209 8.96174 18.037L4.76174 13.837C4.67802 13.7533 4.61162 13.6539 4.56631 13.5445C4.521 13.4351 4.49768 13.3179 4.49768 13.1995C4.49768 13.0811 4.521 12.9638 4.56631 12.8545C4.61162 12.7451 4.67802 12.6457 4.76174 12.562C4.84546 12.4783 4.94485 12.4118 5.05423 12.3665C5.16361 12.3212 5.28085 12.2979 5.39924 12.2979C5.51764 12.2979 5.63487 12.3212 5.74425 12.3665C5.85364 12.4118 5.95302 12.4783 6.03674 12.562L9.59999 16.1252L18.5632 7.16348C18.7323 6.9944 18.9616 6.89941 19.2007 6.89941C19.4398 6.89941 19.6692 6.9944 19.8382 7.16348C20.0073 7.33255 20.1023 7.56187 20.1023 7.80098C20.1023 8.04008 20.0073 8.2694 19.8382 8.43848L19.8367 8.43697Z" fill="white"/>
</svg>